 <!DOCTYPE svg PUBLIC "-//W3C//DTD SVG 1.1//EN" "http://www.w3.org/Graphics/SVG/1.1/DTD/svg11.dtd">
<svg xmlns="http://www.w3.org/2000/svg" width="865.76" height="682.89" viewBox="0 0 865.76 682.89">
<defs>
<style xmlns="http://www.w3.org/1999/xhtml">*, ::after, ::before { box-sizing: border-box; }
img, svg { vertical-align: middle; }
</style>
<style xmlns="http://www.w3.org/1999/xhtml">*, body, html { -webkit-font-smoothing: antialiased; }
img, svg { max-width: 100%; }
</style>
</defs>
<path d="M657.34,175.63H539.21s5.87-7.71,12.33-8.6c0,0,12.59-37.49,33.67-37.76,19.6-.24,27.46,23.12,27.46,23.12s9.07-10.45,17.75-5.67S644,165.21,644,165.21,653.81,170.37,657.34,175.63Z" fill="#ebebeb"/>
<path d="M124.55,153.62H273.92s0-9.55-20.58-11.42c0,0-18.78-41.71-47.46-36.1-17.87,3.48-27,28-27,28s-13.5-19.31-24.31-15.56-17.21,24.27-17.21,24.27S126.23,148.23,124.55,153.62Z" fill="#ebebeb"/>
<path d="M306.52,61.67H408.09s-9.59-8.92-13.87-8.92-16.69-30-32.58-28.68-24.3,23.58-24.3,23.58S318,41.59,306.52,61.67Z" fill="#ebebeb"/>
<path d="M342.38,198.2h86.85s-4.31-5.62-9.08-6.32c0,0-9.24-27.56-24.76-27.73C381,164,375.2,181.1,375.2,181.1s-6.68-7.71-13.06-4.18-10,13.58-10,13.58S345.05,194.33,342.38,198.2Z" fill="#ebebeb"/>
<path d="M654.35,104.8h86.86s-4.33-5.61-9.09-6.31c0,0-9.24-27.57-24.75-27.74-14.42-.19-20.2,17-20.2,17s-6.67-7.71-13-4.16-10,13.57-10,13.57S657,101,654.35,104.8Z" fill="#ebebeb"/>
<polygon points="738.19 254.62 738.19 429.45 383.26 429.45 383.26 286.99 413.9 286.99 413.9 324.19 421.77 324.19 421.77 259.18 460.71 259.18 460.71 320.88 465.87 320.88 465.87 242.63 499.71 242.63 499.71 264.11 517.07 264.11 517.07 290.83 522.34 290.83 522.34 274.02 553.09 274.02 553.09 324.18 562.09 324.18 562.09 283.42 590.23 283.42 590.23 252.44 609.37 252.44 609.37 234.8 631.5 234.8 631.5 313.02 638.96 313.02 638.96 280.38 675.41 280.38 675.41 327.1 680.45 327.1 680.45 288.96 717.44 288.96 717.44 254.62 738.19 254.62" fill="#ebebeb"/>
<rect x="387.02" y="291.68" width="5.18" height="7.1" fill="#fff"/>
<rect x="395.99" y="291.68" width="5.18" height="7.1" fill="#fff"/>
<rect x="404.98" y="291.68" width="5.18" height="7.1" fill="#fff"/>
<rect x="387.02" y="302.37" width="5.18" height="7.1" fill="#fff"/>
<rect x="395.99" y="302.37" width="5.18" height="7.1" fill="#fff"/>
<rect x="404.98" y="302.37" width="5.18" height="7.1" fill="#fff"/>
<rect x="387.02" y="313.06" width="5.18" height="7.1" fill="#fff"/>
<rect x="395.99" y="313.06" width="5.18" height="7.1" fill="#fff"/>
<rect x="404.98" y="313.06" width="5.18" height="7.1" fill="#fff"/>
<rect x="387.02" y="323.77" width="5.18" height="7.1" fill="#fff"/>
<rect x="395.99" y="323.77" width="5.18" height="7.1" fill="#fff"/>
<rect x="404.98" y="323.77" width="5.18" height="7.1" fill="#fff"/>
<rect x="566.42" y="288.49" width="5.18" height="5.93" fill="#fff"/>
<rect x="575.41" y="288.49" width="5.18" height="5.93" fill="#fff"/>
<rect x="584.37" y="288.49" width="5.18" height="5.93" fill="#fff"/>
<rect x="566.42" y="297.41" width="5.18" height="5.93" fill="#fff"/>
<rect x="575.41" y="297.41" width="5.18" height="5.93" fill="#fff"/>
<rect x="584.37" y="297.41" width="5.18" height="5.93" fill="#fff"/>
<rect x="566.42" y="306.35" width="5.18" height="5.93" fill="#fff"/>
<rect x="575.41" y="306.35" width="5.18" height="5.93" fill="#fff"/>
<rect x="584.37" y="306.35" width="5.18" height="5.93" fill="#fff"/>
<rect x="566.42" y="315.27" width="5.18" height="5.93" fill="#fff"/>
<rect x="575.41" y="315.27" width="5.18" height="5.93" fill="#fff"/>
<rect x="584.37" y="315.27" width="5.18" height="5.93" fill="#fff"/>
<rect x="566.42" y="324.41" width="5.18" height="5.93" fill="#fff"/>
<rect x="575.41" y="324.41" width="5.18" height="5.93" fill="#fff"/>
<rect x="584.37" y="324.41" width="5.18" height="5.93" fill="#fff"/>
<rect x="566.42" y="333.56" width="5.18" height="5.93" fill="#fff"/>
<rect x="575.41" y="333.56" width="5.18" height="5.93" fill="#fff"/>
<rect x="584.37" y="333.56" width="5.18" height="5.93" fill="#fff"/>
<rect x="566.42" y="342.71" width="5.18" height="5.93" fill="#fff"/>
<rect x="575.41" y="342.71" width="5.18" height="5.93" fill="#fff"/>
<rect x="584.37" y="342.71" width="5.18" height="5.93" fill="#fff"/>
<rect x="566.42" y="351.85" width="5.18" height="5.93" fill="#fff"/>
<rect x="575.41" y="351.85" width="5.18" height="5.93" fill="#fff"/>
<rect x="584.37" y="351.85" width="5.18" height="5.93" fill="#fff"/>
<rect x="426.19" y="263.74" width="29.83" height="4.45" fill="#fff"/>
<rect x="426.19" y="272.37" width="29.83" height="4.45" fill="#fff"/>
<rect x="426.19" y="281" width="29.83" height="4.45" fill="#fff"/>
<rect x="426.19" y="289.63" width="29.83" height="4.45" fill="#fff"/>
<rect x="426.19" y="298.26" width="29.83" height="4.45" fill="#fff"/>
<rect x="426.19" y="306.88" width="29.83" height="4.45" fill="#fff"/>
<rect x="426.19" y="315.51" width="29.83" height="4.45" fill="#fff"/>
<rect x="426.19" y="324.14" width="29.83" height="4.45" fill="#fff"/>
<rect x="643.36" y="284.53" width="27.43" height="4.45" fill="#fff"/>
<rect x="643.36" y="293.15" width="27.43" height="4.45" fill="#fff"/>
<rect x="643.36" y="301.78" width="27.43" height="4.45" fill="#fff"/>
<rect x="643.36" y="310.41" width="27.43" height="4.45" fill="#fff"/>
<rect x="643.36" y="319.04" width="27.43" height="4.45" fill="#fff"/>
<rect x="643.36" y="327.67" width="27.43" height="4.45" fill="#fff"/>
<rect x="643.36" y="336.3" width="27.43" height="4.45" fill="#fff"/>
<rect x="643.36" y="344.93" width="27.43" height="4.45" fill="#fff"/>
<rect x="643.36" y="353.13" width="27.43" height="4.45" fill="#fff"/>
<rect x="643.36" y="361.33" width="27.43" height="4.45" fill="#fff"/>
<rect x="643.36" y="369.52" width="27.43" height="4.45" fill="#fff"/>
<rect x="643.36" y="377.74" width="27.43" height="4.45" fill="#fff"/>
<rect x="643.36" y="385.94" width="27.43" height="4.45" fill="#fff"/>
<rect x="686.15" y="294.96" width="28.97" height="4.45" fill="#fff"/>
<rect x="686.15" y="303.59" width="28.97" height="4.45" fill="#fff"/>
<rect x="686.15" y="312.22" width="28.97" height="4.45" fill="#fff"/>
<rect x="686.15" y="320.85" width="28.97" height="4.45" fill="#fff"/>
<rect x="686.15" y="329.48" width="28.97" height="4.45" fill="#fff"/>
<rect x="686.15" y="338.1" width="28.97" height="4.45" fill="#fff"/>
<rect x="686.15" y="346.73" width="28.97" height="4.45" fill="#fff"/>
<rect x="686.15" y="355.36" width="28.97" height="4.45" fill="#fff"/>
<rect x="686.15" y="363.08" width="28.97" height="4.45" fill="#fff"/>
<rect x="686.15" y="370.8" width="28.97" height="4.45" fill="#fff"/>
<rect x="686.15" y="378.52" width="28.97" height="4.45" fill="#fff"/>
<rect x="531.33" y="278.05" width="9.21" height="4.3" fill="#fff"/>
<rect x="531.33" y="286.39" width="9.21" height="4.3" fill="#fff"/>
<rect x="531.33" y="294.71" width="9.21" height="4.3" fill="#fff"/>
<rect x="531.33" y="303.05" width="9.21" height="4.3" fill="#fff"/>
<rect x="531.33" y="311.38" width="9.21" height="4.3" fill="#fff"/>
<rect x="531.33" y="319.72" width="9.21" height="4.3" fill="#fff"/>
<rect x="531.33" y="328.06" width="9.21" height="4.3" fill="#fff"/>
<rect x="531.33" y="336.38" width="9.21" height="4.3" fill="#fff"/>
<rect x="543.86" y="278.05" width="9.21" height="4.3" fill="#fff"/>
<rect x="543.86" y="286.39" width="9.21" height="4.3" fill="#fff"/>
<rect x="543.86" y="294.71" width="9.21" height="4.3" fill="#fff"/>
<rect x="543.86" y="303.05" width="9.21" height="4.3" fill="#fff"/>
<rect x="543.86" y="311.38" width="9.21" height="4.3" fill="#fff"/>
<rect x="543.86" y="319.72" width="9.21" height="4.3" fill="#fff"/>
<rect x="543.86" y="328.06" width="9.21" height="4.3" fill="#fff"/>
<rect x="543.86" y="336.38" width="9.21" height="4.3" fill="#fff"/>
<rect x="471.01" y="247.14" width="9.6" height="6.78" fill="#fff"/>
<rect x="485.31" y="247.14" width="9.6" height="6.78" fill="#fff"/>
<rect x="471.01" y="257.08" width="9.6" height="6.78" fill="#fff"/>
<rect x="485.31" y="257.08" width="9.6" height="6.78" fill="#fff"/>
<rect x="471.01" y="267.04" width="9.6" height="6.78" fill="#fff"/>
<rect x="485.31" y="267.04" width="9.6" height="6.78" fill="#fff"/>
<rect x="471.01" y="276.99" width="9.6" height="6.78" fill="#fff"/>
<rect x="485.31" y="276.99" width="9.6" height="6.78" fill="#fff"/>
<rect x="471.01" y="286.93" width="9.6" height="6.78" fill="#fff"/>
<rect x="485.31" y="286.93" width="9.6" height="6.78" fill="#fff"/>
<rect x="471.01" y="296.88" width="9.6" height="6.78" fill="#fff"/>
<rect x="485.31" y="296.88" width="9.6" height="6.78" fill="#fff"/>
<rect x="471.01" y="306.84" width="9.6" height="6.78" fill="#fff"/>
<rect x="485.31" y="306.84" width="9.6" height="6.78" fill="#fff"/>
<rect x="471.01" y="316.78" width="9.6" height="6.78" fill="#fff"/>
<rect x="485.31" y="316.78" width="9.6" height="6.78" fill="#fff"/>
<rect x="503.04" y="267.04" width="9.6" height="6.78" fill="#fff"/>
<rect x="503.04" y="276.99" width="9.6" height="6.78" fill="#fff"/>
<rect x="503.04" y="286.93" width="9.6" height="6.78" fill="#fff"/>
<rect x="503.04" y="296.88" width="9.6" height="6.78" fill="#fff"/>
<rect x="503.04" y="306.84" width="9.6" height="6.78" fill="#fff"/>
<rect x="503.04" y="316.78" width="9.6" height="6.78" fill="#fff"/>
<rect x="471.01" y="326.61" width="9.6" height="6.78" fill="#fff"/>
<rect x="485.31" y="326.61" width="9.6" height="6.78" fill="#fff"/>
<rect x="503.04" y="326.61" width="9.6" height="6.78" fill="#fff"/>
<rect x="471.01" y="336.44" width="9.6" height="6.78" fill="#fff"/>
<rect x="485.31" y="336.44" width="9.6" height="6.78" fill="#fff"/>
<rect x="503.04" y="336.44" width="9.6" height="6.78" fill="#fff"/>
<rect x="471.01" y="346.27" width="9.6" height="6.78" fill="#fff"/>
<rect x="485.31" y="346.27" width="9.6" height="6.78" fill="#fff"/>
<rect x="503.04" y="346.27" width="9.6" height="6.78" fill="#fff"/>
<rect x="471.01" y="356.1" width="9.6" height="6.78" fill="#fff"/>
<rect x="485.31" y="356.1" width="9.6" height="6.78" fill="#fff"/>
<rect x="503.04" y="356.1" width="9.6" height="6.78" fill="#fff"/>
<rect x="471.01" y="365.93" width="9.6" height="6.78" fill="#fff"/>
<rect x="485.31" y="365.93" width="9.6" height="6.78" fill="#fff"/>
<rect x="503.04" y="365.93" width="9.6" height="6.78" fill="#fff"/>
<rect x="594.14" y="256.8" width="5.18" height="5.93" fill="#fff"/>
<rect x="603.13" y="256.8" width="5.18" height="5.93" fill="#fff"/>
<rect x="594.14" y="265.73" width="5.18" height="5.93" fill="#fff"/>
<rect x="603.13" y="265.73" width="5.18" height="5.93" fill="#fff"/>
<rect x="594.14" y="274.65" width="5.18" height="5.93" fill="#fff"/>
<rect x="603.13" y="274.65" width="5.18" height="5.93" fill="#fff"/>
<rect x="594.14" y="283.59" width="5.18" height="5.93" fill="#fff"/>
<rect x="603.13" y="283.59" width="5.18" height="5.93" fill="#fff"/>
<rect x="594.14" y="292.72" width="5.18" height="5.93" fill="#fff"/>
<rect x="603.13" y="292.72" width="5.18" height="5.93" fill="#fff"/>
<rect x="594.14" y="301.88" width="5.18" height="5.93" fill="#fff"/>
<rect x="603.13" y="301.88" width="5.18" height="5.93" fill="#fff"/>
<rect x="594.14" y="311.01" width="5.18" height="5.93" fill="#fff"/>
<rect x="603.13" y="311.01" width="5.18" height="5.93" fill="#fff"/>
<rect x="594.14" y="320.17" width="5.18" height="5.93" fill="#fff"/>
<rect x="603.13" y="320.17" width="5.18" height="5.93" fill="#fff"/>
<rect x="594.14" y="329.41" width="5.18" height="5.93" fill="#fff"/>
<rect x="603.13" y="329.41" width="5.18" height="5.93" fill="#fff"/>
<rect x="594.14" y="338.66" width="5.18" height="5.93" fill="#fff"/>
<rect x="603.13" y="338.66" width="5.18" height="5.93" fill="#fff"/>
<rect x="594.14" y="347.91" width="5.18" height="5.93" fill="#fff"/>
<rect x="603.13" y="347.91" width="5.18" height="5.93" fill="#fff"/>
<rect x="594.14" y="357.15" width="5.18" height="5.93" fill="#fff"/>
<rect x="603.13" y="357.15" width="5.18" height="5.93" fill="#fff"/>
<rect x="720.69" y="257.77" width="5.18" height="7" fill="#fff"/>
<rect x="729.66" y="257.77" width="5.18" height="7" fill="#fff"/>
<rect x="720.69" y="268.28" width="5.18" height="7" fill="#fff"/>
<rect x="729.66" y="268.28" width="5.18" height="7" fill="#fff"/>
<rect x="720.69" y="278.79" width="5.18" height="7" fill="#fff"/>
<rect x="729.66" y="278.79" width="5.18" height="7" fill="#fff"/>
<rect x="720.69" y="289.32" width="5.18" height="7" fill="#fff"/>
<rect x="729.66" y="289.32" width="5.18" height="7" fill="#fff"/>
<rect x="720.69" y="300.09" width="5.18" height="7" fill="#fff"/>
<rect x="729.66" y="300.09" width="5.18" height="7" fill="#fff"/>
<rect x="720.69" y="310.86" width="5.18" height="7" fill="#fff"/>
<rect x="729.66" y="310.86" width="5.18" height="7" fill="#fff"/>
<rect x="720.69" y="321.65" width="5.18" height="7" fill="#fff"/>
<rect x="729.66" y="321.65" width="5.18" height="7" fill="#fff"/>
<rect x="720.69" y="332.42" width="5.18" height="7" fill="#fff"/>
<rect x="729.66" y="332.42" width="5.18" height="7" fill="#fff"/>
<rect x="720.69" y="343.31" width="5.18" height="7" fill="#fff"/>
<rect x="729.66" y="343.31" width="5.18" height="7" fill="#fff"/>
<rect x="720.69" y="354.21" width="5.18" height="7" fill="#fff"/>
<rect x="729.66" y="354.21" width="5.18" height="7" fill="#fff"/>
<rect x="720.69" y="365.09" width="5.18" height="7" fill="#fff"/>
<rect x="729.66" y="365.09" width="5.18" height="7" fill="#fff"/>
<rect x="720.69" y="375.98" width="5.18" height="7" fill="#fff"/>
<rect x="729.66" y="375.98" width="5.18" height="7" fill="#fff"/>
<rect x="613.36" y="256.8" width="5.18" height="5.93" fill="#fff"/>
<rect x="622.33" y="256.8" width="5.18" height="5.93" fill="#fff"/>
<rect x="613.36" y="247.65" width="5.18" height="5.93" fill="#fff"/>
<rect x="622.33" y="247.65" width="5.18" height="5.93" fill="#fff"/>
<rect x="613.36" y="238.5" width="5.18" height="5.93" fill="#fff"/>
<rect x="622.33" y="238.5" width="5.18" height="5.93" fill="#fff"/>
<rect x="613.36" y="265.73" width="5.18" height="5.93" fill="#fff"/>
<rect x="622.33" y="265.73" width="5.18" height="5.93" fill="#fff"/>
<rect x="613.36" y="274.65" width="5.18" height="5.93" fill="#fff"/>
<rect x="622.33" y="274.65" width="5.18" height="5.93" fill="#fff"/>
<rect x="613.36" y="283.59" width="5.18" height="5.93" fill="#fff"/>
<rect x="622.33" y="283.59" width="5.18" height="5.93" fill="#fff"/>
<rect x="613.36" y="292.72" width="5.18" height="5.93" fill="#fff"/>
<rect x="622.33" y="292.72" width="5.18" height="5.93" fill="#fff"/>
<rect x="613.36" y="301.88" width="5.18" height="5.93" fill="#fff"/>
<rect x="622.33" y="301.88" width="5.18" height="5.93" fill="#fff"/>
<rect x="613.36" y="311.01" width="5.18" height="5.93" fill="#fff"/>
<rect x="622.33" y="311.01" width="5.18" height="5.93" fill="#fff"/>
<rect x="613.36" y="320.17" width="5.18" height="5.93" fill="#fff"/>
<rect x="622.33" y="320.17" width="5.18" height="5.93" fill="#fff"/>
<rect x="613.36" y="329.41" width="5.18" height="5.93" fill="#fff"/>
<rect x="622.33" y="329.41" width="5.18" height="5.93" fill="#fff"/>
<rect x="613.36" y="338.66" width="5.18" height="5.93" fill="#fff"/>
<rect x="622.33" y="338.66" width="5.18" height="5.93" fill="#fff"/>
<rect x="613.36" y="347.91" width="5.18" height="5.93" fill="#fff"/>
<rect x="622.33" y="347.91" width="5.18" height="5.93" fill="#fff"/>
<rect x="613.36" y="357.15" width="5.18" height="5.93" fill="#fff"/>
<rect x="622.33" y="357.15" width="5.18" height="5.93" fill="#fff"/>
<polygon points="383.26 429.45 127.57 429.45 127.57 271.4 158.19 271.4 158.19 308.6 166.08 308.6 166.08 287.53 205.02 287.53 205.02 320.88 210.17 320.88 210.17 242.63 244.02 242.63 244.02 264.11 261.37 264.11 261.37 290.83 266.63 290.83 266.63 274.02 297.4 274.02 297.4 324.18 306.4 324.18 306.4 283.42 334.54 283.42 334.54 252.44 353.66 252.44 375.81 252.53 375.81 313.02 383.25 313.02 383.26 429.45" fill="#ebebeb"/>
<rect x="131.32" y="276.08" width="5.18" height="7.1" fill="#fff"/>
<rect x="140.3" y="276.08" width="5.18" height="7.1" fill="#fff"/>
<rect x="149.28" y="276.08" width="5.18" height="7.1" fill="#fff"/>
<rect x="131.32" y="286.78" width="5.18" height="7.1" fill="#fff"/>
<rect x="140.3" y="286.78" width="5.18" height="7.1" fill="#fff"/>
<rect x="149.28" y="286.78" width="5.18" height="7.1" fill="#fff"/>
<rect x="131.32" y="297.47" width="5.18" height="7.1" fill="#fff"/>
<rect x="140.3" y="297.47" width="5.18" height="7.1" fill="#fff"/>
<rect x="149.28" y="297.47" width="5.18" height="7.1" fill="#fff"/>
<rect x="131.32" y="308.18" width="5.18" height="7.1" fill="#fff"/>
<rect x="140.3" y="308.18" width="5.18" height="7.1" fill="#fff"/>
<rect x="149.28" y="308.18" width="5.18" height="7.1" fill="#fff"/>
<rect x="310.71" y="288.49" width="5.18" height="5.93" fill="#fff"/>
<rect x="319.7" y="288.49" width="5.18" height="5.93" fill="#fff"/>
<rect x="328.68" y="288.49" width="5.18" height="5.93" fill="#fff"/>
<rect x="310.71" y="297.41" width="5.18" height="5.93" fill="#fff"/>
<rect x="319.7" y="297.41" width="5.18" height="5.93" fill="#fff"/>
<rect x="328.68" y="297.41" width="5.18" height="5.93" fill="#fff"/>
<rect x="310.71" y="306.35" width="5.18" height="5.93" fill="#fff"/>
<rect x="319.7" y="306.35" width="5.18" height="5.93" fill="#fff"/>
<rect x="328.68" y="306.35" width="5.18" height="5.93" fill="#fff"/>
<rect x="310.71" y="315.27" width="5.18" height="5.93" fill="#fff"/>
<rect x="319.7" y="315.27" width="5.18" height="5.93" fill="#fff"/>
<rect x="328.68" y="315.27" width="5.18" height="5.93" fill="#fff"/>
<rect x="310.71" y="324.41" width="5.18" height="5.93" fill="#fff"/>
<rect x="319.7" y="324.41" width="5.18" height="5.93" fill="#fff"/>
<rect x="328.68" y="324.41" width="5.18" height="5.93" fill="#fff"/>
<rect x="310.71" y="333.56" width="5.18" height="5.93" fill="#fff"/>
<rect x="319.7" y="333.56" width="5.18" height="5.93" fill="#fff"/>
<rect x="328.68" y="333.56" width="5.18" height="5.93" fill="#fff"/>
<rect x="310.71" y="342.71" width="5.18" height="5.93" fill="#fff"/>
<rect x="319.7" y="342.71" width="5.18" height="5.93" fill="#fff"/>
<rect x="328.68" y="342.71" width="5.18" height="5.93" fill="#fff"/>
<rect x="310.71" y="351.85" width="5.18" height="5.93" fill="#fff"/>
<rect x="319.7" y="351.85" width="5.18" height="5.93" fill="#fff"/>
<rect x="328.68" y="351.85" width="5.18" height="5.93" fill="#fff"/>
<rect x="170.49" y="292.09" width="29.83" height="4.45" fill="#fff"/>
<rect x="170.49" y="300.72" width="29.83" height="4.45" fill="#fff"/>
<rect x="170.49" y="309.35" width="29.83" height="4.45" fill="#fff"/>
<rect x="170.49" y="317.98" width="29.83" height="4.45" fill="#fff"/>
<rect x="170.49" y="326.61" width="29.83" height="4.45" fill="#fff"/>
<rect x="170.49" y="335.24" width="29.83" height="4.45" fill="#fff"/>
<rect x="170.49" y="343.87" width="29.83" height="4.45" fill="#fff"/>
<rect x="170.49" y="352.5" width="29.83" height="4.45" fill="#fff"/>
<rect x="275.63" y="278.05" width="9.21" height="4.3" fill="#fff"/>
<rect x="275.63" y="286.39" width="9.21" height="4.3" fill="#fff"/>
<rect x="275.63" y="294.71" width="9.21" height="4.3" fill="#fff"/>
<rect x="275.63" y="303.05" width="9.21" height="4.3" fill="#fff"/>
<rect x="275.63" y="311.38" width="9.21" height="4.3" fill="#fff"/>
<rect x="275.63" y="319.72" width="9.21" height="4.3" fill="#fff"/>
<rect x="275.63" y="328.06" width="9.21" height="4.3" fill="#fff"/>
<rect x="275.63" y="336.38" width="9.21" height="4.3" fill="#fff"/>
<rect x="288.15" y="278.05" width="9.21" height="4.3" fill="#fff"/>
<rect x="288.15" y="286.39" width="9.21" height="4.3" fill="#fff"/>
<rect x="288.15" y="294.71" width="9.21" height="4.3" fill="#fff"/>
<rect x="288.15" y="303.05" width="9.21" height="4.3" fill="#fff"/>
<rect x="288.15" y="311.38" width="9.21" height="4.3" fill="#fff"/>
<rect x="288.15" y="319.72" width="9.21" height="4.3" fill="#fff"/>
<rect x="288.15" y="328.06" width="9.21" height="4.3" fill="#fff"/>
<rect x="288.15" y="336.38" width="9.21" height="4.3" fill="#fff"/>
<rect x="215.3" y="247.14" width="9.6" height="6.78" fill="#fff"/>
<rect x="229.61" y="247.14" width="9.6" height="6.78" fill="#fff"/>
<rect x="215.3" y="257.08" width="9.6" height="6.78" fill="#fff"/>
<rect x="229.61" y="257.08" width="9.6" height="6.78" fill="#fff"/>
<rect x="215.3" y="267.04" width="9.6" height="6.78" fill="#fff"/>
<rect x="229.61" y="267.04" width="9.6" height="6.78" fill="#fff"/>
<rect x="215.3" y="276.99" width="9.6" height="6.78" fill="#fff"/>
<rect x="229.61" y="276.99" width="9.6" height="6.78" fill="#fff"/>
<rect x="215.3" y="286.93" width="9.6" height="6.78" fill="#fff"/>
<rect x="229.61" y="286.93" width="9.6" height="6.78" fill="#fff"/>
<rect x="215.3" y="296.88" width="9.6" height="6.78" fill="#fff"/>
<rect x="229.61" y="296.88" width="9.6" height="6.78" fill="#fff"/>
<rect x="215.3" y="306.84" width="9.6" height="6.78" fill="#fff"/>
<rect x="229.61" y="306.84" width="9.6" height="6.78" fill="#fff"/>
<rect x="215.3" y="316.78" width="9.6" height="6.78" fill="#fff"/>
<rect x="229.61" y="316.78" width="9.6" height="6.78" fill="#fff"/>
<rect x="247.35" y="267.04" width="9.6" height="6.78" fill="#fff"/>
<rect x="247.35" y="276.99" width="9.6" height="6.78" fill="#fff"/>
<rect x="247.35" y="286.93" width="9.6" height="6.78" fill="#fff"/>
<rect x="247.35" y="296.88" width="9.6" height="6.78" fill="#fff"/>
<rect x="247.35" y="306.84" width="9.6" height="6.78" fill="#fff"/>
<rect x="247.35" y="316.78" width="9.6" height="6.78" fill="#fff"/>
<rect x="215.3" y="326.61" width="9.6" height="6.78" fill="#fff"/>
<rect x="229.61" y="326.61" width="9.6" height="6.78" fill="#fff"/>
<rect x="247.35" y="326.61" width="9.6" height="6.78" fill="#fff"/>
<rect x="215.3" y="336.44" width="9.6" height="6.78" fill="#fff"/>
<rect x="229.61" y="336.44" width="9.6" height="6.78" fill="#fff"/>
<rect x="247.35" y="336.44" width="9.6" height="6.78" fill="#fff"/>
<rect x="215.3" y="346.27" width="9.6" height="6.78" fill="#fff"/>
<rect x="229.61" y="346.27" width="9.6" height="6.78" fill="#fff"/>
<rect x="247.35" y="346.27" width="9.6" height="6.78" fill="#fff"/>
<rect x="215.3" y="356.1" width="9.6" height="6.78" fill="#fff"/>
<rect x="229.61" y="356.1" width="9.6" height="6.78" fill="#fff"/>
<rect x="247.35" y="356.1" width="9.6" height="6.78" fill="#fff"/>
<rect x="215.3" y="365.93" width="9.6" height="6.78" fill="#fff"/>
<rect x="229.61" y="365.93" width="9.6" height="6.78" fill="#fff"/>
<rect x="247.35" y="365.93" width="9.6" height="6.78" fill="#fff"/>
<rect x="338.45" y="256.8" width="5.18" height="5.93" fill="#fff"/>
<rect x="347.42" y="256.8" width="5.18" height="5.93" fill="#fff"/>
<rect x="338.45" y="265.73" width="5.18" height="5.93" fill="#fff"/>
<rect x="347.42" y="265.73" width="5.18" height="5.93" fill="#fff"/>
<rect x="338.45" y="274.65" width="5.18" height="5.93" fill="#fff"/>
<rect x="347.42" y="274.65" width="5.18" height="5.93" fill="#fff"/>
<rect x="338.45" y="283.59" width="5.18" height="5.93" fill="#fff"/>
<rect x="347.42" y="283.59" width="5.18" height="5.93" fill="#fff"/>
<rect x="338.45" y="292.72" width="5.18" height="5.93" fill="#fff"/>
<rect x="347.42" y="292.72" width="5.18" height="5.93" fill="#fff"/>
<rect x="338.45" y="301.88" width="5.18" height="5.93" fill="#fff"/>
<rect x="347.42" y="301.88" width="5.18" height="5.93" fill="#fff"/>
<rect x="338.45" y="311.01" width="5.18" height="5.93" fill="#fff"/>
<rect x="347.42" y="311.01" width="5.18" height="5.93" fill="#fff"/>
<rect x="338.45" y="320.17" width="5.18" height="5.93" fill="#fff"/>
<rect x="347.42" y="320.17" width="5.18" height="5.93" fill="#fff"/>
<rect x="338.45" y="329.41" width="5.18" height="5.93" fill="#fff"/>
<rect x="347.42" y="329.41" width="5.18" height="5.93" fill="#fff"/>
<rect x="338.45" y="338.66" width="5.18" height="5.93" fill="#fff"/>
<rect x="347.42" y="338.66" width="5.18" height="5.93" fill="#fff"/>
<rect x="338.45" y="347.91" width="5.18" height="5.93" fill="#fff"/>
<rect x="347.42" y="347.91" width="5.18" height="5.93" fill="#fff"/>
<rect x="338.45" y="357.15" width="5.18" height="5.93" fill="#fff"/>
<rect x="347.42" y="357.15" width="5.18" height="5.93" fill="#fff"/>
<rect x="357.65" y="256.8" width="5.18" height="5.93" fill="#fff"/>
<rect x="366.64" y="256.8" width="5.18" height="5.93" fill="#fff"/>
<rect x="357.65" y="265.73" width="5.18" height="5.93" fill="#fff"/>
<rect x="366.64" y="265.73" width="5.18" height="5.93" fill="#fff"/>
<rect x="357.65" y="274.65" width="5.18" height="5.93" fill="#fff"/>
<rect x="366.64" y="274.65" width="5.18" height="5.93" fill="#fff"/>
<rect x="357.65" y="283.59" width="5.18" height="5.93" fill="#fff"/>
<rect x="366.64" y="283.59" width="5.18" height="5.93" fill="#fff"/>
<rect x="357.65" y="292.72" width="5.18" height="5.93" fill="#fff"/>
<rect x="366.64" y="292.72" width="5.18" height="5.93" fill="#fff"/>
<rect x="357.65" y="301.88" width="5.18" height="5.93" fill="#fff"/>
<rect x="366.64" y="301.88" width="5.18" height="5.93" fill="#fff"/>
<rect x="357.65" y="311.01" width="5.18" height="5.93" fill="#fff"/>
<rect x="366.64" y="311.01" width="5.18" height="5.93" fill="#fff"/>
<rect x="357.65" y="320.17" width="5.18" height="5.93" fill="#fff"/>
<rect x="366.64" y="320.17" width="5.18" height="5.93" fill="#fff"/>
<rect x="357.65" y="329.41" width="5.18" height="5.93" fill="#fff"/>
<rect x="366.64" y="329.41" width="5.18" height="5.93" fill="#fff"/>
<rect x="357.65" y="338.66" width="5.18" height="5.93" fill="#fff"/>
<rect x="366.64" y="338.66" width="5.18" height="5.93" fill="#fff"/>
<rect x="357.65" y="347.91" width="5.18" height="5.93" fill="#fff"/>
<rect x="366.64" y="347.91" width="5.18" height="5.93" fill="#fff"/>
<rect x="357.65" y="357.15" width="5.18" height="5.93" fill="#fff"/>
<rect x="366.64" y="357.15" width="5.18" height="5.93" fill="#fff"/>
<ellipse cx="309.02" cy="625.86" rx="189.6" ry="21.94" fill="#ebebeb"/>
<path d="M746,636.92c0,12.12-84.88,21.94-189.54,21.94S367,649,367,636.92,451.84,615,556.49,615,746,624.8,746,636.92Z" fill="#ebebeb"/>
<path d="M140.32,368.83s17.32,38.43-10.95,38.53-10-39.75-10-39.75-6.55-2.86,1-24.33,11-21.46,14.11-21.46c4,0,7.71,9.24,5,23.54C139.51,345.29,149.47,363.07,140.32,368.83Z" fill="#999"/>
<polygon points="126.89 432.81 129.56 374.87 132.35 432.8 126.89 432.81" fill="gray"/>
<polygon points="128.48 399.16 138.73 387.15 130.7 400.75 128.48 399.16" fill="gray"/>
<path d="M498.82,373s-8.06-3.19-14.44,7.94c-6.55,11.42,1.68,18.94,8.2,14.45,0,0,5.13,10.79,15.41,8.17s11.88-10.79,11.88-10.79,9.08.63,9.34-6.16-6.41-12.79-6.41-12.79-.4-16.88-11.41-16.74S498.82,373,498.82,373Z" fill="#b3b3b3"/>
<polygon points="506.37 432.78 508.62 382.55 510.98 432.77 506.37 432.78" fill="gray"/>
<polygon points="507.96 401.42 500.88 387.34 509.11 399.22 507.96 401.42" fill="gray"/>
<path d="M178.24,373s-8.06-3.19-14.44,7.94c-6.55,11.37,1.68,18.94,8.2,14.45,0,0,5.13,10.79,15.41,8.17s11.88-10.79,11.88-10.79,9.07.63,9.32-6.16-6.39-12.79-6.39-12.79S201.8,356.9,190.81,357,178.24,373,178.24,373Z" fill="#b3b3b3"/>
<polygon points="185.79 432.78 188.04 382.55 190.4 432.77 185.79 432.78" fill="gray"/>
<polygon points="187.38 401.42 180.3 387.34 188.53 399.22 187.38 401.42" fill="gray"/>
<path d="M746.93,368.57S764.25,407,736,407.09s-10-39.75-10-39.75-6.55-2.88,1-24.33,11-21.52,14.05-21.53c4,0,7.71,9.24,5,23.54C746.13,345,756.08,362.81,746.93,368.57Z" fill="#999"/>
<polygon points="733.51 432.55 736.17 374.61 738.96 432.54 733.51 432.55" fill="gray"/>
<polygon points="735.1 398.9 745.34 386.89 737.31 400.48 735.1 398.9" fill="gray"/>
<path d="M576.87,368.57s17.3,38.45-11,38.52-10-39.75-10-39.75-6.54-2.88,1-24.33,11-21.47,14.12-21.49c4,0,7.7,9.25,5,23.55C576.05,345,586,362.81,576.87,368.57Z" fill="#999"/>
<polygon points="563.43 432.55 566.1 374.61 568.89 432.54 563.43 432.55" fill="gray"/>
<polygon points="565.02 398.9 575.27 386.89 567.24 400.48 565.02 398.9" fill="gray"/>
<path d="M466.61,376.74s-15.08,33.7,9.67,33.67S485,375.57,485,375.57s5.72-2.53-.94-21.32-9.65-18.78-12.4-18.76c-3.49,0-6.72,8.13-4.33,20.61C467.28,356.1,458.59,371.7,466.61,376.74Z" fill="#999"/>
<polygon points="478.49 432.75 476.06 382.01 473.72 432.75 478.49 432.75" fill="gray"/>
<polygon points="477.05 403.27 468.05 392.78 475.1 404.67 477.05 403.27" fill="gray"/>
<path d="M682.92,372.76s-8.06-3.19-14.44,7.94c-6.55,11.42,1.68,18.92,8.2,14.45,0,0,5.13,10.79,15.41,8.17S704,392.53,704,392.53s9.07.62,9.32-6.16-6.41-12.79-6.41-12.79-.4-16.95-11.39-16.74S682.92,372.76,682.92,372.76Z" fill="#b3b3b3"/>
<polygon points="690.47 432.57 692.72 382.33 695.08 432.57 690.47 432.57" fill="gray"/>
<polygon points="692.02 401.16 684.98 387.14 693.41 398.99 692.02 401.16" fill="gray"/>
<polygon points="112.81 438.5 192.82 438.11 272.84 437.98 432.88 437.73 592.93 437.98 672.95 438.11 752.96 438.5 672.95 438.87 592.93 439.01 432.88 439.25 272.84 439.01 192.82 438.87 112.81 438.5" fill="#263238"/>
<rect x="117.88" y="429.76" width="630.02" height="8.98" fill="#c7c7c7"/>
<path d="M162,429.76a14,14,0,0,1,0,9,12.41,12.41,0,0,1-.75-4.48A12.78,12.78,0,0,1,162,429.76Z" fill="#b3b3b3"/>
<path d="M211.29,429.76a12.54,12.54,0,0,1,.74,4.5,12.4,12.4,0,0,1-.74,4.48,12,12,0,0,1-.75-4.48A12.34,12.34,0,0,1,211.29,429.76Z" fill="#b3b3b3"/>
<path d="M260.53,429.76a13.82,13.82,0,0,1,0,9A14,14,0,0,1,260.53,429.76Z" fill="#b3b3b3"/>
<path d="M309.77,429.76a14,14,0,0,1,0,9,12.41,12.41,0,0,1-.75-4.48A12.78,12.78,0,0,1,309.77,429.76Z" fill="#b3b3b3"/>
<path d="M359,429.76a12.54,12.54,0,0,1,.74,4.5,12,12,0,0,1-.74,4.48,12,12,0,0,1-.75-4.48A12.34,12.34,0,0,1,359,429.76Z" fill="#b3b3b3"/>
<path d="M408.23,429.76a13.82,13.82,0,0,1,0,9A14,14,0,0,1,408.23,429.76Z" fill="#b3b3b3"/>
<path d="M457.54,429.76a14.08,14.08,0,0,1,0,9A13.69,13.69,0,0,1,457.54,429.76Z" fill="#b3b3b3"/>
<path d="M506.74,429.76a12.35,12.35,0,0,1,.76,4.5,12.21,12.21,0,0,1-.76,4.48,12.4,12.4,0,0,1-.74-4.48A12.54,12.54,0,0,1,506.74,429.76Z" fill="#b3b3b3"/>
<path d="M556,429.76a12.55,12.55,0,0,1,.75,4.5,12.2,12.2,0,0,1-.75,4.48,14,14,0,0,1,0-9Z" fill="#b3b3b3"/>
<path d="M605.24,429.76a14.08,14.08,0,0,1,0,9A13.69,13.69,0,0,1,605.24,429.76Z" fill="#b3b3b3"/>
<path d="M654.47,429.76a12.35,12.35,0,0,1,.76,4.5,12,12,0,0,1-.76,4.48,12.4,12.4,0,0,1-.74-4.48A13,13,0,0,1,654.47,429.76Z" fill="#b3b3b3"/>
<path d="M703.72,429.76a12.78,12.78,0,0,1,.76,4.5,12.42,12.42,0,0,1-.76,4.48,14,14,0,0,1,0-9Z" fill="#b3b3b3"/>
<path d="M482.4,117.83a32.19,32.19,0,0,0,51.39,25.84l15.78,4L543,133A32.21,32.21,0,1,0,482.4,117.8Z" fill="#fff"/>
<path d="M482.4,117.83a32.35,32.35,0,0,0,4.89,16.83,35.36,35.36,0,0,0,2.57,3.62,41.89,41.89,0,0,0,3.08,3.17,29.88,29.88,0,0,0,7.29,5,31.53,31.53,0,0,0,8.35,2.77,32.19,32.19,0,0,0,4.38.45,29.24,29.24,0,0,0,4.39,0,31.82,31.82,0,0,0,16.12-6.3l.2-.16h.26l15.81,3.9L549,148l-6.62-14.66-.16-.32.17-.34a31.53,31.53,0,0,0,1.08-27.59A33.4,33.4,0,0,0,535,93.65a31.84,31.84,0,0,0-52.58,24.19Zm0,0a32.56,32.56,0,1,1,61.24,15.53v-.65l6.5,14.72.57,1.28-1.35-.35-15.75-4.15.47-.09a32.54,32.54,0,0,1-16.71,6.16,28,28,0,0,1-4.49,0,30.3,30.3,0,0,1-4.44-.57,31.79,31.79,0,0,1-8.41-3,31.09,31.09,0,0,1-7.27-5.12,33.58,33.58,0,0,1-3.09-3.22,35.57,35.57,0,0,1-2.55-3.65A32.48,32.48,0,0,1,482.4,117.83Z" fill="#2f2e41" data-secondary="true"/>
<path d="M506,121a3.12,3.12,0,0,1-.31,1.41,2.93,2.93,0,0,1-.89,1,3.87,3.87,0,0,1-1.31.63,5.79,5.79,0,0,1-1.54.22h-6.17V111.53h6.8a2.39,2.39,0,0,1,1.2.29,2.83,2.83,0,0,1,.91.74,3.08,3.08,0,0,1,.58,1,3.36,3.36,0,0,1-.26,2.93,2.77,2.77,0,0,1-1.35,1.2A3.15,3.15,0,0,1,506,121Zm-7.71-7.32v3.2h3.3a1.41,1.41,0,0,0,1.06-.43,1.51,1.51,0,0,0,.45-1.17,1.66,1.66,0,0,0-.41-1.17,1.35,1.35,0,0,0-1-.43Zm5.29,6.85a1.73,1.73,0,0,0-.12-.64,1.61,1.61,0,0,0-.31-.56,1.41,1.41,0,0,0-.46-.35,1.43,1.43,0,0,0-.61-.14H498.3v3.39H502a1.5,1.5,0,0,0,1.16-.48,1.67,1.67,0,0,0,.46-1.17Z" fill="#2f2e41" data-secondary="true"/>
<path d="M508.86,111.53l3.08,6.16,3.19-6.16h2.67l-4.63,8.27v4.44h-2.46v-4.47l-4.62-8.24Z" fill="#2f2e41" data-secondary="true"/>
<path d="M528.07,122.07v2.17h-8.89V111.53h8.66v2.17h-6.16v3.08H527v2h-5.35v3.3Z" fill="#2f2e41" data-secondary="true"/>
<path d="M530.23,119.46V111.4h2.41v8.06Zm0,4.78v-2.7h2.41v2.7Z" fill="#2f2e41" data-secondary="true"/>
<path d="M432.89,336.32c7.22-.94,10.09,1.4,10.09,1.4,2.33,2.34-4.68,3.27-4.68,3.27-3.74-.46-13.36,2.32-13.36,2.32-8.22,1.85-8.62.43-8.62.43l-25.83-11.13-2.56-1.1-2.94-5,.16-1.41c4.37-.48,14.1-7.24,14.1-7.24a28.69,28.69,0,0,0,3.69,3.42,79,79,0,0,0,14.95,9.27,3.75,3.75,0,0,0,4.31-1c4.36-5,7.68-5.38,7.68-5.38,15.9-2.81,15.21.93,15.21.93,4,2.32-4.45,6.55-4.45,6.55C434.09,334,432.89,336.32,432.89,336.32Z" fill="#f9b499"/>
<path d="M402.94,321.27c-3.09.58-12.34,3-12.45,11.34l-2.56-1.1-2.94-5,.16-1.41c4.37-.48,14.1-7.24,14.1-7.24A28.69,28.69,0,0,0,402.94,321.27Z" fill="#f7a48b"/>
<polygon points="598.24 592.12 601.98 611.76 616.94 609.42 619.75 603.81 618.81 591.19 598.24 592.12" fill="#f9b499"/>
<path d="M607.59,609s11.22-10.29,14-1.87c0,0,6.08,9.82,6.08,21.51,0,0-33.67,12.16-51.44,12.62,0,0-1.41,0-.94-4.2a8.49,8.49,0,0,1,3.74-7.49s16.37-9.53,19.18-15.75C598.24,613.78,603.38,601.94,607.59,609Z" fill="#0071f2" data-primary="true"/>
<g opacity="0.2">
<path d="M585.61,631.4c7.07-5.33,14.6-10.61,19.55-18.08.29-.52.58-1,.89-1.56-3.22,8.77-12.48,15.35-20.44,19.64Z"/>
</g>
<polygon points="493.19 592.37 488.84 612.19 504.19 616.29 509.16 612.25 512.19 594.93 493.19 592.37" fill="#f9b499"/>
<path d="M495.38,611.93s15-4.85,14.25,4.15c0,0,1.88,11.67-2.85,22.53,0,0-37.33-2.82-54.62-9.84,0,0-1.35-.58.81-4.3a8.46,8.46,0,0,1,6.63-5.38s19.6-2,24.82-6.6C484.42,612.49,494.17,603.65,495.38,611.93Z" fill="#0071f2" data-primary="true"/>
<g opacity="0.2">
<path d="M467,623.57c8.93-2,18.27-3.68,26.13-8.58.48-.37,1-.73,1.49-1.1-6.74,6.83-18.36,9-27.62,9.68Z"/>
</g>
<ellipse cx="376.1" cy="206.9" rx="13.8" ry="22.1" fill="#f9b499"/>
<path d="M369.35,226.17l-5.41,9.6-12.62-11.69,12.86-8.65S364.94,222.18,369.35,226.17Z" fill="#f7a48b"/>
<path d="M369.35,201.4s-.26,34.84-21.31,39.52a54.36,54.36,0,0,1-16.36.93,36.44,36.44,0,0,0-4.21,17.31s-6.46-6.46-4.29-21a41.53,41.53,0,0,1,2.48-9.06,142.62,142.62,0,0,0,7.89-29.85s0-27,23-30.45a31.14,31.14,0,0,1,23.78,6.51,44.7,44.7,0,0,1,9.25,9.76,36.71,36.71,0,0,1,3.42,35c0,.06,0,.13-.08.19a8.79,8.79,0,0,0,1.63,8.65s29.23,32.5-11.92,45.6c0,0-.94-8.89-8.42-21.51,0,0-.85-11.22-8.84-19.87l4-7s8.18,8.15,16.12-3c0,0,7.47-9.79,2.64-27.11,0,0-1.25-5.13-7-9.69C381.13,186.32,377.1,196,369.35,201.4Z" fill="#2f2e41" data-secondary="true"/>
<path d="M423.84,501.17h0A27.06,27.06,0,0,1,421,500c-6.08-3.27-5.61,0-5.61,0-2.25,4.22-11.61,3.54-18.71,2.32-4.71-.81-8.42-1.85-8.42-1.85-9.77-1.77-10.68,1.51-10.75,1.84v0c-3.75,7.11-21.26,1.35-28.11-1.24-1.72-.65-2.76-1.1-2.76-1.1-8.42-1.4-11.69,2.81-11.69,2.81-9.35,4.68-19.17-3.74-19.17-3.74-3.76-.75-5.5-.3-6.31.29a5.13,5.13,0,0,1-3.68.85c-16.66-2.25-12.46-16.11-12.46-16.11,12.63-90.25,39.75-152,39.75-152-2.34-9.82-5.61-42.09-5.61-42.09-3.51-39,4.21-48.17,4.21-48.17,21.74,1.64,28.75-9.33,28.75-9.33l5,.69c7.52,7.25,8.84,19.87,8.84,19.87,6.55,9.82,8.42,21.51,8.42,21.51C389.2,292.83,385,326.5,385,326.5c14,22.91,23.85,52.37,23.85,52.37,24.32,66.41,27.12,116,27.12,116C436.64,504.4,428.36,502.75,423.84,501.17Z" fill="#0071f2" data-primary="true"/>
<path d="M357.4,247.47s1.4,36-5.61,55.18" fill="none" stroke="#000" stroke-miterlimit="10" opacity="0.2"/>
<path d="M366.75,238.11s.73,5.27-6.41,10.59" fill="none" stroke="#000" stroke-miterlimit="10" opacity="0.2"/>
<line x1="369.35" y1="244.47" x2="366.58" y2="240.16" fill="none" stroke="#000" stroke-miterlimit="10" opacity="0.2"/>
<g opacity="0.2">
<path d="M340.35,232.52a71.72,71.72,0,0,0,11.86-25.88c1-6.1,2.23-12.45,5.56-17.78a16.87,16.87,0,0,1,4.54-5,17.72,17.72,0,0,0-4.11,5.28c-3,5.41-4.05,11.71-5,17.74a60,60,0,0,1-12.82,25.68Z"/>
</g>
<g opacity="0.2">
<path d="M349.45,202.1a30.75,30.75,0,0,1-.22,15.42c-.06-4.5.17-10.87.22-15.42Z"/>
</g>
<path d="M344.77,336.32s-9.82-27.41,7-27.74h10.15" fill="none" stroke="#000" stroke-miterlimit="10" opacity="0.2"/>
<path d="M372.36,344.74s15.9,73.88,13.56,116.44" fill="none" stroke="#000" stroke-miterlimit="10" opacity="0.2"/>
<path d="M377,328.84s34.6,98.67,39.28,153.38" fill="none" stroke="#000" stroke-miterlimit="10" opacity="0.2"/>
<path d="M322.79,418.62a364.27,364.27,0,0,0-6.55,56.12" fill="none" stroke="#000" stroke-miterlimit="10" opacity="0.2"/>
<rect x="422.82" y="265.64" width="4.23" height="41.19" rx="1.37" transform="translate(16.25 -22.75) rotate(3.13)" fill="#2f2e41" data-secondary="true"/>
<path d="M423.84,501.17c0,.09-.5,2.23,0,8.18a12.22,12.22,0,0,1-4.21,9.82c-10.75,7.48-30.39,33.67-30.39,33.67a332.59,332.59,0,0,0-23.85,36.48l.93,27.12a44.32,44.32,0,0,1,15.43,10.75l9.36,2.34c4.42,1,6.53,1.94,7.53,2.53a2.18,2.18,0,0,1,1,1.66c.7,6.89-11.22,5.17-11.22,5.17H360.67l-5.61-3.75-1.4-6.54-7.49-8-8.41-23.85,6.08-8.42-2.34-22c-2.67-26.63,3-42.43,5.24-47.39a13.78,13.78,0,0,0,1.1-4l1.56-13.89c6.85,2.59,24.36,8.35,28.11,1.24-1.41,7.49-5.15,27-5.15,27,11.23-17.38,24.32-23.61,24.32-23.61v-3.45c7.1,1.22,16.46,1.9,18.71-2.32,0,0-.47-3.27,5.61,0a27.06,27.06,0,0,0,2.84,1.17Z" fill="#f9b499"/>
<path d="M370,537.41a404.44,404.44,0,0,1-3.27,40.68c.41-13.58,1.51-27.21,3.27-40.68Z" fill="#f7a48b"/>
<path d="M343.68,613.58l1,16.24a3,3,0,0,0,.86,1.91l3.49,3.48a1.05,1.05,0,0,0,1.8-.74v-3.64a.77.77,0,0,1,.34-.63l1.3-.84a.76.76,0,0,1,1.17.63v7s0,2.8,9.35,3.27l31.8.93s6.84-.52,4.82-6.34c0,0-1.55,4-9,3.07l-26.6-.82a6.93,6.93,0,0,1-5.75-3.38l-6.7-11.15a2.92,2.92,0,0,1,.76-3.85c2.2-1.6,6.49-3.46,14-2.31l-.12-3.68s-7.2-6.07-17.27,1.67a1.4,1.4,0,0,1-2-.39C346.15,612.93,345,611.85,343.68,613.58Z" fill="#0071f2" data-primary="true"/>
<path d="M376.6,640.69s.44-8.82,5.11-13.5l10.12,2.49s-5.5,5.52-4.07,11.34Z" fill="#0071f2" data-primary="true"/>
<path d="M343.37,587.91a41.36,41.36,0,0,1,.93,6.55l-4.21,2.81A42.06,42.06,0,0,1,344.3,613l-.62.62.31,5-10-6.35s-4-2.07-1.31-9C332.7,603.25,335.89,593.06,343.37,587.91Z" fill="#0071f2" data-primary="true"/>
<path d="M343.37,587.91a41.36,41.36,0,0,1,.93,6.55l-4.21,2.81A42.06,42.06,0,0,1,344.3,613l-.62.62.31,5-10-6.35s-4-2.07-1.31-9C332.7,603.25,335.89,593.06,343.37,587.91Z" opacity="0.2"/>
<path d="M614.6,338.19a49.15,49.15,0,0,1-20.67,6.69c-4.3-5.47-7.73-16.37-7.73-16.37l-6.14,15.75c-14.89,1.4-51.93,0-51.93,0h0c-9.29-8-6-51.11-6-51.11-30.25,22.28-43.16,10-43.16,10,13.56-15,14-23.85,14-23.85,3.28-4.21,29.47-31.34,29.47-31.34,14-16.3,25.16-16.33,25.25-16.33l29-.5c17.31,1.87,22.92,33.67,22.92,33.67C603.38,276.93,614.6,338.19,614.6,338.19Z" fill="#0071f2" data-primary="true"/>
<path d="M463.87,270.33s8.68,28.88,17,30.6c0,0,10.7-11.38,12.1-21.66,0,0-2.33,4.2-3.74,4.2l-11.69-28.05L467.76,232a26.68,26.68,0,0,0,6.08-13.56,20.06,20.06,0,0,1,2.81-9.35s1.4-3.28-.47-3.28c0,0-3.74.47-7,7,0,0-6.54-19.17-14.26-14,0,0-10,2.81-5.38,22.45,0,0,2.34,10.29,6.08,14.49C455.6,235.77,460,259.51,463.87,270.33Z" fill="#f9b499"/>
<path d="M451.39,207.25a66.21,66.21,0,0,1,1.41,11.22,66.21,66.21,0,0,1-1.41-11.22Z" fill="#f7a48b"/>
<path d="M454.2,203.51A87.78,87.78,0,0,1,457,216.13a86.46,86.46,0,0,1-2.81-12.62Z" fill="#f7a48b"/>
<path d="M457.47,200.7a124.87,124.87,0,0,1,5.62,14.5,126.28,126.28,0,0,1-5.62-14.5Z" fill="#f7a48b"/>
<path d="M460.28,223.58a8,8,0,0,1,7-6c.46,0,.93-.05,1.39-.05-.66.14-1.37.26-2,.46a9.77,9.77,0,0,0-6.41,5.58Z" fill="#f7a48b"/>
<path d="M593.93,344.88S608.52,383.56,614.6,392l2.53,24a.82.82,0,0,0,1.2.65c1.94-1,5.75-3.92,4.69-10.6,0,0,22,17.3,25.25,6.08,0,0,3.74-6.55-4.21-12.16,0,0-9.35-8.42-18.23-13.56,0,0,0-4.68-2.81-7.49,0,0-8.3-23.82-10.46-39.5C612.56,339.37,607.4,343.16,593.93,344.88Z" fill="#f9b499"/>
<path d="M622.89,388.69c5.28-3.19,3.35-6.54,3.35-6.54a.3.3,0,0,0,0-.1c-.74-2.07-3.53-3.14-5.87-2.25a25.77,25.77,0,0,1-9.71,1.41c-6.13-.47-4.46,3.28-4.46,3.28.72,2.41,3.52,2.88,5.43,2.9.47,0,.67.51.3.75-1.57,1-3.51,2.88-1.27,4.76C611.18,393.37,612.85,394.77,622.89,388.69Z" fill="#0071f2" data-primary="true"/>
<path d="M630,403.66A173.55,173.55,0,0,0,645.7,414c.38.19.74.39,1.11.59C640.6,412.06,635.1,408,630,403.66Z" fill="#f7a48b"/>
<path d="M635.65,399.92c3.71,4,7.38,8.18,11.73,11.52.3.2.6.42.89.64-5.12-2.86-9.16-7.5-12.62-12.16Z" fill="#f7a48b"/>
<path d="M639.48,399.92a93.41,93.41,0,0,1,9.67,9.2,92.36,92.36,0,0,1-9.67-9.2Z" fill="#f7a48b"/>
<path d="M629.57,590.72c-3.74,4.67-35.54,4.67-35.54,4.67l-20.11-72.48c-15.9-49.1-21.51-65-21.51-65l-27.6,138.42c-28,5.14-43.49-8-43.49-8l17.31-98.67,10-75.12c.15-23.67,11.55-52.78,11.55-52.78-6.08-2.1,0-12.4,0-12.4,2.27-8.63,7.68-5.35,8-5.16h0s37,1.4,51.93,0c4.75.46,2.74,5.62,2.74,5.62a13.42,13.42,0,0,1,1.87,6.55c12.16,22.44,22,99.14,22,99.14L624,542.08C632.84,585.11,629.57,590.72,629.57,590.72Z" fill="#2f2e41" data-secondary="true"/>
<g opacity="0.2">
<path d="M524.35,357.83c-.4,6.67-2.58,15.32-9.07,18.5,5.63-4.45,7.19-11.92,9.07-18.5Z"/>
</g>
<g opacity="0.2">
<path d="M551,360.17c2.77,10.39,11,18.81,22,19.66a42.12,42.12,0,0,0,10.57-.34,44.71,44.71,0,0,1-5.26,1c-13.69,1.78-25.05-6.75-27.35-20.31Z"/>
</g>
<path d="M568.31,351.75v6.08l16.36-1.4a13.42,13.42,0,0,0-1.87-6.55Z" fill="#0071f2" data-primary="true"/>
<path d="M558,352.22l.93,6.55-34.6-1.84,1.4-6.11S547.73,352.69,558,352.22Z" fill="#0071f2" data-primary="true"/>
<path d="M536.27,348a6.78,6.78,0,1,0,6.78,6.78A6.79,6.79,0,0,0,536.27,348Zm.24,10.29a3.28,3.28,0,1,1,3.27-3.28A3.28,3.28,0,0,1,536.51,358.3Z" fill="#fff"/>
<path d="M541.65,355.26h-4.88a.47.47,0,0,1,0-.94h4.88a.47.47,0,1,1,0,.94Z" fill="#fff"/>
<g opacity="0.2">
<path d="M534.27,412.08c2.85,5.58,6.13,11.4,11.37,15.05l.15.1.05.18c1.76,7.28,3.58,15.49,5.08,22.83.53,2.55,1,5.11,1.49,7.67-.71-2.51-1.38-5-2-7.54-1.87-7.26-3.82-15.44-5.43-22.76l.19.28c-5.34-3.78-8.51-9.87-10.87-15.81Z"/>
</g>
<g opacity="0.2">
<path d="M503.77,473.34c-.32,14-.54,28.53,0,42.45a167.07,167.07,0,0,1,0-42.45Z"/>
</g>
<g opacity="0.2">
<path d="M508,502.8a30.1,30.1,0,0,1-5-9.86,29.91,29.91,0,0,1,5,9.86Z"/>
</g>
<g opacity="0.2">
<path d="M567.31,482.22c4.19,9.39,8.2,20,12.22,29.47-5.4-9.19-9.16-19.28-12.22-29.47Z"/>
</g>
<g opacity="0.2">
<path d="M577.56,497a92.37,92.37,0,0,1,12.83,14.73A93.18,93.18,0,0,1,577.56,497Z"/>
</g>
<path d="M591.52,586.36s28.34-3.47,38.11-10.08" fill="none" stroke="#000" stroke-miterlimit="10" opacity="0.2"/>
<path d="M483.44,576.28s10.74,9.93,43.36,10.08" fill="none" stroke="#000" stroke-miterlimit="10" opacity="0.2"/>
<path d="M586.2,328.51s-17-38.74-11.83-79.07" fill="none" stroke="#000" stroke-miterlimit="10" opacity="0.2"/>
<line x1="522.15" y1="293.14" x2="530.89" y2="261.31" fill="none" stroke="#000" stroke-miterlimit="10" opacity="0.2"/>
<path d="M547.73,219.41a20.89,20.89,0,0,1,3.74,10.28l-3.74,1.91s5.14,6.91,12.86,7.41c0,0,10.52-.9,16.13-7.91,0,0-3.27-3.74-5.61-13.56,0,0,.79-11.48-7.32-17.9l-10.92-5.95Z" fill="#f9b499"/>
<path d="M547.73,219.41s2.81,2.33,3.74,10.28c0,0,9-8.18,8-22.79Z" fill="#f7a48b"/>
<path d="M546.79,180.59S550.2,175,556.92,175" fill="none" stroke="red" stroke-miterlimit="10"/>
<path d="M579.76,175s6.78,0,9.12,17.77l1.41,13.09" fill="none" stroke="red" stroke-miterlimit="10"/>
<path d="M570.14,190.41s5.65.94,8.45-7" fill="none" stroke="red" stroke-miterlimit="10"/>
<path d="M581.4,182s-.73,10.29-7.85,16.84" fill="none" stroke="red" stroke-miterlimit="10"/>
<path d="M585,188.54a212.73,212.73,0,0,1,2.36,29.76" fill="none" stroke="red" stroke-miterlimit="10"/>
<ellipse cx="545.63" cy="198.83" rx="14.73" ry="23.85" fill="#f9b499"/>
<path d="M548.5,184.42a.57.57,0,0,0-.68.55c0,1-.85,2.85-6.64,2.17l-9.12-1.35s-6.31,1,0-9.11c0,0,13.33-20.41,43.73-5,0,0,8.24-4.13,13.84,2.35a12.3,12.3,0,0,1,2.81,6.55l3,24.77s3.51,14.73,7,28.52c0,0,7.49,23.85-2.8,30.87,0,0-4.91-21.75-13.8-29.23,0,0-5.51-18.94-2.87-34.37,0,0-4.38,13.56-11.86,16.37l-3.12-2a18.76,18.76,0,0,1-7.86-10.1L556,192.68S555.27,185.72,548.5,184.42Z" fill="#2f2e41" data-secondary="true"/>
<ellipse cx="560.59" cy="194.85" rx="4.91" ry="6.31" fill="#f9b499"/>
<path d="M360.34,313.36s-3.88,10.8.8,20.62c0,0,43-13.09,51-22.91,0,0,8.22-1.24,9.25-5.63a5.39,5.39,0,0,1,1.11-2.15l3.2-3.92s11.45-5.31,11.41-11a2.22,2.22,0,0,0-1-1.85c-1.33-.83-4.44-2.14-10.83-2.14,0,0-8.89-1.87-11.23,2.81L403,301.58a5.42,5.42,0,0,1-2.07,1.64C396,305.43,376.94,313.32,360.34,313.36Z" fill="#f9b499"/>
<path d="M416.32,292c.95-1.23,1.91-2.42,2.92-3.61a4.63,4.63,0,0,1,3.23-1.44c1.92,0,3.88,0,5.79.05,1.36,0,3.29.08,4.63.18-1.33.08-3.28.14-4.63.17-1.54.05-3.08.05-4.63.06a8.3,8.3,0,0,0-2.23.15c-1.52.37-2.44,1.69-3.47,2.77-.54.56-1.06,1.12-1.61,1.67Z" fill="#f7a48b"/>
<path d="M423.74,292a9.9,9.9,0,0,1,7.33-3c.38,0,.77,0,1.15.07-.76.1-1.52.2-2.26.35a16,16,0,0,0-6.22,2.6Z" fill="#f7a48b"/>
<path d="M427.08,294.23a12.3,12.3,0,0,1,4.31-2.19,12.14,12.14,0,0,1-4.31,2.19Z" fill="#f7a48b"/>
<path d="M432.45,326.26a26.65,26.65,0,0,1,12.64-1.17c-4.18-.17-8.5.57-12.64,1.17Z" fill="#f7a48b"/>
<path d="M434.32,329.54a24.94,24.94,0,0,1,5.49-1.56,12.29,12.29,0,0,1,5.69.12c-3.72-.36-7.54.75-11.18,1.44Z" fill="#f7a48b"/>
</svg>