 <!DOCTYPE svg PUBLIC "-//W3C//DTD SVG 1.1//EN" "http://www.w3.org/Graphics/SVG/1.1/DTD/svg11.dtd">
<svg xmlns="http://www.w3.org/2000/svg" width="865.76" height="682.89" viewBox="0 0 865.76 682.89">
<defs>
<style xmlns="http://www.w3.org/1999/xhtml">*, ::after, ::before { box-sizing: border-box; }
img, svg { vertical-align: middle; }
</style>
<style xmlns="http://www.w3.org/1999/xhtml">*, body, html { -webkit-font-smoothing: antialiased; }
img, svg { max-width: 100%; }
</style>
</defs>
<path d="M823.09,287.67,681.93,660.26H163.76a41.26,41.26,0,0,1-40.33-32.55l-83-383.51a45.37,45.37,0,0,1,28.4-52.08L337,91.45l9.46-3.55,10.81-4.07,127-47.7,4.05-1.51,29-10.89A42.54,42.54,0,0,1,559,30.46l74.62,60.25L642,97.47l.38.31L664,115.24,807.85,231.42A49.67,49.67,0,0,1,823.09,287.67Z" fill="#0071f2" data-primary="true"/>
<path d="M823.09,287.67,681.93,660.26H163.76a41.26,41.26,0,0,1-40.33-32.55l-83-383.51a45.37,45.37,0,0,1,28.4-52.08L337,91.45l9.46-3.55,10.81-4.07,127-47.7,4.05-1.51,29-10.89A42.54,42.54,0,0,1,559,30.46l74.62,60.25L642,97.47l.38.31L664,115.24,807.85,231.42A49.67,49.67,0,0,1,823.09,287.67Z" fill="#fff" opacity="0.7"/>
<rect x="267.42" y="108.51" width="299.46" height="460.95" fill="#0071f2" data-primary="true"/>
<rect x="267.42" y="108.51" width="299.46" height="460.95" fill="#fff" opacity="0.4"/>
<rect x="278.47" y="121.82" width="279.34" height="391.53" fill="#0071f2" data-primary="true"/>
<rect x="278.47" y="121.82" width="279.34" height="391.53" opacity="0.4"/>
<polygon points="515.03 190.87 494.35 178.58 475.38 189.74 474.8 188.76 494.36 177.26 515.61 189.9 515.03 190.87" fill="#2f2e41" data-secondary="true"/>
<rect x="493.69" y="165.03" width="1.13" height="12.9" transform="translate(-2.63 7.77) rotate(-0.9)" fill="#2f2e41" data-secondary="true"/>
<rect x="278.47" y="156.39" width="279.34" height="8.5" fill="#fff"/>
<path d="M467.67,192l-8.45,29.55L470,238s1.13-7.36,1.13-.56S477.36,255,477.36,255c-6.8,4.53-13.88,73.09-13.88,73.09l-6.52,81a61,61,0,0,0,29.94-1.42c13.52-2,25.64,5.55,25.64,5.55,27.81,5.25,37.34-7.91,37.34-7.91l-21-115.78c-1.13-20.39-16.38-38-16.38-38,6.28-1.13,7.31-18.71,7.31-18.71l6.8,10.2a44.33,44.33,0,0,0,23.23-11.9l-17-30.59c-3.4-6.24-17.29-11.05-17.29-11.05s-6.32,12.56-15.58,16.6A13.2,13.2,0,0,1,487.6,205c-3.75-2.43-8.26-8.13-12.79-16.06Z" fill="#0071f2" data-primary="true"/>
<polygon points="401.18 188.63 383.3 179.69 366.2 188.62 365.67 187.62 383.29 178.42 401.68 187.61 401.18 188.63" fill="#2f2e41" data-secondary="true"/>
<rect x="376.47" y="171.47" width="14.03" height="1.13" transform="matrix(0.03, -1, 1, 0.03, 201.03, 550.68)" fill="#2f2e41" data-secondary="true"/>
<rect x="278.47" y="524.69" width="135.99" height="35.7" fill="#fff" opacity="0.4"/>
<circle cx="343.07" cy="532.06" r="4.53" fill="#fff" opacity="0.4"/>
<rect x="421.83" y="524.69" width="135.99" height="35.7" fill="#fff" opacity="0.4"/>
<circle cx="486.42" cy="532.06" r="4.53" fill="#fff" opacity="0.4"/>
<path d="M364,513.94h-.71a.57.57,0,0,1,.05-1.14c.11,0,10.66.42,15.39-5.54a16.81,16.81,0,0,1,2.59-2.69c2.35-1.88,5.79-4.05,8.86-3.66A.56.56,0,0,1,390,502c-2.82-.35-6.23,2-8,3.43a15.4,15.4,0,0,0-2.41,2.51C375.2,513.51,366.53,513.94,364,513.94Z" fill="#0071f2" data-primary="true"/>
<rect x="388.96" y="500.33" width="1.7" height="13.03" fill="#0071f2" data-primary="true"/>
<path d="M368,508.26l2.68,4.28s5.48-1,8.48-4.93l-3.42-4.38a1.4,1.4,0,0,0-2.06-.17Z" fill="#0071f2" data-primary="true"/>
<path d="M392.88,513.94h-.7a.57.57,0,0,1,.05-1.14c.11,0,10.65.42,15.39-5.54a16.39,16.39,0,0,1,2.59-2.69c2.35-1.88,5.79-4.05,8.86-3.66a.56.56,0,0,1,.49.63.57.57,0,0,1-.64.49c-2.81-.35-6.22,2-8,3.43a15,15,0,0,0-2.41,2.51C404.09,513.51,395.43,513.94,392.88,513.94Z" fill="#0071f2" data-primary="true"/>
<rect x="417.86" y="500.33" width="1.7" height="13.03" fill="#0071f2" data-primary="true"/>
<path d="M396.9,508.26l2.67,4.28s5.49-1,8.49-4.93l-3.43-4.38a1.4,1.4,0,0,0-2.06-.17Z" fill="#0071f2" data-primary="true"/>
<path d="M546.48,513.36H476.6c1.93-22.78,6.09-35.64,8.85-42a16.14,16.14,0,0,1,5-6.37,15.54,15.54,0,0,1,6-2.83,51.82,51.82,0,0,1,13.27-1,79.55,79.55,0,0,1,17.12,1,16.27,16.27,0,0,1,4.91,1.75,14.9,14.9,0,0,1,4.76,4.08C547.38,482.47,546.48,513.36,546.48,513.36Z" fill="#2f2e41" data-secondary="true"/>
<path d="M531.68,464c-4.86,24.88-20.13,23.3-20.13,23.3-10.19-.49-18.25-15.9-21.14-22.23a15.54,15.54,0,0,1,6-2.83,51.82,51.82,0,0,1,13.27-1,79.55,79.55,0,0,1,17.12,1A16.27,16.27,0,0,1,531.68,464Z" fill="#0071f2" data-primary="true"/>
<circle cx="511.64" cy="487.01" r="5.95" fill="#0071f2" data-primary="true"/>
<circle cx="511.64" cy="487.01" r="5.95" opacity="0.2"/>
<path d="M523.56,461.72c.87-4,.83-12.39.83-12.39-.57-15.3-10.77-13.6-10.77-13.6-19.83.57-16.08,26.22-16.08,26.22s2-.39,4-.56c0,0-3.19-17.16,8.14-21.69,0,0,7.23-3.16,10,5a14.64,14.64,0,0,1,.7,5.3l-.51,11.33Z" fill="#2f2e41" data-secondary="true"/>
<path d="M301,524.69l-6.75,11.9s-4.41,8.5,1.82,12.47a85.84,85.84,0,0,1,11.33,13s5.1,7.36,9.07,2.27c0,0,4-4.54-1.7-15.87,0,0-4.89-5.67-2.45-11.9l5.5-11.9Z" fill="#fff"/>
<rect x="297.17" y="404" width="136.56" height="7.37" fill="#fff"/>
<rect x="297.17" y="341.67" width="136.56" height="7.37" fill="#fff"/>
<rect x="297.17" y="452.16" width="136.56" height="7.37" fill="#fff"/>
<path d="M285.85,452.16l11.32,21.24,17-15.57s3.4-2.27,5.1-7.93c0,0,3.4-4.53,7.37-2.84,0,0,6.23-1.69,9.06,7.94a46.27,46.27,0,0,0,6.23,11.9l6.8,10.76,18.14-12.46-10-18.52s-4.77-5.28-2.5-16.05L359.23,404h-45s-3.5,9.07-6.33,24.93c0,0-1.14,6.8-6.24,10.77Z" fill="#ccc"/>
<path d="M303.79,404s13.6-24.66,28.56-22.13a9.68,9.68,0,0,1,6.83,4.88c1.9,3.45,6.22,9.27,14.09,10.45,0,0,15.12,1.7,16.91,6.8Z" fill="#0071f2" data-primary="true"/>
<path d="M338.19,385.29a105.18,105.18,0,0,1,34.91,3.41s7.23,1.14,12.68,0c0,0,13.51-2.56,23.2-.39a12.51,12.51,0,0,1,9.55,10A98.78,98.78,0,0,1,420,414.93l1.31,50.83s-6.16,4.54-15,0l-.88-52.69s.24-10.77-12.63-9.07c0,0,2.43,4,1.86,27.2l-1.13,60.63s-6.4,3.4-16.8,0L374.8,421s.39-13-4.62-17c0,0-1.05-5.1-16.91-6.8C353.27,397.2,343.51,396.6,338.19,385.29Z" fill="#2f2e41" data-secondary="true"/>
<path d="M302.53,381.69h5.3l2.8-23a2.9,2.9,0,0,1,1-1.87l5.55-4.76a2.93,2.93,0,0,1,3.28-.37l8,4.23a2.93,2.93,0,0,1,1.36,1.52l8.32,21,3.74.09s-4.53-24.36,0-36.83c0,0-36.62-7.36-38.14,0C303.79,341.67,302.22,371.84,302.53,381.69Z" fill="#2f2e41" data-secondary="true"/>
<rect x="321.51" y="171.47" width="14.03" height="1.13" transform="matrix(0.03, -1, 1, 0.03, 147.57, 495.74)" fill="#2f2e41" data-secondary="true"/>
<polygon points="424.86 185.25 424.46 184.19 439.42 178.44 450.98 184.21 450.47 185.23 439.36 179.67 424.86 185.25" fill="#2f2e41" data-secondary="true"/>
<rect x="432.57" y="171.47" width="14.03" height="1.13" transform="translate(255.59 606.76) rotate(-88.43)" fill="#2f2e41" data-secondary="true"/>
<path d="M451,183.87s22.95,4.25,37.11,31.45a350.8,350.8,0,0,1,13,85.56c-4.53,1.7-15.86.56-15.86.56a357.64,357.64,0,0,0-8.5-40.23q-2.16-7.9-4.53-15.3,1.41,25.5,2.83,51c-30,9.63-64.59,2.83-64.59,2.83L406,226.65l-4.53,80.46c-10.77,1.13-14.73,0-14.73,0l3.35-80A39.66,39.66,0,0,1,404.72,198a50.56,50.56,0,0,1,7.66-5.43l12.56-8.67c6.39,5.4,11.53,7.36,15.75,6.74,5.64-.84,9.28-5.51,10.32-6.74" fill="#0071f2" data-primary="true"/>
<path d="M451,183.87s22.95,4.25,37.11,31.45a350.8,350.8,0,0,1,13,85.56c-4.53,1.7-15.86.56-15.86.56a357.64,357.64,0,0,0-8.5-40.23q-2.16-7.9-4.53-15.3,1.41,25.5,2.83,51c-30,9.63-64.59,2.83-64.59,2.83L406,226.65l-4.53,80.46c-10.77,1.13-14.73,0-14.73,0l3.35-80A39.66,39.66,0,0,1,404.72,198a50.56,50.56,0,0,1,7.66-5.43l12.56-8.67c6.39,5.4,11.53,7.36,15.75,6.74,5.64-.84,9.28-5.51,10.32-6.74" opacity="0.2"/>
<rect x="566.88" y="147.89" width="6.8" height="34" fill="#2f2e41" data-secondary="true"/>
<rect x="259.77" y="147.89" width="6.8" height="34" fill="#2f2e41" data-secondary="true"/>
<rect x="259.77" y="433.47" width="6.8" height="34" fill="#2f2e41" data-secondary="true"/>
<rect x="566.88" y="433.47" width="6.8" height="34" fill="#2f2e41" data-secondary="true"/>
<rect x="172.07" y="57.8" width="7.59" height="562.46" fill="#0071f2" data-primary="true"/>
<rect x="172.07" y="57.8" width="7.59" height="562.46" fill="#fff" opacity="0.5"/>
<polygon points="179.66 57.8 259.25 108.62 259.25 569.67 179.66 620.26 179.66 57.8" fill="#0071f2" data-primary="true"/>
<polygon points="179.66 57.8 259.25 108.62 259.25 569.67 179.66 620.26 179.66 57.8" fill="#fff" opacity="0.4"/>
<polygon points="191.58 90.14 197.96 584.3 247.2 553.99 246.31 123.74 191.58 90.14" fill="#fff" opacity="0.4"/>
<rect x="653.4" y="57.8" width="7.59" height="562.46" transform="translate(1314.39 678.06) rotate(-180)" fill="#0071f2" data-primary="true"/>
<rect x="653.4" y="57.8" width="7.59" height="562.46" transform="translate(1314.39 678.06) rotate(-180)" fill="#fff" opacity="0.5"/>
<polygon points="653.4 57.8 573.8 108.62 573.8 569.67 653.4 620.26 653.4 57.8" fill="#0071f2" data-primary="true"/>
<polygon points="653.4 57.8 573.8 108.62 573.8 569.67 653.4 620.26 653.4 57.8" fill="#fff" opacity="0.4"/>
<polygon points="641.48 90.14 635.1 584.3 585.86 553.99 586.75 123.74 641.48 90.14" fill="#fff" opacity="0.4"/>
<polygon points="346.21 188.63 328.34 179.69 311.24 188.62 310.71 187.62 328.33 178.42 346.72 187.61 346.21 188.63" fill="#2f2e41" data-secondary="true"/>
<path d="M361.77,227.22l-1.7,53.26s25.13,5.1,52.23,0L408.23,225l5.67,13.6s11.89.57,17.56-6.23l-9.63-29.47s0-5.66-9.07-9.63l-11.61-5.95s-19.07,13.6-35.13,0l-9.73,5.27A15.12,15.12,0,0,0,348,202.3l-8.34,30.58s6.23,6.24,17,5.1Z" fill="#0071f2" data-primary="true"/>
<path d="M306.8,227.22l-1.7,53.26s25.14,5.1,52.24,0L353.27,225l5.66,13.6s11.9.57,17.57-6.23l-9.63-29.47s0-5.66-9.07-9.63l-11.62-5.95s-19.06,13.6-35.13,0l-9.73,5.27a15.11,15.11,0,0,0-8.27,9.76l-8.34,30.58s6.23,6.24,17,5.1Z" fill="#fff"/>
<rect x="341.93" y="302.58" width="73.66" height="13.6" rx="6.34" fill="#0071f2" data-primary="true"/>
<rect x="341.93" y="328.07" width="73.66" height="13.6" rx="6.34" fill="#0071f2" data-primary="true"/>
<rect x="341.93" y="316.18" width="73.66" height="13.6" rx="6.34" fill="#2f2e41" data-secondary="true"/>
<rect x="227.01" y="179.89" width="21.13" height="22.45" fill="#f9b499"/>
<path d="M309.61,261.22c-7.85,6.08-13.94,1.19-13.94,1.19-5.94-3.3-5.94,1.32-5.94,1.32L287.8,302a77.81,77.81,0,0,1-13.66,2.67c-22.25,2.6-53.48.18-69.83-1.45h0c-6.76-.68-11-1.22-11-1.22l2-15.84c-16.81,7-32.61-5.94-36.21-9.19a1.59,1.59,0,0,1-.44-1.69L170.89,238c9.91-30.37,26.81-33.35,26.81-33.35,17.58-9.59,53.41-7.2,53.41-7.2,28.72-2.27,51.16,22.07,51.16,22.07L322.08,236C328.68,245.25,309.61,261.22,309.61,261.22Z" fill="#0071f2" data-primary="true"/>
<g opacity="0.2">
<path d="M195.32,286.18c-3.64-8.69-4.76-18.31-5.24-27.65,0-1.35-.06-2.7,0-4,1.45,10.61,2.51,21.32,5.28,31.69Z"/>
<path d="M295.67,238.64a136.18,136.18,0,0,1-5.2,23.19,137.58,137.58,0,0,1,5.2-23.19Z"/>
<path d="M306.89,234c-1.9,7.28-6.63,13.62-12.24,18.51-.83.68-1.67,1.33-2.53,2,5.91-6.05,11.28-12.72,14.77-20.47Z"/>
</g>
<path d="M291.71,612.31c-10.56,5.29-16.51,2-16.51,2l-13.86-65.35c-5.94-32.35-2-50.18-2-50.18l-22.45-89.13-16.5,73.95c-5.28,16.5-4.62,42.91-4.62,42.91,1.32,29-3.3,43.57-3.3,43.57l-8.18,56.26c-7.52,2.12-14.27-2.78-14.27-2.78l-5.94-52.82c-5.94-25.75,4.62-64.7,4.62-64.7A69.12,69.12,0,0,0,190,488.2l-4-95.07c-4-47.53,13.2-75.26,13.2-75.26,3.9-5.19,5-14.31,5-14.63,16.35,1.63,47.58,4.05,69.83,1.45,20.06,40.3,16.33,150,16.33,150Z" fill="#2f2e41" data-secondary="true"/>
<path d="M199.28,317.87c26.53-2.7,53.5-4,80-.28l-.07.56c-26.53-3.09-53.32-1.77-79.92-.28Zm0,0c26.59-1.93,53.42-3.22,80-.28l-.08.56c-26.43-3.86-53.37-2.54-79.9-.28Z" opacity="0.2"/>
<path d="M223.57,370c2.79,9.77,5.76,20.52,9.18,30a68,68,0,0,0,3.55,8.43l.61,1.15c-3.75-5.92-5.81-12.73-8-19.34-2-6.68-3.88-13.43-5.34-20.27Z" opacity="0.2"/>
<path d="M275.2,614.29l5.29,23.77s-1.32,15.85,7.26,15.19c0,0,4.33,1.85,11.2-11.21a13.32,13.32,0,0,1,1.58-2.36c2.46-2.88,8.82-11.17,5-15.48,0,0-1.35-2.25-5.9-3a5.38,5.38,0,0,0-5.12,2l-2.84,3.65V612.31S283.13,616.94,275.2,614.29Z" fill="#f9b499"/>
<path d="M291,630.45A46.59,46.59,0,0,1,293,640.7,47.18,47.18,0,0,1,291,630.45Z" fill="#f7a48b"/>
<path d="M299.67,621.16a13,13,0,0,1-3.34,4.36,13.07,13.07,0,0,1,3.34-4.36Z" fill="#f7a48b"/>
<path d="M302.79,622.1a13.91,13.91,0,0,1-3.12,4.75,13.86,13.86,0,0,1,3.12-4.75Z" fill="#f7a48b"/>
<path d="M305.57,624.2a6.41,6.41,0,0,1-2.78,2.65,6.52,6.52,0,0,1,2.78-2.65Z" fill="#f7a48b"/>
<path d="M306.7,626.85a5.13,5.13,0,0,1-2.52,2.32,5.17,5.17,0,0,1,2.52-2.32Z" fill="#f7a48b"/>
<path d="M190,623.54l2.64,23.76s-4,15.19,3.3,14.53c0,0,6.6,1.32,9.9-9.9,0,0,12.19-12.89,5.76-16.35,0,0-2.77-2.49-7.23,0l-1.83,1.16,1.73-10.42S197.73,628.67,190,623.54Z" fill="#f9b499"/>
<path d="M200.59,640.5a73.48,73.48,0,0,1,0,13.1,73.48,73.48,0,0,1,0-13.1Z" fill="#f7a48b"/>
<path d="M206.65,634.7a9.7,9.7,0,0,1-2.13,4.23,9.7,9.7,0,0,1,2.13-4.23Z" fill="#f7a48b"/>
<path d="M211.37,636a12.53,12.53,0,0,1-2.87,4.53,12.48,12.48,0,0,1,2.87-4.53Z" fill="#f7a48b"/>
<path d="M306.89,263l6.61,5.4s-21.13,33-27.73,44.9l-7.27,11.22s-4.62,5.62,0,16.35l7.93,22.6s4.1,7.12,6-2.62a27.35,27.35,0,0,0,.22-8.66c-.84-6.43-2.74-20.21-4.23-25.69,0,0,58.76-43.57,44.89-66.68l-11.05-14.15S318.78,254.9,306.89,263Z" fill="#f9b499"/>
<path d="M166,282.16s-4.39,22.5,2.21,25.8c0,0,12.31,10.21,20.35-20C188.6,288,179,289.83,166,282.16Z" fill="#f9b499"/>
<path d="M170.89,238V229.8a30.58,30.58,0,0,1-3-27.47s-2.25-7.87,3-8.56c0,0,.2,2.63,5.72,10.55l4.85,6.6s-1.92-11.79,3.54-13.55a1.22,1.22,0,0,1,1.58,1.38c-.58,3.15-1.58,10.09.32,12.14C186.9,210.89,177.5,218.18,170.89,238Z" fill="#f9b499"/>
<ellipse cx="251.11" cy="158.76" rx="18.82" ry="27.07" fill="#f9b499"/>
<path d="M198.62,182.53s-3.3-5.28,2.64-9.25a7.66,7.66,0,0,0,4-6.6,18.91,18.91,0,0,1,2.64-9.24s-2-27.17,24.43-32.73A35,35,0,0,1,258,129.05s7.92,2.64.66,9.9a9.93,9.93,0,0,0-4,7.93s2.21,6.62-2.21,10.78a2.35,2.35,0,0,0-.42,2.79,18.37,18.37,0,0,1,2,11.51,3.14,3.14,0,0,0,.66,4s8.21,8.76,1.7,12.32a7.68,7.68,0,0,1-3.74.87c-3.44,0-12.24-.26-14.17-1.32a7.16,7.16,0,0,0-3.09-.8l-.74,0a7.2,7.2,0,0,0-3.52.81,3,3,0,0,1-3.11-.39,7.59,7.59,0,0,0-3-1.17c-1.92-.31-4.7-.88-5.94-1.7a6.37,6.37,0,0,0-5.28,0s-3.31,2.64-5.29-.66c0,0-1.32-1.32-4.62,0A4.66,4.66,0,0,1,198.62,182.53Z" fill="#2f2e41" data-secondary="true"/>
<path d="M218.43,144.24a19.1,19.1,0,0,0-1,10.65,15.6,15.6,0,0,1,.69,5.45,9.7,9.7,0,0,1-1.57,5.31,8.94,8.94,0,0,1-2.1,1.82,10.08,10.08,0,0,0-1.73,2,21.46,21.46,0,0,0-2.89,10.28,49.53,49.53,0,0,0,0,5.45c-.57-5.37-.45-11.27,2.48-16a9.67,9.67,0,0,1,2.92-2.95,6.18,6.18,0,0,0,2-3.29,15.61,15.61,0,0,0-.19-8,18.06,18.06,0,0,1,1.37-10.74Z" opacity="0.2"/>
<path d="M242.19,167.34a15.35,15.35,0,0,1-3.3,9.65,14.43,14.43,0,0,1-2.48,2.46,8,8,0,0,0-1.7,1.5,10,10,0,0,0-2.29,5.2c-.06.39-.08.77-.13,1.16a12,12,0,0,1,.23-2.93,9.14,9.14,0,0,1,3.56-5.37,17,17,0,0,0,6.11-11.67Z" opacity="0.2"/>
<path d="M251.11,158.76a13.05,13.05,0,0,0-3.5,10.39c.83,3.74.25,8.13-2.61,10.92a26.32,26.32,0,0,0-5.44,5.41,5.79,5.79,0,0,0-1,2.32,5.58,5.58,0,0,1,.88-2.42,23.71,23.71,0,0,1,5.25-5.67c2.7-2.73,3.16-6.87,2.45-10.5a12.47,12.47,0,0,1,4-10.45Z" opacity="0.2"/>
<path d="M212,129a.37.37,0,0,0,.36-.45c-.4-1.61-1-6.12,5.19-4.6,0,0,9.18,2.43,5.72,8.79a3.19,3.19,0,0,1-.69.86c-1.05,1-3.9,2.62-9.4.12,0,0-3-1.18-2.72-3,0-.1,0-.2.07-.31C210.9,129.19,211.53,129,212,129Z" fill="#2f2e41" data-secondary="true"/>
<path d="M212,129a.37.37,0,0,0,.36-.45c-.4-1.61-1-6.12,5.19-4.6,0,0,9.18,2.43,5.72,8.79a3.19,3.19,0,0,1-.69.86c-1.05,1-3.9,2.62-9.4.12,0,0-3-1.18-2.72-3,0-.1,0-.2.07-.31C210.9,129.19,211.53,129,212,129Z" opacity="0.2"/>
<path d="M217.77,127.07a9.65,9.65,0,0,1,5.12,6.12,28.28,28.28,0,0,0-5.12-6.12Z" opacity="0.2"/>
<path d="M285.77,348.9c2,5.4,3.52,11.22,3.1,17,0-5.81-1.43-11.5-3.1-17Z" fill="#f7a48b"/>
<path d="M290.47,348.9a41.68,41.68,0,0,1,1.65,13.25,89,89,0,0,0-1.65-13.25Z" fill="#f7a48b"/>
<path d="M167.86,202.33a33,33,0,0,1,5,7.27,33.6,33.6,0,0,1-5-7.27Z" fill="#f7a48b"/>
<path d="M165.94,209.6a15.7,15.7,0,0,1,4.43,4.09,15.71,15.71,0,0,1-4.43-4.09Z" fill="#f7a48b"/>
<path d="M165.94,215.88a4.37,4.37,0,0,1,2.21,2.21,4.37,4.37,0,0,1-2.21-2.21Z" fill="#f7a48b"/>
</svg>