 <!DOCTYPE svg PUBLIC "-//W3C//DTD SVG 1.1//EN" "http://www.w3.org/Graphics/SVG/1.1/DTD/svg11.dtd">
<svg id="f0ee4b62-737a-440a-b22b-ddf44e80779c" data-name="e82c5820-f932-4457-a036-86542dad0225" xmlns="http://www.w3.org/2000/svg" width="865.76" height="682.89" viewBox="0 0 865.76 682.89">
<defs>
<style xmlns="http://www.w3.org/1999/xhtml">*, ::after, ::before { box-sizing: border-box; }
img, svg { vertical-align: middle; }
</style>
<style xmlns="http://www.w3.org/1999/xhtml">*, body, html { -webkit-font-smoothing: antialiased; }
img, svg { max-width: 100%; }
</style>
</defs>
<g id="e4f72239-207e-4c25-b0e8-b43c36d1ff78" data-name="ab6fd180-eceb-4869-b261-503079615616">
<path d="M111.5,607.51c66.6,42.08,185.63,56.78,235.44,59,135.44,6.06,305.19,12.64,421.86-70.16,68.62-48.76,7.22-191.43-1.81-242s84.88-41.53,36.12-158.92S590,11.25,467.21,13.05s-126.41,84.88-213.1,121-121-9-184.2,68.63,32.5,191.42,47,227.54c8,19.87-26.38,42.06-35.48,56.53C47,541.27,68.19,580.2,111.5,607.51Z" fill="#0071f2" data-primary="true"/>
<path d="M111.5,607.51c66.6,42.08,185.63,56.78,235.44,59,135.44,6.06,305.19,12.64,421.86-70.16,68.62-48.76,7.22-191.43-1.81-242s84.88-41.53,36.12-158.92S590,11.25,467.21,13.05s-126.41,84.88-213.1,121-121-9-184.2,68.63,32.5,191.42,47,227.54c8,19.87-26.38,42.06-35.48,56.53C47,541.27,68.19,580.2,111.5,607.51Z" fill="#fff" opacity="0.8" style="isolation:isolate"/>
</g>
<g id="efb44321-a7e1-4485-bea1-dda96fa590c7" data-name="ab12369f-a648-48b3-a8bc-7ffd1817d0e1">
<path d="M66.21,553.11C71.62,575,88.4,593,111.59,607.6c66.6,42.08,185.63,56.78,235.44,59,135.44,6.06,305.19,12.64,421.86-70.16,15-10.64,23.74-25.72,28.22-43.35Z" fill="#0071f2" data-primary="true"/>
<path d="M66.21,553.11C71.62,575,88.4,593,111.59,607.6c66.6,42.08,185.63,56.78,235.44,59,135.44,6.06,305.19,12.64,421.86-70.16,15-10.64,23.74-25.72,28.22-43.35Z" fill="#fff" opacity="0.6" style="isolation:isolate"/>
</g>
<g id="e0e41466-16b2-4df9-9019-16ead2258273" data-name="affac353-c9e8-4288-b811-b21443accf03">
<rect x="89.95" y="40.13" width="157.07" height="210.92" fill="none" stroke="#e6e7e8" stroke-linecap="round" stroke-linejoin="round"/>
<rect x="104.98" y="60.32" width="126.99" height="170.53" fill="none" stroke="#e6e7e8" stroke-linecap="round" stroke-linejoin="round"/>
<rect x="266.76" y="166.35" width="108.42" height="145.59" fill="none" stroke="#e6e7e8" stroke-linecap="round" stroke-linejoin="round"/>
<rect x="277.15" y="180.29" width="87.65" height="117.71" fill="none" stroke="#e6e7e8" stroke-linecap="round" stroke-linejoin="round"/>
</g>
<g id="b7b3166c-881b-47d8-a392-54cb0584c1a8" data-name="afd8feca-30d4-4f57-99e1-85ca61201a78">
<path d="M708.93,7.52h6a99.35,99.35,0,0,1,99.35,99.35h0V477.8H609.58V106.87A99.35,99.35,0,0,1,708.93,7.52Z" fill="none" stroke="#e6e7e8" stroke-linecap="round" stroke-linejoin="round"/>
<path d="M632.69,476.69V113.2A79.2,79.2,0,0,1,711.89,34h0a79.18,79.18,0,0,1,79.19,79.17v0h0v363.5" fill="none" stroke="#e6e7e8" stroke-linecap="round" stroke-linejoin="round"/>
<line x1="711.89" y1="7.52" x2="711.89" y2="477.23" fill="none" stroke="#e6e7e8" stroke-linecap="round" stroke-linejoin="round"/>
<line x1="610.68" y1="98.01" x2="812.81" y2="98.01" fill="none" stroke="#e6e7e8" stroke-linecap="round" stroke-linejoin="round"/>
<line x1="732.55" y1="146" x2="728.32" y2="149.21" fill="none" stroke="#e6e7e8" stroke-linecap="round" stroke-linejoin="round"/>
<line x1="785.59" y1="105.69" x2="741.02" y2="139.56" fill="none" stroke="#e6e7e8" stroke-linecap="round" stroke-linejoin="round"/>
<line x1="766.12" y1="132.03" x2="742.06" y2="150.36" fill="none" stroke="#e6e7e8" stroke-linecap="round" stroke-linejoin="round"/>
<line x1="688.88" y1="308.77" x2="649.29" y2="341.62" fill="none" stroke="#e6e7e8" stroke-linecap="round" stroke-linejoin="round"/>
<line x1="703.13" y1="296.96" x2="696.24" y2="302.67" fill="none" stroke="#e6e7e8" stroke-linecap="round" stroke-linejoin="round"/>
<line x1="667.62" y1="315.28" x2="641.27" y2="335.9" fill="none" stroke="#e6e7e8" stroke-linecap="round" stroke-linejoin="round"/>
<line x1="738.19" y1="398.09" x2="732.9" y2="402.32" fill="none" stroke="#e6e7e8" stroke-linecap="round" stroke-linejoin="round"/>
<line x1="778.71" y1="365.68" x2="746.6" y2="391.36" fill="none" stroke="#e6e7e8" stroke-linecap="round" stroke-linejoin="round"/>
<line x1="760.38" y1="392.02" x2="745.49" y2="403.48" fill="none" stroke="#e6e7e8" stroke-linecap="round" stroke-linejoin="round"/>
<line x1="610.68" y1="161.8" x2="812.81" y2="161.8" fill="none" stroke="#e6e7e8" stroke-linecap="round" stroke-linejoin="round"/>
<line x1="610.68" y1="225.61" x2="812.81" y2="225.61" fill="none" stroke="#e6e7e8" stroke-linecap="round" stroke-linejoin="round"/>
<line x1="610.68" y1="289.42" x2="812.81" y2="289.42" fill="none" stroke="#e6e7e8" stroke-linecap="round" stroke-linejoin="round"/>
<line x1="610.68" y1="353.21" x2="812.81" y2="353.21" fill="none" stroke="#e6e7e8" stroke-linecap="round" stroke-linejoin="round"/>
<line x1="610.68" y1="417.02" x2="812.81" y2="417.02" fill="none" stroke="#e6e7e8" stroke-linecap="round" stroke-linejoin="round"/>
<line x1="637.72" y1="39.46" x2="656.05" y2="56.16" fill="none" stroke="#e6e7e8" stroke-linecap="round" stroke-linejoin="round"/>
<line x1="785.3" y1="39.46" x2="766.97" y2="56.16" fill="none" stroke="#e6e7e8" stroke-linecap="round" stroke-linejoin="round"/>
<line x1="66.69" y1="355.56" x2="609.59" y2="355.56" fill="none" stroke="#e6e7e8" stroke-linecap="round" stroke-linejoin="round"/>
<line x1="66.69" y1="365.13" x2="609.59" y2="365.13" fill="none" stroke="#e6e7e8" stroke-linecap="round" stroke-linejoin="round"/>
<line x1="66.69" y1="658.37" x2="828.66" y2="658.37" fill="none" stroke="#e6e7e8" stroke-linecap="round" stroke-linejoin="round"/>
<line x1="224.56" y1="364.78" x2="224.56" y2="658.02" fill="none" stroke="#e6e7e8" stroke-linecap="round" stroke-linejoin="round"/>
<line x1="396.01" y1="364.78" x2="396.01" y2="658.02" fill="none" stroke="#e6e7e8" stroke-linecap="round" stroke-linejoin="round"/>
<line x1="567.47" y1="364.78" x2="567.47" y2="658.02" fill="none" stroke="#e6e7e8" stroke-linecap="round" stroke-linejoin="round"/>
<line x1="738.92" y1="491.37" x2="738.92" y2="658.02" fill="none" stroke="#e6e7e8" stroke-linecap="round" stroke-linejoin="round"/>
<rect x="604.32" y="478.02" width="216.32" height="13.35" fill="none" stroke="#e6e7e8" stroke-linecap="round" stroke-linejoin="round"/>
</g>
<path d="M469.55,241l-8.36-15.38a7.52,7.52,0,0,1-.74-2c-.61-2.93-2.5-11.39-4.81-16.37l-6.29-12.55a.94.94,0,0,0-1.27-.39,1,1,0,0,0-.5.81,24,24,0,0,0,0,12.09,16.54,16.54,0,0,1,.93,2.92c.44,2.5.83,7.07.64,15.37,0,0-1.08,5.12,1.73,6.5,0,0,9.23,3.9,11.31,10.51C462.19,242.44,466.9,240.82,469.55,241Z" fill="#0071f2" data-primary="true"/>
<path d="M484.2,505.34l-25.43-48.07-38.25-12.16,21.21,50.75,6.66.66L469.44,518a3.7,3.7,0,0,0,5.16.11l8.86-8.3A3.7,3.7,0,0,0,484.2,505.34Z" fill="#2f2e41" data-secondary="true"/>
<path d="M484.2,505.34l-25.43-48.07-38.25-12.16,21.21,50.75,6.66.66L469.44,518a3.7,3.7,0,0,0,5.16.11l8.86-8.3A3.7,3.7,0,0,0,484.2,505.34Z" opacity="0.2" style="isolation:isolate"/>
<path d="M477.88,528.59s-20.61,28.11-15.6,36a2,2,0,0,0,2.74.7,1.74,1.74,0,0,0,.45-.36l37-37.65a2.47,2.47,0,0,0,.27-3.14c-1.88-2.7-6.17-7.4-12.47-5.89A24.11,24.11,0,0,1,477.88,528.59Z" fill="#0071f2" data-primary="true"/>
<path d="M473,519.07l4.87,9.52s8.46-2.57,12.4-10.35l-5.65-10.91Z" fill="#f9b499"/>
<polygon points="467.31 507.33 611.03 507.33 614.52 519.07 464.8 519.07 467.31 507.33" fill="#bcbec0"/>
<polygon points="494.33 474.56 458.77 661.3 469.24 661.3 503.19 474.56 494.33 474.56" fill="#bcbec0"/>
<rect x="452.58" y="565.22" width="175.4" height="10.96" fill="#bcbec0"/>
<rect x="444.55" y="616.44" width="196.88" height="10.96" fill="#bcbec0"/>
<polygon points="581.78 461.38 607.54 461.38 659.38 661.3 649.41 661.3 603.05 474.56 585.29 474.56 581.78 461.38" fill="#bcbec0"/>
<path d="M444.51,541.74s-21.19,25.6-16.18,33.48a2,2,0,0,0,3.19.34l37-37.65a2.47,2.47,0,0,0,.27-3.14c-1.88-2.7-6.17-7.4-12.47-5.89C456.33,528.88,452.85,535.48,444.51,541.74Z" fill="#0071f2" data-primary="true"/>
<path d="M502.88,313.59s-23.07-2.78-27.83-14.46L455.64,246.6s3.66-4.92,13.91-5.65l23.11,37.49a6.34,6.34,0,0,0,4.84,3l13.5,1.2S511.3,304.57,502.88,313.59Z" fill="#f9b499"/>
<path d="M475.05,299.13s16.84,12.12,24.16,5.53c0,0,5.91-3.79,5.52-22.58l6.22.56s1.08,23-8.07,30.95c0,0-11.91-1.31-21-6.95C481.91,306.64,476.77,303.8,475.05,299.13Z" fill="#f7a48b"/>
<polygon points="467.93 298.7 467.55 299.72 466.61 298.78 467.93 298.7" fill="#0071f2" data-primary="true"/>
<polygon points="467.93 298.7 467.55 299.72 466.61 298.78 467.93 298.7" opacity="0.2" style="isolation:isolate"/>
<path d="M517.88,346l.59,3s2.57-1.26,2.52-3.34Z" fill="#0071f2" data-primary="true"/>
<path d="M517.88,346l.59,3s2.57-1.26,2.52-3.34Z" opacity="0.2" style="isolation:isolate"/>
<path d="M452.32,310s21.12,36.2,37.5,37.49l31.17-1.8s10.48-18.6-7.48-35.2a63.78,63.78,0,0,1-12.7,4.72c-3.6.89-7.31,3.33-10,3.4a6,6,0,0,1-3,.11,5.85,5.85,0,0,1-2.66-1.34L466.32,298.5S459.22,295.74,452.32,310Z" fill="#f9b499"/>
<path d="M509.45,312.69s10.6,23.46,0,26.39c0,0-16.08,6.69-26.16,6.28,0,0,1.72,2.37,15.44,1.58L521,345.65s10.23-18.26-7.48-35.2Z" fill="#f7a48b"/>
<path d="M502.88,313.59c2.4-3.08,8-12.27,8.07-30.95a1.48,1.48,0,0,1,1.47-1.49h.06l53.08,2,1.14,3.68s-4.47-2-6.05,1.75l-49.21,18.88,2.07,3a73.57,73.57,0,0,1-10,4.08.6.6,0,0,1-.75-.37A.61.61,0,0,1,502.88,313.59Z" fill="#0071f2" data-primary="true"/>
<path d="M502.88,313.59c2.4-3.08,8-12.27,8.07-30.95a1.48,1.48,0,0,1,1.47-1.49h.06l53.08,2,1.14,3.68s-4.47-2-6.05,1.75l-49.21,18.88,2.07,3a73.57,73.57,0,0,1-10,4.08.6.6,0,0,1-.75-.37A.61.61,0,0,1,502.88,313.59Z" opacity="0.2" style="isolation:isolate"/>
<path d="M573,286s15.89.51,20.39-6.58a3.58,3.58,0,0,1,5-1,3.72,3.72,0,0,1,.64.55,13.46,13.46,0,0,1,1.91,2.76,31.32,31.32,0,0,0,2.73,4.37c4.52,6,16.52,26.13,15.75,69.29,0,0-9.25,7.5-9.58,1.46l-1-22.22c-.5-9-5.8-16.29-10.2-24.19C593.39,301.25,587.6,289.88,573,286Z" fill="#0071f2" data-primary="true"/>
<ellipse cx="560.65" cy="232.94" rx="24.13" ry="32.3" fill="#f9b499"/>
<path d="M563.18,265.06l2.65,20.22s21.6,4.32,28.58-7.31l-3.65-27.58s-5.18-.3-7.25-7.13C583.51,243.26,579.14,262.44,563.18,265.06Z" fill="#f9b499"/>
<path d="M541.34,213.56s-8.47-3.16-5.71-11.25a12.55,12.55,0,0,1,5.55-6.62c7.13-4.27,25.58-13.56,35.62-2.46,0,0,8-6.31,21.6,10.3,0,0,34.23,31.91-7.64,46.86,0,0-6.51-1.3-7.25-7.13l1.27-11.81s-12.3,2.66-16.95-7.31c0,0-23.56,2.47-14.77-21.86C553.06,202.28,546.75,204.64,541.34,213.56Z" fill="#2f2e41" data-secondary="true"/>
<ellipse cx="571.49" cy="236.57" rx="8.14" ry="5.15" transform="translate(115.05 653.98) rotate(-64.93)" fill="#f9b499"/>
<path d="M568.07,244s10.78.45,8.76-12.68c0,0,4.63,1.49,7.95.16,0,0,.8,3.68-1.27,11.81,0,0-.06,4.47,7.25,7.13l.57,4.33s-9,.31-11.63-9.65C579.7,245.07,570.19,250.83,568.07,244Z" fill="#f7a48b"/>
<path d="M599,370.17c-6.28,26.26-51.26,28.4-62.55,26.92-2.89-.38-3.56-6-5.47-8.19-10-11.5,1-41.47,1-41.47a25.29,25.29,0,0,1-13,1.91.57.57,0,0,1-.29-1c2.58-1.88,3.82-5.42,4.38-8.87A34.23,34.23,0,0,0,520.23,320c-2.87-6.37-6.61-9.88-8.86-11.05a.81.81,0,0,1-.34-1.08.78.78,0,0,1,.41-.37l49.21-18.88s33.13-1.6,37.12,33C597.77,321.57,602.67,342.26,599,370.17Z" fill="#0071f2" data-primary="true"/>
<path d="M560.65,288.61s-.31-2.6,5.18-3.33c7.83-1,15.5,2.35,21.61,7.34l.47.39a58.78,58.78,0,0,1,20.82,42l1.14,20.69a2.72,2.72,0,0,0,2.85,2.57,2.54,2.54,0,0,0,.47-.07,15.61,15.61,0,0,0,6.15-2.82s-9,66.63-40.54,95c0,0-16.62,14-57,11,0,0-76.26,1-90.72-2,0,0,16.63,34,23.42,51.68a10.23,10.23,0,0,1-1.94,10.56c-4.72,5.21-12.82,12.06-19.73,7.29,0,0-72.53-70.53-62.56-93,0,0,3.49-11.47,37.88-22.43,0,0,14-6.48,76.27-23.43,0,0,37.71-15.12,47.52-42.7,0,0-11.77,36.5,3.25,44.83a12,12,0,0,0,4.56,1.32c9.21.89,51.88,3.62,56.32-21.56C596.07,372,611.45,290.27,560.65,288.61Z" fill="#2f2e41" data-secondary="true"/>
<path d="M463.38,251.82a19.3,19.3,0,1,1-29.69-18.5,5.58,5.58,0,0,0,2.5-4.65v-4.08h13.3v4.34a2.8,2.8,0,0,0,1.79,2.59A19.28,19.28,0,0,1,463.38,251.82Z" fill="#0071f2" data-primary="true"/>
<path d="M463.38,251.82a19.3,19.3,0,1,1-29.69-18.5,5.58,5.58,0,0,0,2.5-4.65v-4.08h13.3v4.34a2.8,2.8,0,0,0,1.79,2.59A19.28,19.28,0,0,1,463.38,251.82Z" fill="#fff" opacity="0.5" style="isolation:isolate"/>
<path d="M441.91,205.16h1.87a5.72,5.72,0,0,1,5.72,5.72h0v13.71H436.19V210.88a5.72,5.72,0,0,1,5.72-5.72Z" fill="#2f2e41" data-secondary="true"/>
<line x1="436.19" y1="211.81" x2="449.5" y2="211.81" fill="none" stroke="#000" stroke-miterlimit="10" opacity="0.2" style="isolation:isolate"/>
<line x1="436.19" y1="219.19" x2="449.5" y2="219.19" fill="none" stroke="#000" stroke-miterlimit="10" opacity="0.2" style="isolation:isolate"/>
<rect x="442.34" y="13.02" width="1" height="192.14" fill="#2f2e41" data-secondary="true"/>
<path d="M440.69,224.59v14.46a18.5,18.5,0,0,1-.94,6c-.84,2.4-2.34,4.82-4.94,4.11a4.07,4.07,0,0,1-2.71-4.38c.41-2.85,2.46-6.81,10.74-6.66,0,0,8-1.39,11.25,3.92a10.21,10.21,0,0,1,.68,1.15c1.91,3.78-3,7.56-6,4.66-1.28-1.21-2.33-3.31-2.49-7l-.47-16.36" fill="none" stroke="#fff" stroke-miterlimit="10" stroke-width="0.5"/>
<path d="M522.67,216A19.3,19.3,0,1,1,493,197.48a5.56,5.56,0,0,0,2.51-4.65v-4.08h13.3v4.33a2.81,2.81,0,0,0,1.79,2.6A19.3,19.3,0,0,1,522.67,216Z" fill="#0071f2" data-primary="true"/>
<path d="M522.67,216A19.3,19.3,0,1,1,493,197.48a5.56,5.56,0,0,0,2.51-4.65v-4.08h13.3v4.33a2.81,2.81,0,0,0,1.79,2.6A19.3,19.3,0,0,1,522.67,216Z" fill="#fff" opacity="0.5" style="isolation:isolate"/>
<path d="M501.2,169.32h1.87a5.72,5.72,0,0,1,5.72,5.72h0v13.71H495.48V175A5.72,5.72,0,0,1,501.2,169.32Z" fill="#2f2e41" data-secondary="true"/>
<line x1="495.48" y1="175.97" x2="508.79" y2="175.97" fill="none" stroke="#000" stroke-miterlimit="10" opacity="0.2" style="isolation:isolate"/>
<line x1="495.48" y1="183.34" x2="508.79" y2="183.34" fill="none" stroke="#000" stroke-miterlimit="10" opacity="0.2" style="isolation:isolate"/>
<rect x="501.63" y="17.4" width="1" height="151.92" fill="#2f2e41" data-secondary="true"/>
<path d="M500,188.75V203.2a18.33,18.33,0,0,1-.94,6.06c-.84,2.4-2.34,4.82-4.94,4.11a4.07,4.07,0,0,1-2.71-4.38c.41-2.85,2.46-6.81,10.74-6.66,0,0,8-1.39,11.25,3.92a10.21,10.21,0,0,1,.68,1.15c1.91,3.78-3,7.56-6,4.66-1.28-1.21-2.33-3.32-2.49-6.95l-.47-16.36" fill="none" stroke="#fff" stroke-miterlimit="10" stroke-width="0.5"/>
<path d="M381.42,241.05a19.3,19.3,0,1,1-29.7-18.49,5.58,5.58,0,0,0,2.5-4.65v-4.08h13.31v4.33a2.78,2.78,0,0,0,1.79,2.6A19.3,19.3,0,0,1,381.42,241.05Z" fill="#0071f2" data-primary="true"/>
<path d="M381.42,241.05a19.3,19.3,0,1,1-29.7-18.49,5.58,5.58,0,0,0,2.5-4.65v-4.08h13.31v4.33a2.78,2.78,0,0,0,1.79,2.6A19.3,19.3,0,0,1,381.42,241.05Z" fill="#fff" opacity="0.5" style="isolation:isolate"/>
<path d="M359.94,194.4h1.87a5.72,5.72,0,0,1,5.72,5.72h0v13.71H354.22V200.12a5.72,5.72,0,0,1,5.72-5.72Z" fill="#2f2e41" data-secondary="true"/>
<line x1="354.22" y1="201.05" x2="367.53" y2="201.05" fill="none" stroke="#000" stroke-miterlimit="10" opacity="0.2" style="isolation:isolate"/>
<line x1="354.22" y1="208.42" x2="367.53" y2="208.42" fill="none" stroke="#000" stroke-miterlimit="10" opacity="0.2" style="isolation:isolate"/>
<rect x="360.37" y="48.6" width="1" height="145.8" fill="#2f2e41" data-secondary="true"/>
<path d="M358.73,213.83v14.45a18.38,18.38,0,0,1-1,6.06c-.84,2.4-2.34,4.82-4.94,4.11a4.07,4.07,0,0,1-2.71-4.38c.41-2.85,2.46-6.81,10.74-6.67,0,0,8-1.38,11.25,3.93a8.9,8.9,0,0,1,.68,1.15c1.91,3.77-3,7.56-6,4.66-1.28-1.21-2.33-3.32-2.49-6.95l-.46-16.36" fill="none" stroke="#fff" stroke-miterlimit="10" stroke-width="0.5"/>
<path d="M657.79,237.76a19.3,19.3,0,1,1-29.7-18.5,5.56,5.56,0,0,0,2.51-4.65v-4.07h13.3v4.33a2.81,2.81,0,0,0,1.79,2.6A19.29,19.29,0,0,1,657.79,237.76Z" fill="#0071f2" data-primary="true"/>
<path d="M657.79,237.76a19.3,19.3,0,1,1-29.7-18.5,5.56,5.56,0,0,0,2.51-4.65v-4.07h13.3v4.33a2.81,2.81,0,0,0,1.79,2.6A19.29,19.29,0,0,1,657.79,237.76Z" fill="#fff" opacity="0.5" style="isolation:isolate"/>
<path d="M636.31,191.1h1.87a5.72,5.72,0,0,1,5.72,5.72v13.71H630.59v-13.7a5.72,5.72,0,0,1,5.71-5.73Z" fill="#2f2e41" data-secondary="true"/>
<line x1="630.59" y1="197.76" x2="643.9" y2="197.76" fill="none" stroke="#000" stroke-miterlimit="10" opacity="0.2" style="isolation:isolate"/>
<line x1="630.59" y1="205.13" x2="643.9" y2="205.13" fill="none" stroke="#000" stroke-miterlimit="10" opacity="0.2" style="isolation:isolate"/>
<rect x="636.75" y="47.81" width="1" height="143.29" fill="#2f2e41" data-secondary="true"/>
<path d="M635.1,210.54V225a18.38,18.38,0,0,1-1,6.06c-.83,2.4-2.33,4.81-4.93,4.11a4.07,4.07,0,0,1-2.71-4.38c.41-2.85,2.46-6.82,10.74-6.67,0,0,8-1.38,11.24,3.93a8.9,8.9,0,0,1,.68,1.15c1.91,3.77-3,7.56-6,4.66-1.28-1.21-2.33-3.32-2.5-7l-.46-16.36" fill="none" stroke="#fff" stroke-miterlimit="10" stroke-width="0.5"/>
<line x1="531.94" y1="347.43" x2="571.52" y2="333.95" fill="none" stroke="#000" stroke-miterlimit="10" opacity="0.2" style="isolation:isolate"/>
<path d="M563.18,265.06l1.22,9.27s9.91-5.66,10.33-15.26C574.73,259.07,569.31,265.24,563.18,265.06Z" fill="#f7a48b"/>
<path d="M439,530.49l5.49,11.25s9-5.91,11.82-12.86l-3.79-7.21A23.6,23.6,0,0,1,439,530.49Z" fill="#f9b499"/>
<polygon points="427.56 669.06 467.13 461.38 581.78 461.38 636.95 669.06 624.99 669.06 575.8 474.04 473.01 474.7 439.02 669.06 427.56 669.06" fill="#d1d3d4"/>
<path d="M429,209.48c-.79-1.47-1.53-3.84.55-5.45a4.39,4.39,0,0,1,4.26-.48l7.79,3.12a3,3,0,0,1,1.93,2.56c0,1-.47,1.91-2.68,1.61,0,0,4.74,4.14-.75,8.35,0,0,3,3.95-2.49,7.44a5.24,5.24,0,0,1,1.21,3.85,2.48,2.48,0,0,1-2.89,2,2.13,2.13,0,0,1-.49-.15c-2.49-1-6.21-3.3-3.33-7.34,0,0-4.85-3-2.26-6a1.43,1.43,0,0,0-.22-2h0a3.39,3.39,0,0,1-.84-4.73l.12-.17A2.54,2.54,0,0,0,429,209.48Z" fill="#0071f2" data-primary="true"/>
<path d="M467.93,298.7s-15.41,5.57-16.41,15.85l-9.84-18.2a10.71,10.71,0,0,0-2.88-3.4c-6.15-4.76-25.94-21.5-17.19-33.92,0,0,.33-14,7.31-12.29,0,0-.81,12,2,17.11a4.52,4.52,0,0,0,1.94,1.86l7.14,3.72a3.64,3.64,0,0,0,4.91-1.53,3.57,3.57,0,0,0,.38-1.14c.63-4.29,2.28-9.91,6.58-11.56a1.88,1.88,0,0,1,2.41,1.1,1.83,1.83,0,0,1,.11.77l-1.85,28.63a5,5,0,0,0,2.26,4.49Z" fill="#0071f2" data-primary="true"/>
<path d="M421.61,259s.27,14.45,10.45,18.81" fill="none" stroke="#000" stroke-miterlimit="10" opacity="0.2" style="isolation:isolate"/>
<path d="M451.52,314.55l3-1-1.88-3A4.68,4.68,0,0,0,451.52,314.55Z" fill="#0071f2" data-primary="true"/>
<path d="M451.52,314.55l3-1-1.88-3A4.68,4.68,0,0,0,451.52,314.55Z" opacity="0.2" style="isolation:isolate"/>
<line x1="440.8" y1="210.84" x2="430.14" y2="210.11" fill="none" stroke="#000" stroke-miterlimit="10" opacity="0.2" style="isolation:isolate"/>
<line x1="430.78" y1="217.85" x2="439" y2="218.89" fill="none" stroke="#000" stroke-miterlimit="10" opacity="0.2" style="isolation:isolate"/>
<line x1="432.77" y1="225.24" x2="437.56" y2="226.63" fill="none" stroke="#000" stroke-miterlimit="10" opacity="0.2" style="isolation:isolate"/>
<polygon points="354.49 465.17 354.49 595.96 346.57 595.96 346.57 480.35 262.8 480.35 262.8 595.96 254.88 595.96 254.88 465.17 354.49 465.17" fill="#bcbec0"/>
<polygon points="376.49 465.17 376.49 595.96 368.58 595.96 368.58 480.35 284.8 480.35 284.8 595.96 276.89 595.96 276.89 465.17 376.49 465.17" fill="#d1d3d4"/>
<path d="M350.21,465H278.8a8,8,0,0,1-7.91-6.62l-5.16-28.67h94.38l-1.87,27.79A8.05,8.05,0,0,1,350.21,465Z" fill="#0071f2" data-primary="true"/>
<path d="M266.48,406.77h93.73a3.11,3.11,0,0,1,3.11,3.11v18.2H263.37v-18.2a3.11,3.11,0,0,1,3.11-3.11Z" fill="#0071f2" data-primary="true"/>
<rect x="276.08" y="406.77" width="79.26" height="3.49" fill="#2f2e41" data-secondary="true"/>
<path d="M289.79,406.77V393.31a3,3,0,0,1,3-3h42.87a3,3,0,0,1,3,3v13.46h-5v-8.23a3,3,0,0,0-3-3h-32.4a3,3,0,0,0-3,3v8.23Z" fill="#2f2e41" data-secondary="true"/>
<rect x="259.39" y="426.49" width="107.86" height="3.17" fill="#0071f2" data-primary="true"/>
<rect x="259.39" y="426.49" width="107.86" height="3.17" opacity="0.2" style="isolation:isolate"/>
<rect x="261.49" y="417.24" width="103.38" height="4.1" fill="#2f2e41" data-secondary="true"/>
<path d="M274.56,421.33h18.05V434.9a4.49,4.49,0,0,1-4.48,4.48H279a4.49,4.49,0,0,1-4.48-4.48h0V421.33Z" fill="#2f2e41" data-secondary="true"/>
<path d="M330.79,420.64h18v13.57a4.49,4.49,0,0,1-4.48,4.48h-9.1a4.49,4.49,0,0,1-4.48-4.48h0V420.64Z" fill="#2f2e41" data-secondary="true"/>
<g id="a91c8bd8-fe51-4db3-8115-50130c0bd886" data-name="fce93c39-b8f8-4e42-9ef4-fdd01938c105">
<path d="M239.4,579.46s1.46-10.78,8.36-12,4.82-6.39,6.61-8.41,6.49,3.93,2.46,9.7-.73,4-2.46,9.3S238.77,588.39,239.4,579.46Z" fill="#2f2e41" data-secondary="true"/>
<path d="M239.4,579.46s1.46-10.78,8.36-12,4.82-6.39,6.61-8.41,6.49,3.93,2.46,9.7-.73,4-2.46,9.3S238.77,588.39,239.4,579.46Z" fill="#fff" opacity="0.2" style="isolation:isolate"/>
<path d="M240.57,586.34h-.14a.52.52,0,0,1-.36-.65h0c0-.11,3.34-11.74-2.16-28.61a72.41,72.41,0,0,0-6.49-13.87c-4.65-8.3-8.71-15.46-4.77-29.78,1.16-4.42,2.53-8.56,3.79-12.56,4.66-14.77,8.32-26.43,2.63-36.47a.54.54,0,0,1,.2-.72.52.52,0,0,1,.66.11v.09c5.92,10.47,2.19,22.29-2.54,37.3-1.25,4-2.56,8.15-3.78,12.53-3.82,13.9-.08,20.55,4.66,29a75.41,75.41,0,0,1,6.58,14.07C244.46,574,241.06,585.85,241,586A.56.56,0,0,1,240.57,586.34Z" fill="#2f2e41" data-secondary="true"/>
<path d="M243.66,584.31s4.46-6.72-2-10.16S234,573.47,230,571s-7-8.49-7.68-4.65,3.92,6,2.33,7.81S235.42,587.34,243.66,584.31Z" fill="#2f2e41" data-secondary="true"/>
<path d="M236.29,469.34s2.17-13.72-7.63-12.41S231.57,468.68,236.29,469.34Z" fill="#2f2e41" data-secondary="true"/>
<path d="M229.45,480.73s-4.82-11.37-11.34-7.75S222.6,482.06,229.45,480.73Z" fill="#2f2e41" data-secondary="true"/>
<path d="M241.35,479.84s-2.58-9.3,4.74-10.66S251.47,476.63,241.35,479.84Z" fill="#2f2e41" data-secondary="true"/>
<path d="M239.61,499.91s8.42-10.38,13-4.42S246.49,504.59,239.61,499.91Z" fill="#2f2e41" data-secondary="true"/>
<path d="M221.93,501.19s-4.22-14.28-11.43-8.41S215.29,503.78,221.93,501.19Z" fill="#2f2e41" data-secondary="true"/>
<path d="M218.34,523.2s3.48-15.69-7.17-12.24S210.05,520.89,218.34,523.2Z" fill="#2f2e41" data-secondary="true"/>
<path d="M235.93,525.74s7.46-12.37,15-10.06S254.59,529.7,235.93,525.74Z" fill="#2f2e41" data-secondary="true"/>
<path d="M231.49,551.16S220.8,535,214.78,542,221.62,556,231.49,551.16Z" fill="#2f2e41" data-secondary="true"/>
<path d="M242.74,548.28s-4.28-13.19,3.67-13.36S253.67,543.34,242.74,548.28Z" fill="#2f2e41" data-secondary="true"/>
<g opacity="0.2">
<path d="M236.23,469.34s2.17-13.72-7.63-12.41S231.51,468.68,236.23,469.34Z" fill="#fff"/>
<path d="M229.4,480.73s-4.83-11.37-11.34-7.75S222.55,482.06,229.4,480.73Z" fill="#fff"/>
<path d="M241.29,479.84s-2.58-9.3,4.74-10.66S251.41,476.63,241.29,479.84Z" fill="#fff"/>
<path d="M239.55,499.91s8.42-10.38,13-4.42S246.44,504.59,239.55,499.91Z" fill="#fff"/>
<path d="M221.87,501.19s-4.22-14.28-11.43-8.41S215.23,503.78,221.87,501.19Z" fill="#fff"/>
<path d="M218.28,523.2s3.49-15.69-7.17-12.24S210,520.89,218.28,523.2Z" fill="#fff"/>
<path d="M235.87,525.74s7.46-12.37,15-10.06S254.53,529.7,235.87,525.74Z" fill="#fff"/>
<path d="M231.43,551.16S220.74,535,214.72,542,221.56,556,231.43,551.16Z" fill="#fff"/>
<path d="M242.68,548.28s-4.28-13.19,3.67-13.36S253.61,543.34,242.68,548.28Z" fill="#fff"/>
</g>
<path d="M234.91,487.93h-.07a.63.63,0,0,1-.36-.21c0-.07-4.93-6.6-8-7.83a.51.51,0,0,1-.29-.67h0a.51.51,0,0,1,.66-.29h0c2.9,1.17,7,6.19,8.14,7.73a35.13,35.13,0,0,0,7.83-10.47.51.51,0,0,1,.68-.27h0a.55.55,0,0,1,.25.7,35,35,0,0,1-8.53,11.25A.6.6,0,0,1,234.91,487.93Z" fill="#263238"/>
<path d="M228.92,507.48h0a.63.63,0,0,1-.4-.19c-.05-.08-6-7.1-12.49-9.64a.54.54,0,0,1-.3-.69.52.52,0,0,1,.67-.3c5.9,2.33,11.12,7.89,12.55,9.52,7.41-7.44,17.59-8.83,18-8.89a.51.51,0,0,1,.58.43h0a.51.51,0,0,1-.43.58h0c-.1,0-10.62,1.47-17.79,9A.59.59,0,0,1,228.92,507.48Z" fill="#2f2e41" data-secondary="true"/>
<path d="M227.13,532.31a.48.48,0,0,1-.26-.07c-6.65-3.76-13.07-14.76-13.34-15.22a.53.53,0,0,1,.85-.63l.06.1c0,.11,6.34,10.87,12.64,14.66,1.82-1.46,11.63-9,19.77-10.47a.53.53,0,0,1,.62.41h0a.53.53,0,0,1-.41.61h0c-8.63,1.59-19.48,10.41-19.6,10.47A.43.43,0,0,1,227.13,532.31Z" fill="#2f2e41" data-secondary="true"/>
<path d="M238.1,555.91a.55.55,0,0,1-.38-.16,26.24,26.24,0,0,0-14.29-6.3.53.53,0,0,1-.45-.58.51.51,0,0,1,.56-.45h0a27.5,27.5,0,0,1,14.54,6.24c3.77-3.55,7.57-15.25,7.62-15.37a.51.51,0,0,1,.63-.35h0a.55.55,0,0,1,.34.66c-.18.52-4.18,12.8-8.31,16.17A.44.44,0,0,1,238.1,555.91Z" fill="#2f2e41" data-secondary="true"/>
<path d="M243,582.71s3.82-6.09,8.14-7,6.18-5.82,7.77-2.85S256.08,585.81,243,582.71Z" fill="#2f2e41" data-secondary="true"/>
<polygon points="262.8 606.57 221.09 606.57 218.3 580.85 265.59 580.85 262.8 606.57" fill="#0071f2" data-primary="true"/>
<polygon points="266.57 585.72 217.32 585.72 216.7 580.26 267.2 580.26 266.57 585.72" fill="#0071f2" data-primary="true"/>
<polygon points="266.57 585.72 217.32 585.72 216.7 580.26 267.2 580.26 266.57 585.72" fill="#fff" opacity="0.3" style="isolation:isolate"/>
</g>
</svg>