 <!DOCTYPE svg PUBLIC "-//W3C//DTD SVG 1.1//EN" "http://www.w3.org/Graphics/SVG/1.1/DTD/svg11.dtd">
<svg id="a13f635d-9a92-4e4f-9fa5-fdb21741b673" data-name="Layer 1" xmlns="http://www.w3.org/2000/svg" xmlns:xlink="http://www.w3.org/1999/xlink" width="865.76" height="682.89" viewBox="0 0 865.76 682.89">
<defs>
<clipPath id="e78a492d-c732-4eb0-bed4-01ceec9e10f1">
<rect id="a259a612-dcad-419f-9f69-f98a64a6f7a2" data-name="SVGID" x="247.48" y="120.76" width="374.44" height="211.68" fill="#d1d3d4"/>
</clipPath>
<style xmlns="http://www.w3.org/1999/xhtml">*, ::after, ::before { box-sizing: border-box; }
img, svg { vertical-align: middle; }
</style>
<style xmlns="http://www.w3.org/1999/xhtml">*, body, html { -webkit-font-smoothing: antialiased; }
img, svg { max-width: 100%; }
</style>
</defs>
<g id="b702063c-babf-4ce5-8fab-a67105b0d30d" data-name="freepik--background-simple--inject-2">
<path d="M722.19,412.38s26.45-112.26-46.51-210.25S475,66.05,372.49,32.29s-198.65,4.88-234.82,91S174.18,256,190.1,368.6s3.05,145,77.74,230.88,228.38,84.09,332.38-3.83S722.19,412.38,722.19,412.38Z" fill="#0071f2" data-primary="true"/>
<path d="M722.19,412.38s26.45-112.26-46.51-210.25S475,66.05,372.49,32.29s-198.65,4.88-234.82,91S174.18,256,190.1,368.6s3.05,145,77.74,230.88,228.38,84.09,332.38-3.83S722.19,412.38,722.19,412.38Z" fill="#fff" opacity="0.7" style="isolation:isolate"/>
</g>
<path d="M229.53,380.05h-4.59c0-101.09-29.71-106.26-30-106.3l.49-4.59C196.84,269.4,229.53,273.88,229.53,380.05Z" fill="#263238"/>
<path d="M290,217.27h0v-.66h0v-1.27a3.68,3.68,0,0,0,0-.47h0a.58.58,0,0,0-.07-.34.14.14,0,0,1,0-.09.32.32,0,0,0-.12-.3C288.67,212,278.52,204,270.16,203s-18.47-2.51-16-4.9h0l.4-.3h0a3.84,3.84,0,0,1,.53-.28h0l.6-.18h.11l.64-.12h2.77l.76.07h.26l.78.11h.29l.78.12h.31l.76.15.34.08.75.15.36.1.69.16.41.11.65.17.45.12.55.15.54.16.43.12.9.28a103.05,103.05,0,0,1,13.32,5.64c2.12,1,5.1,2.87,5.1,2.87s.75-10,.31-12.23-7.39-4.85-13.85-6-11.3,0-14.3-.66l-.79-.15h0l-.52-.11c-.65-.12-1.29-.23-1.82-.37h0c-1.68-.4-2.43-.85.35-1.7,4.33-1.3,11.42-4.32,16.82-3.67l1.66.2h0c5.17.55,11.26.95,11.26.95a44.4,44.4,0,0,0-5.74-8.74l-.39-.45h0c-2.73-3-3.8-4.28-7.33-3.62-3.24.61-10,3.91-13.51,5.09h0l-.65.2h0l-.56.12-.64.14h0l-.62.12-.74.15h0l-.69.14h0c-.45.09-.89.15-1.27.2h-1.47a.11.11,0,0,1,0-.08h0v-.07h0v-.09h0V177h0v-.27a.27.27,0,0,1,.09-.12l.08-.1a.75.75,0,0,1,.15-.16v-.08l.26-.26c3.06-3.06,9.36-5.14,12.37-5.7s3.73.73,2.22-.9-11.19-8.44-14-9.18-5.22-2.12-10.37-.2l-.88.37-.3.14-.53.27a1.7,1.7,0,0,0-.35.19l-.45.24-.36.21-.38.25-.37.24-.31.23a4,4,0,0,0-.39.29l-.16.13a11.89,11.89,0,0,0-1,.85h0a8.56,8.56,0,0,0-3.06,4.93c0,1.69,2.32,8.5,2.57,12a13.07,13.07,0,0,1-1.19,1.92.92.92,0,0,1-.49.33,4.06,4.06,0,0,1-1.73-.17,6.33,6.33,0,0,1-1.07-3.87c-.23-5-1-10.38-3.21-11.88s-12.86-4.59-14.25-4.27-10.52,1.53-15.29,5.08a9.75,9.75,0,0,0-.8.64l-.23.22-.47.45-.21.25c-.13.15-.26.29-.37.44l-.2.25-.29.44a1.58,1.58,0,0,0-.15.24c-.09.16-.19.31-.26.46s0,.16-.12.22-.14.33-.22.49a.48.48,0,0,1,0,.17,2.35,2.35,0,0,1-.2.58h0a10.3,10.3,0,0,0-.29,1.22h0v.6a2.16,2.16,0,0,0,0,.36v.52a.81.81,0,0,0,0,.22v.24a.24.24,0,0,0,0,.12h0a.61.61,0,0,1,0,.19l.46-.16h0l.93-.27h0l.57-.17H199l.64-.18h.11l.67-.2h.11l.76-.22h.17l.8-.21h.17l.87-.23h.09l.84-.23h.14l.88-.21h.19l.89-.2h.16l.91-.2h0l.85-.17h.14l.82-.15h.17l.78-.12h.31l.76-.1h1.38l.53.1h.14l.57.13H214l.47.17h.1l.5.23h0l.43.23h0l.41.29h0a5,5,0,0,1,.66.64h0a2.43,2.43,0,0,1,.36.72h0a1.26,1.26,0,0,1,0,.72h0a1.38,1.38,0,0,1-.42.64h0l-.2.16h0l-.22.12h0l-.23.11h-.1l-.25.07h-2c-6.85.57-15.84-2.52-20.53.52a5.15,5.15,0,0,0-.45.32l-.13.13-.28.22-.15.17-.23.25-.15.18-.23.26-.14.2-.22.29-.12.2a3.45,3.45,0,0,0-.2.32l-.12.2-.2.33a1.47,1.47,0,0,1-.1.22l-.19.37-.09.19-.18.4v.19l-.19.44a.38.38,0,0,1,0,.15,1.91,1.91,0,0,1-.17.49v.12l-.18.52v.11a2.8,2.8,0,0,1-.17.57h0l-.17.58h0a2.72,2.72,0,0,1-.15.61h0a28.11,28.11,0,0,0-.93,7.64c.09.49.18,1.1.24,1.69h0a10.66,10.66,0,0,0,.13,1.08h0v1l.62-.43h0l.86-.56.24-.16.23-.15.31-.21.24-.16.43-.27.17-.11.66-.43h.1l.62-.38.18-.12.58-.37.21-.12c.22-.15.45-.29.68-.43h.1l.77-.55.17-.11.65-.39.26-.16.62-.36.26-.16L198,191c5-2.86,10.06-6.46,13.57-5.68l.71.16h0l.69.2h0l.7.23h0l.67.26h0l.64.29h0l.6.31h0l.55.33h0a4.17,4.17,0,0,1,.47.36h0a2.73,2.73,0,0,1,.43.47h0a.33.33,0,0,1,0,.14h0a.94.94,0,0,1,.11.36h0a.17.17,0,0,1,0,.1h0v.09h0v.21h0l-.09.09h0l-.12.1h0l-.25.13h0l-.23.11h-.11l-.24.09H216l-.39.12-.51.16h-.23l-.33.09-.28.08-.32.07-.37.11h-.26l-.52.15h-.12l-5.8,1.53h0l-.85.23h0l-.86.23h0l-.81.23h0l-.81.23h0A53.46,53.46,0,0,0,193.8,196c-3.44,2.1-4.49,5.42-3.74,9.36a23.35,23.35,0,0,0,3.05,7.39h0l.11.16h0l.11-.09h0l.21-.18.12-.12.19-.17.15-.14.26-.24h0l.14-.13.18-.16v-.08h0l.14-.11.11-.11h0l.29-.3.13-.12.3-.31h0v-.08l.13-.13.17-.17h0l.32-.34h0l.38-.41h0l.14-.15.2-.23h0l.21-.25h0l.1-.09h0l.36-.44.11-.14.34-.44.09-.13c.14-.16.24-.35.37-.52V207c.09-.13.16-.27.24-.41v-.12c.09-.17.15-.32.21-.46a12.66,12.66,0,0,1,7.14-6.64l.37-.15h.14l.26-.09H207l.26-.09h.18l.28-.08h.21l.28-.08h.21l.29-.07h.78l.32-.08h.25l.38-.08.44-.09h3.7a22.8,22.8,0,0,1,2.86-.12h1.15a1.9,1.9,0,0,1,1.3.57.62.62,0,0,1,0,.62,6.89,6.89,0,0,1-2.17,1.81l-.71.43h-.12l-1.62.87h-.12l-.89.46h0l-.9.44h0l-1,.47h0l-3.18,1.53-.67.32-.27.13-.83.39h-.14l-.7.34-.17.09-.73.37-.14.07-.63.33h-.09l-.59.33h-.13l-.53.32a38.22,38.22,0,0,0-5.86,4.74v.08l-.33.35-.11.11L197,214l-.14.14c0,.09-.15.2-.24.29l-.14.15c0,.09-.14.17-.2.24l-.15.2-.16.2-.15.23-.11.15-.21.34a25.58,25.58,0,0,0-3.06,5.63,5.73,5.73,0,0,0-.23.7v.14a2.07,2.07,0,0,1-.17.61c-.06.21,0,.08,0,.11s-.09.44-.13.67h0a14.94,14.94,0,0,0,1.77,8.62c1.53,3.31,5.81,10.43,5.81,10.43s.78-7.35,2.71-11.08,6.11-8.58,7.75-11.07,3.27-8.06,5.56-9.93,12-7.79,10.35-3.64c0,.19-.16.37-.27.57s0,0,0,.12-.23.38-.37.58v.09c-.14.19-.27.39-.43.57v.08a7.57,7.57,0,0,1-.55.61l-.1.14-.63.62h0l-.67.63-.11.11-.72.65-.11.1-.78.68h0c-3.37,2.92-7.35,6-8.45,8.46a40.43,40.43,0,0,1-3.18,5.38l-1.28,2-.1.14-.56.87h0l-.54.84-.1.18c-.17.28-.34.55-.49.83h0c-.16.24-.29.49-.42.73v.17c-.13.24-.26.5-.36.73a.33.33,0,0,0,0,.14c-.11.21-.19.43-.28.64a.21.21,0,0,1,0,.11c-.09.23-.15.44-.21.64v.14a4.34,4.34,0,0,0-.11.61c-.31,3.43-1.15,4.07-1.91,6.36s1.18,7.46,3,9.28l.24.25h0l.28.26h0a3,3,0,0,0,.32.3l.09.08.32.29h0l.39.32.1.09.35.31h0l.42.33.12.11.38.32h0l.55.45h0l3.6,2.89h0l.09.07h0l.09.09h0a71.25,71.25,0,0,0,2.17-12.64c.2-5.32,3.52-9.31,4.46-11.9a44.41,44.41,0,0,1,6.12-10.7l.6-.64.73-.78h0c1.53-1.65,3.18-3.06,6.12-2.16,3.82,1.2.87,4.59-2.5,8.4a122.82,122.82,0,0,0-11.6,17.32,15.44,15.44,0,0,0-1.27,3.06h0c-.18.6-.35,1.21-.49,1.82h0a61.62,61.62,0,0,0-1.25,8V257h0v.5h0v.2h0a73.48,73.48,0,0,0,8.53,7c3.27,2,7,2.77,5.73,1.09a17.35,17.35,0,0,1-2.34-6l-.23-1.16s.83-3.93,1.27-6.85h0c.09-.68.17-1.32.22-1.82A36.29,36.29,0,0,1,234,238.6c1.53-2.2,3.58-6.44,5.91-6.88h.79l.32.09h.09l.25.14h0l.24.2.11.09.15.17a.64.64,0,0,1,.13.15l.15.22.09.16.09.16c0,.12.11.24.17.38v.11a1.13,1.13,0,0,0,0,.26,5.75,5.75,0,0,1,.23,1.25h0a1.93,1.93,0,0,1,0,.34v1.36a.67.67,0,0,1,0,.2,5.05,5.05,0,0,1-.12.56c-.81,3.27-8.29,14.54-9,18.27a1.52,1.52,0,0,1-.11.69h0a43.92,43.92,0,0,0,0,9.17s7.55,3.06,10.46,3.29,6.53.21,6.53.21,3.05,1.34,2.9.17l-.21-1.16a39.56,39.56,0,0,1,4.48-4.2,3.32,3.32,0,0,0,1.08-1.38h0a2.46,2.46,0,0,0,.19-.58V262a4.43,4.43,0,0,0,0-1.26.24.24,0,0,1,0-.12,7.5,7.5,0,0,0-.33-1.34v-.14c-.09-.23-.16-.46-.27-.69h0c-.11-.24-.23-.47-.35-.7l-.09-.17c-.13-.25-.26-.47-.4-.7-1.73-2.8-4.59-10.42-2.8-12.24l.2-.13h.47l.17.07h0a.82.82,0,0,1,.22.16h0l.27.26h0l.23.24.09.14.2.24.11.16.21.29.09.15.23.35.09.14c.2.33.42.69.63,1.07a.64.64,0,0,1,.08.14c.09.13.17.29.26.44l.09.17.23.43.09.18.24.47v.13l.33.61h0c1.2,2.43,2.3,4.86,2.89,5.84a19.27,19.27,0,0,1,1.88,6.11l5.73-5.16a22.89,22.89,0,0,0-1.88-10c-2.34-6-11.28-14-13.94-16.58l-.51-.52h0a11,11,0,0,1-2.61-4.06h0a2.41,2.41,0,0,1,.56-2.63h0a3.1,3.1,0,0,1,1.09-.65l.36-.12h1.58l.27.09h.08a5.07,5.07,0,0,1,.72.4h.09l.26.2h.11l.26.2.11.09.26.23.09.09.27.28h0a18.5,18.5,0,0,1,1.44,1.62h0c1.41,1.72,2.77,3.7,4,5,3,3.05,6.95,7.57,8.25,10.7a53.24,53.24,0,0,1,2.59,11.42s2.29-3.52,3.8-6.11h0l.23-.4h0l.58-1.06h0l.11-.21V245a.89.89,0,0,1,.08-.17v-.09a.22.22,0,0,1,.07-.16h0a.54.54,0,0,0,0-.18,11.2,11.2,0,0,0,.49-2.49,4.6,4.6,0,0,0,1.81-4.42.88.88,0,0,0-.11-.5v-.17a4.84,4.84,0,0,0-.14-.51v-.12a5.83,5.83,0,0,0-.21-.69c-.08-.24,0-.14,0-.21a3.87,3.87,0,0,0-.22-.58.92.92,0,0,0-.09-.23c-.09-.26-.2-.52-.32-.8a1.28,1.28,0,0,0-.11-.24c-.05-.13-.1-.26-.16-.38h0a24.26,24.26,0,0,0-9.3-10.81c-7.31-4.38-15.14-7.65-14.88-10.14.08-.75.61-1.21,1.53-1.32H258l.43.1h.35l.52.13.32.09.78.28.36.12.68.28.31.12,1,.46.29.15.87.43.32.17,1.19.66.22.12,1.07.64.35.21,1.35.86q.75.51,1.53,1l.5.31,1,.58.61.35.83.48.69.38.69.38.76.4.55.29.86.43.39.2.94.45.24.13,1.07.5h0a33.19,33.19,0,0,1,5.92,3.06,17.17,17.17,0,0,0,4.1,2.58s.64-4.48.79-8.27h0A7.29,7.29,0,0,0,290,217.27Zm-56.37-22.44c-1,2.11-5.17,1.94-5.47.3s2.11-1.53,2.11-1.53,4.37-1,3.33,1.23Z" fill="#2f2e41" data-secondary="true"/>
<path d="M138.84,307.68h0V307h0v-1.18a.21.21,0,0,1,0-.11v-.46h0l.09-.33v-.1a1.88,1.88,0,0,1,.12-.3c1.15-2.19,11.28-10.12,19.65-11.18s18.47-2.51,16-4.87h0a3.79,3.79,0,0,0-.4-.3h0a4.53,4.53,0,0,0-.54-.27h0a3.09,3.09,0,0,0-.59-.18h-.11a4.53,4.53,0,0,0-.64-.13h-1q-.36,0-.72,0H168.5l-.78.11h-.29l-.78.14h-.31l-.76.14-.34.07-.75.17-.36.09-.69.17-.42.09-.62.17-.46.14-.57.15-.53.15-.43.13-.9.27a105.85,105.85,0,0,0-13.23,5.58c-2.11,1-5.1,2.88-5.1,2.88s-.75-10-.31-12.31,7.4-4.83,13.85-6,11.3,0,14.3-.66l.79-.17h0l.52-.09,1.82-.36h0c1.68-.4,2.43-.88-.35-1.72-4.31-1.28-11.42-4.31-16.82-3.65l-1.65.18h0c-5.17.57-11.25,1-11.25,1a45.09,45.09,0,0,1,5.73-8.78c.14-.15.28-.29.4-.44h0c2.72-3,3.79-4.29,7.34-3.61,3.22.61,10,3.9,13.5,5.07h0l.64.2h0l.55.14.64.12h0l.6.12.75.17h0l.69.12h0c.44,0,.88.16,1.27.19h1.16v-.17a.11.11,0,0,0,0-.08h0v-.09h0v-.29l-.11-.12v-.09l-.14-.17-.07-.08-.26-.26c-3.06-3-9.35-5.12-12.36-5.7s-3.74.73-2.23-.9,11.19-8.44,14-9.18,5.21-2.14,10.37-.19a7.39,7.39,0,0,1,.88.36l.29.14.55.26.34.18.44.25.37.23.38.24.37.25.32.21.38.29.17.14c.34.27.67.55,1,.84h0a8.5,8.5,0,0,1,3.06,4.92c0,1.7-2.33,8.49-2.57,12a13.62,13.62,0,0,0,1.19,1.92,1,1,0,0,0,.49.32,4.06,4.06,0,0,0,1.73-.17,6.35,6.35,0,0,0,1.07-3.88c.23-5,1-10.37,3.21-11.88s12.86-4.59,14.25-4.25,10.52,1.53,15.29,5.06l.81.64.21.22.48.46.21.26a3.7,3.7,0,0,1,.37.42l.2.26q.15.21.3.45l.16.24.24.45.12.22c0,.17.16.33.22.49v.17a1.77,1.77,0,0,0,.2.57v.07a10,10,0,0,1,.29,1.23h0v.49a.17.17,0,0,0,0,.1v1.12a.21.21,0,0,0,0,.11.24.24,0,0,1,0,.12v.12h0v.19l-.45-.14h0l-.94-.29h0l-.59-.17h-.12l-.64-.2h-.11l-.67-.2h-.11l-.56-.55h-.16l-.81-.23h-.16l-.88-.23h-.09l-.84-.21h-.14l-.88-.23h-.19l-.88-.22h-.17l-.9-.19h0l-.86-.17h-.14l-.82-.14h-.16l-.79-.11h-.12l-.77-.09H215.5l-.57.14h0l-.49.15h-.09l-.5.22h0a3.5,3.5,0,0,0-.42.24h0l-.42.29h0a4.12,4.12,0,0,0-.66.66h0a2.09,2.09,0,0,0-.35.7h0a1.23,1.23,0,0,0,0,.71h0a1.36,1.36,0,0,0,.43.65h0l.19.16h0l.22.13h0l.23.11h.12l.23.09h2c6.85.58,15.84-2.52,20.54.54l.44.3.14.13.27.24.15.15.25.25.15.18.22.28.13.18.22.29.12.2.21.32.11.2.2.35a1.28,1.28,0,0,0,.11.2l.18.38.09.18.19.42.07.17.19.44a.49.49,0,0,0,0,.17l.18.47v.14a1.86,1.86,0,0,0,.17.52v.11a2.47,2.47,0,0,0,.17.55v.07a2.23,2.23,0,0,0,.16.6h0a2.61,2.61,0,0,0,.16.61h0a27.79,27.79,0,0,1,.93,7.65c-.09.48-.17,1.1-.25,1.68h0c0,.38-.09.75-.12,1.08h0v1l-.62-.41h0l-.86-.57-.25-.17-.23-.15-.3-.2-.25-.15-.42-.27-.17-.11-.66-.43h-.09l-.63-.4-.18-.12-.57-.35-.23-.14-.67-.43h-.11l-.82-.5-.17-.11-.66-.38-.26-.17-.61-.35-.26-.15-.84-.49c-5-2.88-10.06-6.47-13.58-5.71l-.7.19h0l-.7.2h0l-.69.23h0l-.67.26h0l-.65.27h0l-.59.31h0l-.55.32h0a4.29,4.29,0,0,0-.48.36h0a2.46,2.46,0,0,0-.43.48h0v.12h0a1.26,1.26,0,0,0-.1.38h0a.21.21,0,0,0,0,.11h0v.09h0a.24.24,0,0,0,0,.12v.1h0l.09.07h0l.12.09h0l.23.14h0l.23.11h.11l.24.09h.11l.4.12.5.14H214l.34.09.27.08.32.09.39.09h.24l.52.14h.12l5.81,1.53h0l.84.23h0l.86.24h0l.83.23h0l.81.23h0a51.69,51.69,0,0,1,9.73,3.46c3.45,2.09,4.5,5.41,3.77,9.35a23.27,23.27,0,0,1-3.15,7.37h0a1.85,1.85,0,0,0-.13.19h0l-.09-.09h0l-.21-.2-.12-.11-.19-.17-.15-.15-.26-.23h0l-.14-.12-.18-.19h0l-.12-.12-.13-.11h0l-.29-.29-.13-.13-.29-.29h0l-.14-.14-.17-.19h0l-.32-.33h0l-.38-.42h0l-.14-.13-.2-.23h0l-.2-.25h0l-.09-.1h0l-.37-.45-.1-.13-.34-.45-.09-.12-.35-.52v-.11l-.25-.39v-.14a3.82,3.82,0,0,1-.21-.46,12.69,12.69,0,0,0-7.14-6.64l-.37-.13h-.12l-.26-.1h-.17l-.26-.07h-.2l-.27-.09H221l-.29-.08h-1.85l-.39-.08h-4.12a27.74,27.74,0,0,0-2.88-.12h-1.11c-.68.11-1.14.29-1.29.58a.53.53,0,0,0,0,.61,6.66,6.66,0,0,0,2.17,1.82l.71.43H212l1.62.89h.12l.89.44h0l.9.46h0l1,.47h0L219.7,296l.68.32.27.13.83.39h.13l.71.35h.17l.73.37.15.09.61.32h.1l.59.34h.14l.52.32a37.76,37.76,0,0,1,5.86,4.76h0l.35.36.09.11.3.32.13.14.24.28.14.16a2.43,2.43,0,0,1,.2.25l.15.18.15.22.17.21.09.15a4.14,4.14,0,0,1,.23.35,25.74,25.74,0,0,1,3.06,5.62c.09.22.17.45.25.7s0,.11,0,.15.12.4.16.6,0,0,0,.12a4,4,0,0,1,.14.67h0a14.94,14.94,0,0,1-1.24,8.64C234.27,325.89,230,333,230,333s-.78-7.34-2.7-11.07-6.12-8.59-7.76-11.07-3.27-8.05-5.56-9.93-12-7.79-10.35-3.64c0,.18.17.38.27.58a.2.2,0,0,1,0,.11l.37.58v.1l.43.55h0a8,8,0,0,0,.55.63l.12.12c.18.22.4.43.61.65h0l.68.64.1.09.72.67.11.09.78.68h0c3.38,2.93,7.35,6,8.45,8.47a42.71,42.71,0,0,0,3.18,5.38l1.29,1.94.09.14.57.87h0l.53.86.11.16.49.84h0l.39.75.1.16.36.75v.13c.11.22.2.43.28.63V324a6.37,6.37,0,0,1,.21.66v.13a4.34,4.34,0,0,1,.11.61c.31,3.41,1.15,4.06,1.91,6.36s-1.16,7.47-3,9.29l-.25.24h0l-.27.26h0l-.32.29-.09.08-.32.29h0l-.39.33-.1.1-.36.3h0l-.39.35-.14.11-.38.31h0l-.55.45h0c-1.53,1.23-2.94,2.39-3.6,2.89h-.09l-.09.08h0l-.09.08a70.72,70.72,0,0,1-2.17-12.66c-.19-5.32-3.52-9.31-4.47-11.9s-4.11-8.7-6.11-10.7l-.6-.64-.73-.8h0c-1.53-1.65-3.18-3.06-6.12-2.14-3.84,1.19-.89,4.59,2.49,8.4A125,125,0,0,1,210,334.05a17.08,17.08,0,0,1,1.25,3.15h0c.19.58.35,1.2.49,1.81h0a63.09,63.09,0,0,1,1.26,8h0v.21h0v.52h0v.19h0a74.7,74.7,0,0,1-8.54,7c-3.27,2-7,2.75-5.73,1.07a17.56,17.56,0,0,0,2.35-6l.22-1.15s-.83-3.94-1.26-6.86h0c-.1-.69-.18-1.32-.22-1.82a36,36,0,0,0-4.33-11.39c-1.53-2.2-3.58-6.44-5.9-6.88h-.8l-.32.09h-.09l-.25.12h0l-.24.19-.11.1-.15.16-.12.15-.16.21-.09.19-.09.15a2.39,2.39,0,0,0-.15.37v.12l-.09.24a6.91,6.91,0,0,0-.23,1.27h0v1.91a1.2,1.2,0,0,0,.12.57c.81,3.27,8.29,14.52,9,18.35a1.48,1.48,0,0,0,.11.67h0a45.33,45.33,0,0,1,0,9.17s-7.56,3.14-10.48,3.3-6.51.2-6.51.2-3.06,1.33-2.92.19l.21-1.16a39.73,39.73,0,0,0-4.48-4.22,3.31,3.31,0,0,1-1.08-1.37h0a2.79,2.79,0,0,1-.18-.58.17.17,0,0,1,0-.1,3.69,3.69,0,0,1,0-1.24v.73a6.71,6.71,0,0,1,.32-1.34v-.16l.27-.68h0l.35-.71.09-.17.4-.7c1.73-2.78,4.59-10.41,2.8-12.23a.9.9,0,0,0-.2-.14H174l-.16.08h-.09l-.21.15h0l-.28.28h0l-.23.26-.09.12-.2.26-.1.15a1.87,1.87,0,0,0-.2.29.72.72,0,0,0-.11.15l-.23.36-.09.12-.63,1.07V339l-.24.44a1.08,1.08,0,0,1-.11.18l-.23.43-.09.17c0,.17-.17.32-.24.47v.14l-.33.61h0c-1.2,2.42-2.3,4.86-2.88,5.83a19.29,19.29,0,0,0-1.89,6.11l-5.73-5.16a23,23,0,0,1,1.88-10c2.34-6.12,11.29-13.95,14-16.56l.5-.54h0A11.07,11.07,0,0,0,178.6,317h0a2.43,2.43,0,0,0-.56-2.63h0a3.55,3.55,0,0,0-1.09-.65l-.35-.1h-.12a1,1,0,0,0-.25,0H175l-.26.1h-.09a5.2,5.2,0,0,0-.72.42h-.09l-.26.18-.11.09-.26.2-.1.09-.25.23-.11.08-.27.29h0a17.85,17.85,0,0,0-1.42,1.6h0c-1.43,1.75-2.79,3.72-4,5-3,3.06-7,7.57-8.26,10.7a53.49,53.49,0,0,0-2.16,10.15s-2.31-3.51-3.82-6.11h0l-.23-.38h0c-.23-.4-.43-.75-.58-1.07h0l-.11-.23h0a.61.61,0,0,0,0-.19v-.23h0v-.18a14.06,14.06,0,0,1-.49-2.49,4.6,4.6,0,0,1-1.8-4.42.91.91,0,0,1,.11-.52v-.15l.13-.52v-.13a3.91,3.91,0,0,1,.22-.67v-.23c.07-.18.14-.36.21-.56l.09-.23c.1-.26.2-.54.33-.81l.1-.23c0-.14.11-.26.17-.4h0a24.44,24.44,0,0,1,9.3-10.79c7.3-4.39,15.13-7.65,14.87-10.16,0-.75-.61-1.19-1.53-1.31h-1.22l-.46.07-.43.08h-.35l-.52.15-.32.1-.78.26-.35.12-.69.27-.29.14-1,.44-.3.16L166,303l-.33.17-1.17.64-1.38.41-1.08.65-.36.21-1.34.86-1.53,1-.51.31-1,.58-.61.35-.83.48-.68.38-.69.37-.77.39-.55.29-.84.43-.41.22-.93.46-.25.1-1.07.51h0a34.51,34.51,0,0,0-5.92,3.05,17.5,17.5,0,0,1-4.09,2.6s-.63-4.49-.8-8.28h0C138.85,308.66,138.84,308.15,138.84,307.68Zm56.37-22.46c1,2.12,5.15,1.94,5.46.32s-2.1-1.53-2.1-1.53S194.18,283.11,195.21,285.22Z" fill="#2f2e41" data-secondary="true"/>
<path d="M180.29,400.75h0v-.52h0v-.55a2.16,2.16,0,0,1,0-.36v-.44h0a1.13,1.13,0,0,1,0-.26v-.08l.09-.24c.88-1.68,8.71-7.8,15.17-8.61s14.26-1.94,12.38-3.77h0a1.19,1.19,0,0,0-.31-.23h0l-.18-.4h0l-.47-.15h0a2.84,2.84,0,0,0-.49-.1h-.12a4.51,4.51,0,0,0-.52,0h-2.42l-.61.08h-.22l-.61.09h-.23l-.59.12h-.26l-.57.13H200l-.53.13-.31.08-.5.12-.36.11-.42.11-.42.12-.33.11-.71.2A82.24,82.24,0,0,0,186,391.08c-1.64.81-3.95,2.22-3.95,2.22a77.12,77.12,0,0,1-.23-9.49c.34-1.79,5.7-3.73,10.7-4.59s8.72,0,11-.51l.61-.12h0l.41-.07,1.41-.29h0c1.3-.31,1.86-.68-.28-1.32-3.33-1-8.82-3.33-13-2.83l-1.29.14h0c-4,.43-8.7.73-8.7.73a35.14,35.14,0,0,1,4.44-6.75l.32-.34h0c2.08-2.29,2.92-3.32,5.66-2.8,2.49.47,7.64,3.06,10.42,3.91h0l.51.16h0l.44.1.47.1h0l.48.09.56.12h0l.54.11h0a9.58,9.58,0,0,1,1,.15h.89v-.27h0v-.33l-.13-.12h0l-.2-.2c-2.34-2.29-7.21-4-9.54-4.4s-2.89.57-1.72-.69,8.65-6.53,10.7-7.05,4-1.65,8-.15l.69.28.23.1.41.22.28.13.34.2.29.17.29.18.29.2.23.17.3.22.13.1c.26.21.52.43.76.66h0a6.62,6.62,0,0,1,2.32,3.81c0,1.3-1.78,6.56-2,9.26a11.22,11.22,0,0,0,.91,1.53.85.85,0,0,0,.39.25,2.87,2.87,0,0,0,1.33-.13,4.84,4.84,0,0,0,.82-3.05c.19-3.86.78-8,2.48-9.18a39.27,39.27,0,0,1,11-3.28c1.07.19,8.12,1.16,11.86,3.91.22.17.43.34.61.5l.19.16.35.36.18.19.28.33.15.2.23.34.12.2.2.35a.48.48,0,0,1,0,.17c.06.12.12.24.17.36v.14c0,.15.11.29.15.45h0a6.14,6.14,0,0,1,.23.94h0v.46a1.4,1.4,0,0,1,0,.29v.09a.81.81,0,0,1,0,.22v.53h0a.33.33,0,0,1,0,.14l-.34-.11h0l-.73-.21h0l-.44-.12h-.09l-.51-.16h-.08l-.52-.15h0l-.59-.17h-.12l-.63-.16h-.12l-.68-.19h0l-.65-.17h-.11l-.69-.15h-.14l-.68-.15h-.13l-.7-.15h0l-.66-.14h-.1l-.65-.12h-.12l-.61-.1h-2.34l-.43.11h0l-.36.12h0l-.4.17h0l-.34.18h0l-.32.23h0a4.81,4.81,0,0,0-.5.51h0a1.59,1.59,0,0,0-.28.53h0a1,1,0,0,0,0,.55h0a1.27,1.27,0,0,0,.34.51h0l.17.11h0l.16.09h0l.17.07h1.79c5.29.45,12.23-1.95,15.86.4l.33.25.11.09a1,1,0,0,1,.21.2l.13.1.18.2.12.14.17.21.11.14.16.23.1.15.15.25.09.15a1.51,1.51,0,0,1,.15.28l.08.15a1.59,1.59,0,0,1,.15.29.38.38,0,0,1,0,.15,3,3,0,0,1,.16.31.33.33,0,0,0,0,.14l.13.35v.1l.14.39v.09l.14.41v.08a2.3,2.3,0,0,0,.12.43h0a.64.64,0,0,0,.12.45h0a.69.69,0,0,0,.13.49h0a21.88,21.88,0,0,1,.71,6,11.7,11.7,0,0,1-.19,1.28h0a2.23,2.23,0,0,1-.1.84h0v.75l-.48-.32h0l-.66-.44-.19-.13-.18-.12-.24-.15-.19-.12-.32-.22-.14-.07-.5-.34h-.08l-.47-.31-.15-.09-.45-.27-.17-.11-.52-.32h0l-.64-.4-.14-.07-.48-.31-.22-.12-.46-.28-.2-.12-.65-.38c-3.86-2.2-7.77-5-10.48-4.39l-.55.14h0l-.55.15h0l-.53.18h0l-.52.2h0l-.49.23h0l-.48.25h0l-.41.24h0l-.35.28h0a1.46,1.46,0,0,0-.34.36h0v.11h0a.75.75,0,0,0-.09.29h0v.08h0v.07h0v.1h.11l.18.1h.37l.3.11.4.11h.64l.25.07h.49l.4.11h.1l4.47,1.21h0l.65.18h0l.66.18h0l.64.17h0l.63.19h0a40,40,0,0,1,7.52,2.67,6.4,6.4,0,0,1,2.91,7.22,17.89,17.89,0,0,1-2.43,5.7h0a.42.42,0,0,0-.09.14h0l-.08-.08h0l-.15-.15-.11-.09-.14-.12-.12-.13-.18-.18h0l-.1-.09-.13-.14h0l-.09-.09-.1-.09h0l-.23-.23-.1-.09-.23-.23h0l-.11-.11-.14-.14h0l-.24-.26h0l-.29-.32h0l-.11-.12-.15-.18h0l-.17-.19h0v-.07h0l-.28-.34-.09-.11-.26-.33v-.11a3.51,3.51,0,0,1-.27-.4v-.08a2.2,2.2,0,0,1-.19-.3.21.21,0,0,0,0-.11c0-.12-.1-.24-.15-.35a9.75,9.75,0,0,0-5.52-5.12l-.27-.12h-.11l-.2-.08h-6a20.31,20.31,0,0,0-2.21-.09h-.88c-.5.07-.87.21-1,.44a.46.46,0,0,0,0,.48,5.38,5.38,0,0,0,1.67,1.4l.55.32h.09l1.25.68H238l.69.35h0l.71.33h0l.75.37h0l2.46,1.18.52.24.2.09.64.31h.1l.54.26h.14l.56.29h.13l.45.25h0l.48.26h.09l.41.24a30,30,0,0,1,4.59,3.67h0l.27.27.08.1.23.24.09.11.19.21.12.12a.75.75,0,0,0,.15.2l.11.14.12.17.12.17.08.1.17.28a19.35,19.35,0,0,1,2.34,4.34l.18.54v.12s.09.3.12.46v.17a4.36,4.36,0,0,1,.11.52h0a11.41,11.41,0,0,1-.95,6.66c-1.22,2.55-4.49,8.06-4.49,8.06a31.52,31.52,0,0,0-2.08-8.56,95.53,95.53,0,0,0-6-8.55c-1.32-1.91-2.54-6.22-4.3-7.64s-9.25-6-8-2.82l.21.45v.09l.29.44v.08a3.32,3.32,0,0,0,.32.42h0c.14.17.28.33.43.48l.09.11.48.49h0l.5.48.09.08.55.51.09.07a5.88,5.88,0,0,0,.6.52h0c2.6,2.26,5.67,4.59,6.53,6.55a32,32,0,0,0,2.44,4.15c.34.49.68,1,1,1.53l.08.11.42.67h0c.16.22.28.43.42.66l.09.12.36.65h0c.13.19.22.38.33.56v.12l.29.58v.11l.21.49v.08c0,.07.11.35.15.5s0,.08,0,.11v.47a15.42,15.42,0,0,0,1.53,4.91c.6,1.79-.9,5.76-2.28,7.17l-.19.18h0L245,427h0l-.24.23h0l-.26.23h0l-.32.64h-.08l-.28.24h0l-.32.26-.1.1-.29.24h0l-.43.35h0c-1.15.95-2.28,1.84-2.77,2.23h-.08a54.55,54.55,0,0,1-1.68-9.77c-.14-4.09-2.7-7.18-3.44-9.17a34,34,0,0,0-4.74-8.3l-.46-.51c-.18-.19-.36-.41-.56-.61h0a4.19,4.19,0,0,0-4.76-1.65c-3,.92-.67,3.58,1.93,6.48a96.85,96.85,0,0,1,9,13.37,13.14,13.14,0,0,1,1,2.43h0c.13.46.26.93.38,1.4h0a47,47,0,0,1,1,6.12v.18h0v.39h0V432h0a57.08,57.08,0,0,1-6.59,5.43c-2.52,1.53-5.4,2.12-4.42.82a13.26,13.26,0,0,0,1.8-4.66l.17-.89s-.63-3.06-1-5.29h0c0-.52-.14-1-.17-1.4a28,28,0,0,0-3.35-8.78c-1.16-1.71-2.77-5-4.59-5.32h-.55l-.24.08h-.08l-.18.09h0l-.18.15v.08l-.13.12-.09.12a.66.66,0,0,0-.12.17V413l-.14.29a.17.17,0,0,1,0,.1v.19a4.59,4.59,0,0,0-.17,1V416a2.16,2.16,0,0,0,.1.44c.62,2.52,6.39,11.22,6.95,14.1a1.14,1.14,0,0,0,.09.53h0a34.9,34.9,0,0,1,0,7.08,41.37,41.37,0,0,1-8.07,2.55c-2.25.13-5,.16-5,.16s-2.42,1-2.25.12l.17-.89a31.25,31.25,0,0,0-3.46-3.25,2.56,2.56,0,0,1-.84-1.06h0a2.25,2.25,0,0,1-.14-.44v.36a3.85,3.85,0,0,1,0-1v-.09a5.43,5.43,0,0,1,.25-1v-.11a3.39,3.39,0,0,1,.2-.53h0l.27-.55v-.13l.32-.55c1.33-2.15,3.56-8,2.16-9.41l-.15-.1h-.34l-.15.11h0l-.22.2h0a1.63,1.63,0,0,0-.17.2l-.07.09a1.56,1.56,0,0,0-.16.2l-.09.12-.15.22v.12l-.18.27v.1a7.07,7.07,0,0,0-.49.84v.09l-.2.35v.14l-.19.32v.14l-.18.36v.11l-.23.47h0c-.95,1.87-1.79,3.75-2.23,4.5a14.29,14.29,0,0,0-1.53,4.72l-4.43-4a17.62,17.62,0,0,1,1.53-7.64c1.8-4.59,8.71-10.7,10.7-12.78l.4-.42h0a8.54,8.54,0,0,0,2-3.05h0a1.91,1.91,0,0,0-.44-2h0a2.94,2.94,0,0,0-.84-.49,1.31,1.31,0,0,0-.28-.09H208.8l-.21.08h0a4.83,4.83,0,0,0-.55.3h0l-.2.14h-.09l-.19.17h-.09l-1.56.56h0l-.23.22h0c-.36.38-.73.81-1.1,1.25h0c-1.08,1.33-2.14,2.86-3.06,3.87a34.44,34.44,0,0,0-6.37,8.24,41.05,41.05,0,0,0-1.67,7.83s-1.77-2.71-2.95-4.72h0l-.17-.31h0c-.17-.31-.32-.58-.44-.83h0a.43.43,0,0,1,0-.16h0a.33.33,0,0,1,0-.14h0v-.12h0v-.14a9.84,9.84,0,0,1-.38-1.93,3.57,3.57,0,0,1-1.39-3.41l.09-.4v-.12a.63.63,0,0,1,.1-.4v-.09a2,2,0,0,1,.17-.52v-.17a1.26,1.26,0,0,1,.17-.44V414l.26-.63v-.18l.14-.29h0a18.72,18.72,0,0,1,7.17-8.35c5.64-3.38,11.7-5.93,11.5-7.83,0-.58-.49-.92-1.21-1h-1.9l-.41.11-.24.08-.62.19-.26.11-.53.22-.23.09-.78.35-.23.11-.67.33-.25.14-.91.5-.17.1-.83.49-.27.16c-.34.22-.69.43-1,.68l-1.17.73-.39.24-.75.45-.46.27-.64.37-.54.29-.52.29-.59.31-.43.23-.66.33-.31.16-.73.35-.18.09-.83.4h0a25,25,0,0,0-4.59,2.32,13.4,13.4,0,0,1-3.48,2s-.49-3.47-.61-6.39h0C180.3,401.5,180.29,401.11,180.29,400.75Zm43.53-17.34c.81,1.63,4,1.53,4.22.24s-1.62-1.24-1.62-1.24S223,381.77,223.82,383.41Z" fill="#2f2e41" data-secondary="true"/>
<rect x="198.27" y="295.08" width="3.94" height="314.97" fill="#2f2e41" data-secondary="true"/>
<rect x="233.94" y="203.34" width="3.94" height="406.7" fill="#2f2e41" data-secondary="true"/>
<rect x="212.61" y="388.06" width="3.94" height="221.99" fill="#2f2e41" data-secondary="true"/>
<path d="M717.12,355.48v-.69h0v-.7a3.53,3.53,0,0,0,0-.46v-.11a4.2,4.2,0,0,0-.08-.47h0a1.71,1.71,0,0,0,0-.32.21.21,0,0,0,0-.11,1.57,1.57,0,0,0-.12-.3c-1.13-2.19-11.27-10.11-19.63-11.16s-18.49-2.51-16.06-4.88h0l.4-.31h0a5.6,5.6,0,0,1,.55-.27h0l.6-.2h.09l.66-.11h2.92l.78.08h.26l.78.1h.29l.78.14h.3l.77.16.33.07.74.17.37.08.7.16.4.11.64.17.46.12.55.16.55.16.41.13.92.26a105.92,105.92,0,0,1,13.32,5.64c2.1,1,5.09,2.89,5.09,2.89s.76-10,.32-12.23-7.4-4.85-13.87-6-11.28,0-14.28-.66l-.8-.15h0l-.52-.09c-.65-.12-1.28-.25-1.83-.38h0c-1.68-.4-2.42-.86.37-1.7,4.31-1.3,11.42-4.33,16.82-3.67l1.65.2h0c5.15.55,11.25,1,11.25,1a45.72,45.72,0,0,0-5.73-8.76l-.42-.44h0c-2.7-3-3.79-4.28-7.32-3.61-3.24.61-10,3.9-13.5,5.08H687c-.23.07-.44.15-.64.19h0l-.57.14-.62.12H685l-.6.13-.74.15h0l-.69.14h0c-.46.09-.89.15-1.27.2H680.5v-.25h0V315l.08-.09.09-.12.07-.1.16-.16h0l.26-.26c3.06-3,9.35-5.14,12.37-5.71s3.74.74,2.23-.9-11.21-8.44-14-9.17-5.19-2.14-10.35-.2l-.88.35-.29.14-.55.27-.36.19-.44.24-.37.21-.36.25-.39.26-.3.21-.4.29a.64.64,0,0,1-.15.13l-1,.85h0a8.54,8.54,0,0,0-3.05,4.93c0,1.69,2.32,8.48,2.57,12a15.68,15.68,0,0,1-1.18,1.92,1.33,1.33,0,0,1-.49.33,4.41,4.41,0,0,1-1.73-.17,6.4,6.4,0,0,1-1.08-3.89c-.22-5-1-10.36-3.2-11.88s-12.87-4.58-14.25-4.26-10.52,1.53-15.37,5.07c-.29.22-.56.43-.81.65l-.23.21c-.15.15-.32.31-.45.46l-.23.24-.37.45-.18.26-.31.43c0,.09-.11.16-.15.24s-.19.31-.26.46l-.11.23a4.84,4.84,0,0,0-.21.47.64.64,0,0,0-.08.19c-.08.18-.14.38-.2.56h0a10.54,10.54,0,0,0-.27,1.24h0v.49a.2.2,0,0,0,0,.11,2.16,2.16,0,0,0,0,.36v.74a.24.24,0,0,0,0,.12v.24h0v.19l.44-.14h0l.93-.29h0l.58-.17h.12l.65-.2h.09l.69-.18h.09l.78-.23h.15l.81-.23h.17l.86-.23h.09l.85-.21h.14l.89-.22h.18l.89-.2h.15l.92-.2h0l.87-.16h.12l.84-.14h.16l.79-.12h.11l.78-.09h2.08a3.65,3.65,0,0,1,.55.13h.09l.47.16h.11l.49.21h.08l.42.23h0a4.43,4.43,0,0,1,.42.29h0a3.13,3.13,0,0,1,.65.66h0a1.9,1.9,0,0,1,.37.72h0a1.38,1.38,0,0,1,0,.7h0a1.42,1.42,0,0,1-.44.64h0l-.2.15h0l-.21.13h-.08l-.23.1h-.11l-.23.1h-2c-6.85.58-15.84-2.53-20.55.51l-.43.33-.13.12-.28.24a.75.75,0,0,0-.15.16,1.88,1.88,0,0,0-.25.24l-.15.18a2.39,2.39,0,0,0-.21.26,1.56,1.56,0,0,1-.16.2c0,.09-.13.19-.2.29l-.13.2-.2.32a2,2,0,0,0-.11.2,4,4,0,0,0-.2.35.75.75,0,0,0-.1.2l-.19.37-.09.2c0,.14-.14.27-.18.41a.53.53,0,0,0-.08.17l-.18.44a.43.43,0,0,0,0,.16l-.19.48v.14a5.16,5.16,0,0,0-.16.52v.11a1.94,1.94,0,0,1-.17.55v.08a3.18,3.18,0,0,1-.17.58h0a3.39,3.39,0,0,1-.15.61h0a28.52,28.52,0,0,0-.94,7.64c.11.49.19,1.09.26,1.67h0a10.53,10.53,0,0,0,.13,1.09h0v1l.62-.42h0l.86-.57.24-.15.23-.16.32-.19.23-.16.43-.29.17-.11.67-.41.09-.07.62-.39.19-.12.57-.35.21-.14.69-.43h.11l.81-.5.18-.11.68-.35.27-.15.6-.35.26-.16.85-.5c5-2.86,10.06-6.47,13.57-5.69.23,0,.47.11.7.18h0l.7.22h0l.69.23H641l.67.26h0l.64.29h0c.22.09.41.2.61.3h0l.54.34h0a4.52,4.52,0,0,1,.47.37h0a2.1,2.1,0,0,1,.43.46h0v.13h0a.7.7,0,0,1,.11.37v.28h0V327l.21.24h0l-.08.09h-.07l-.12.1h-.08l-.23.13H644l-.21.11h-.11l-.24.09h-.12l-.4.14-.51.14h-.21l-.35.09h-.26l-.32.09-.39.09-.26.08-.5.14H640l-5.79,1.53h0l-.84.24h0l-.84.23h0l-.83.23h0l-.83.23h0a52.16,52.16,0,0,0-9.75,3.47c-3.44,2.08-4.5,5.41-3.75,9.34a23.25,23.25,0,0,0,2.85,7.91h0a1.67,1.67,0,0,0,.12.16h0V352h0l.11-.09h.07l.22-.2.12-.12.18-.17.16-.14.24-.23h0l.12-.12.19-.17h.07l.13-.12.1-.11h0l.31-.3.12-.13.31-.29h0l.13-.15a.69.69,0,0,0,.17-.17h0l.32-.33h0l.37-.4h0l.12-.15.22-.23h0l.21-.25v-.17h0l.37-.44.1-.14.34-.43.09-.13.35-.52v-.09a2.46,2.46,0,0,0,.23-.42.24.24,0,0,0,0-.12,2.67,2.67,0,0,0,.2-.46,12.74,12.74,0,0,1,7.16-6.63l.35-.16h.14l.26-.09h.17l.26-.09h1.17l.29-.08h1.33l.4-.07L638,338h3.69a21.14,21.14,0,0,1,2.87-.13h1.12c.66.11,1.13.29,1.28.57a.6.6,0,0,1,0,.63,6.65,6.65,0,0,1-2.17,1.8c-.23.15-.47.29-.72.43l-.12.07c-.49.29-1,.59-1.62.88h-.11l-.88.45h-.08l-.9.45h0l-1,.46h-.08l-3.18,1.53-.67.32-.27.13-.81.39h-.14l-.71.33-.16.09-.74.37-.15.08-.61.32h-.09l-.62.34-.12.07-.52.32a37.26,37.26,0,0,0-5.87,4.76h0l-.35.35-.11.11c-.09.12-.2.21-.29.32l-.12.14-.24.29-.14.16a1.57,1.57,0,0,0-.2.25l-.15.18-.16.2-.17.23-.1.15c-.08.13-.16.23-.22.35A25.07,25.07,0,0,0,619.3,361a7.21,7.21,0,0,0-.25.7v.14a3.86,3.86,0,0,1-.15.61c0,.21,0,.07,0,.11l-.14.67h0a14.79,14.79,0,0,0,1.24,8.62c1.53,3.3,5.81,10.43,5.81,10.43s.76-7.36,2.71-11.07,6.11-8.59,7.75-11.07,3.27-8.07,5.55-9.94,12-7.78,10.35-3.64a3,3,0,0,1-.28.57.24.24,0,0,1,0,.12,5.65,5.65,0,0,1-.36.58l-.08.11c-.13.19-.28.37-.43.55v.08l-.53.61-.13.13-.61.63h0l-.65.63-.11.11c-.25.21-.48.44-.74.65l-.09.09-.78.69h0c-3.38,2.92-7.35,6-8.45,8.47a40.9,40.9,0,0,1-3.2,5.37c-.41.66-.85,1.3-1.28,2l-.08.13c-.2.3-.38.59-.56.88h0l.15-.36-.11.17-.49.83v.07c-.14.25-.27.51-.41.74a.48.48,0,0,1,0,.17,7.45,7.45,0,0,0-.37.75v.12l-.26.64v.11c-.07.23-.14.44-.2.65v.14a3.13,3.13,0,0,0-.1.6c-.32,3.42-1.17,4.07-1.93,6.36s1.18,7.46,3,9.3l.24.22v.08l.29.26h0l.32.29.09.08.34.29h0l.37.32.1.09.37.31h0l.4.33.14.13.36.3h0l.54.44h0l3.58,2.89h.07l.08.08h0l.11.08h.09a69.41,69.41,0,0,0,2.15-12.65c.2-5.32,3.54-9.31,4.48-11.89a44,44,0,0,1,6.12-10.7c.21-.2.41-.43.61-.65l.72-.78h0c1.53-1.65,3.2-3.05,6.12-2.15,3.82,1.21.87,4.58-2.5,8.39a125.76,125.76,0,0,0-11.6,17.32,17.12,17.12,0,0,0-1.26,3.15h0c-.16.6-.33,1.21-.48,1.82h0a58.66,58.66,0,0,0-1.27,8v.24h0V396h0v.2h0a73.74,73.74,0,0,0,8.53,7c3.25,2,7,2.75,5.72,1.07a17.54,17.54,0,0,1-2.34-6l-.22-1.16s.83-3.93,1.26-6.85h0c.1-.67.18-1.3.21-1.82a36.26,36.26,0,0,1,4.33-11.37c1.53-2.21,3.59-6.44,5.9-6.89h.79l.33.1h.09l.24.12h0l.26.2.09.09.17.17.12.15.14.21.11.17a.8.8,0,0,0,.08.16,2.54,2.54,0,0,1,.16.38V372a1.13,1.13,0,0,1,.08.24,5.56,5.56,0,0,1,.23,1.27v.37a.67.67,0,0,1,0,.2v.29a1.31,1.31,0,0,1,0,.28v.59a.67.67,0,0,0,0,.2,2.75,2.75,0,0,1-.12.57c-.83,3.28-8.29,14.54-9,18.27a5.58,5.58,0,0,1-.13.69h0a45.33,45.33,0,0,0,0,9.17s7.56,3.13,10.48,3.3,6.51.2,6.51.2,3.06,1.33,2.92.17l-.23-1.16a42.63,42.63,0,0,1,4.5-4.21,3.53,3.53,0,0,0,1.08-1.37h0a4.23,4.23,0,0,0,.19-.57v-.11a4.36,4.36,0,0,0,0-1.25v-.11a6.69,6.69,0,0,0-.31-1.34v-.16a5.72,5.72,0,0,0-.28-.68h0c-.1-.23-.21-.48-.33-.71l-.09-.17c-.14-.23-.26-.47-.42-.7-1.72-2.8-4.58-10.41-2.78-12.23a.9.9,0,0,1,.2-.14h.47l.17.08h.09l.2.15h0l.28.26h.07l.22.26.11.12.19.26.11.14c0,.11.14.2.2.29a.83.83,0,0,0,.11.15l.23.36.07.13c.22.34.43.69.64,1.07l.08.14.25.44.09.17.23.45.09.16.26.48v.12l.3.61h0c1.23,2.43,2.33,4.88,2.89,5.84a18.59,18.59,0,0,1,1.88,6.12l5.75-5.17a22.77,22.77,0,0,0-1.88-10c-2.35-6-11.28-13.94-13.94-16.57-.17-.17-.35-.34-.52-.52h0a11.05,11.05,0,0,1-2.62-4.05h0a2.39,2.39,0,0,1,.59-2.63h0a3.65,3.65,0,0,1,1.07-.65l.36-.1h1.59l.26.1h.09c.25.12.49.26.72.4h.1l.26.2h.1l.25.22h.1l.26.24.1.08.29.27h0c.47.49.94,1,1.42,1.62h0c1.42,1.73,2.77,3.72,4,5,3,3.06,7,7.57,8.28,10.7a54.19,54.19,0,0,1,2.15,10.16s2.3-3.52,3.82-6.12h0l.23-.4h0l.58-1.07v-.07a.91.91,0,0,0,.11-.22v-.09a.49.49,0,0,0,0-.17v-.24h0v-.17a13.42,13.42,0,0,0,.49-2.51,4.6,4.6,0,0,0,1.81-4.42,2.18,2.18,0,0,0-.13-.5c0-.18,0-.11,0-.17s-.09-.32-.13-.5v-.13a2.38,2.38,0,0,0-.22-.67,1,1,0,0,0-.08-.23,1.77,1.77,0,0,0-.19-.56l-.1-.25-.32-.79a1.86,1.86,0,0,1-.1-.25c0-.12-.11-.24-.17-.38h0a24.11,24.11,0,0,0-9.28-10.79c-7.31-4.39-15.14-7.65-14.89-10.16,0-.75.62-1.19,1.52-1.31h2.19l.43.09.33.08.54.13.32.1.78.27.34.12.7.28.29.12,1,.46.31.15.87.43.32.17,1.18.66.21.12,1.09.64.35.21c.43.28.88.55,1.33.86l1.53,1,.5.31,1,.6.61.35.81.46.7.39.68.37.76.4.57.29.84.43.4.2.94.45.25.13,1.07.5h0a33.28,33.28,0,0,1,5.93,3.06,17.91,17.91,0,0,0,4.08,2.58s.65-4.48.8-8.27h0ZM660.75,333c-1,2.13-5.16,1.94-5.46.32s2.09-1.6,2.09-1.6,4.41-.83,3.37,1.28Z" fill="#2f2e41" data-secondary="true"/>
<path d="M635.75,466.65v-.73h0v-1.29a3.38,3.38,0,0,1,0-.45h0a1.93,1.93,0,0,1,0-.34v-.09a.91.91,0,0,1,.12-.31c1.13-2.18,11.27-10.1,19.63-11.18s18.49-2.49,16.06-4.87h0a3.69,3.69,0,0,0-.4-.29h0a3.17,3.17,0,0,0-.55-.28h0a3,3,0,0,0-.58-.18h-.11l-.66-.12h-4l-.78.1h-.29l-.76.14h-.32l-.77.15h-.33l-.74.17-.37.09-.7.17-.4.11-.64.15-.46.14-.55.15-.55.16-.41.12-.92.27a105.47,105.47,0,0,0-13.18,5.74c-2.11,1-5.09,2.87-5.09,2.87s-.76-10-.32-12.31,7.4-4.83,13.87-6,11.28,0,14.28-.65l.79-.17h0l.52-.09,1.94-.46h0c1.69-.4,2.42-.87-.36-1.71-4.31-1.29-11.42-4.32-16.82-3.66l-1.67.18h0c-5.15.57-11.25,1-11.25,1a45.72,45.72,0,0,1,5.73-8.76l.42-.43h0c2.7-3,3.79-4.3,7.32-3.63,3.24.62,10,3.9,13.5,5.08h.08l.64.2h0l.56.14.63.12H668l.59.12.75.17h0l.69.12h0c.46.08.89.16,1.27.19h1.24v-.25h0v-.09h0v-.18l-.08-.11-.09-.12-.08-.09-.09-.49h0l-.26-.28c-3.06-3-9.35-5.12-12.37-5.7s-3.74.73-2.23-.9,11.21-8.44,14-9.18,5.19-2.14,10.35-.2c.3.11.59.23.88.37l.29.14.55.26.36.18.44.26.37.22.36.24.39.24.3.23.4.28.15.14c.35.27.69.55,1,.84h0a8.49,8.49,0,0,1,3.05,4.92c0,1.7-2.32,8.5-2.56,12a13.05,13.05,0,0,0,1.17,1.93,1.08,1.08,0,0,0,.49.32,4.06,4.06,0,0,0,1.73-.17,6.35,6.35,0,0,0,1.08-3.88c.22-5,1-10.37,3.2-11.87s12.87-4.58,14.27-4.26,10.5,1.53,15.29,5.06a8.35,8.35,0,0,1,.81.66l.22.21a4.83,4.83,0,0,1,.46.44l.23.26.37.43.18.26a4.5,4.5,0,0,1,.31.45,2.42,2.42,0,0,1,.15.24c0,.09.19.31.26.46l.11.21a5.16,5.16,0,0,1,.21.49,1.3,1.3,0,0,1,.08.17c.08.2.14.38.2.57v.07a10,10,0,0,1,.27,1.23h0V423a.2.2,0,0,1,0,.11,2.29,2.29,0,0,1,0,.37v.75a.24.24,0,0,1,0,.12v.24h0v.17l-.44-.13h0l-.93-.3h0l-.58-.18h-.11l-.66-.18h-.09l-.69-.2h-.09l-.78-.21h-.15l-.81-.22h-.17l-.86-.23h-.09l-.86-.21h-.13l-.89-.22h-.18l-.89-.21h-.15l-.92-.2h0l-.87-.17h-.12l-.84-.15h-.16l-.79-.11h-.11l-.78-.09h-1.39l-.55.08h-.14l-.55.13h-.09l-.47.17h-.11l-.49.22h-.08l-.43.24h0a3.81,3.81,0,0,0-.41.29h0a4.12,4.12,0,0,0-.66.66h0a2,2,0,0,0-.36.7h0a1.42,1.42,0,0,0,0,.71h0a1.45,1.45,0,0,0,.44.65h0l.2.16h0l.21.13h.08a.7.7,0,0,0,.23.11h.11l.23.09h2c6.85.58,15.84-2.52,20.55.54a4.15,4.15,0,0,1,.43.3l.13.13a2.09,2.09,0,0,1,.28.24l.15.15.25.26.15.17.21.28.16.18c0,.11.13.2.19.29l.14.2.2.32.11.2.2.35a1.24,1.24,0,0,1,.1.2l.2.38.08.19c0,.13.14.27.18.41l.08.17.18.46a.38.38,0,0,1,0,.15l.19.47v.14a4.48,4.48,0,0,1,.16.52v.11a2,2,0,0,0,.17.55v.07a2.7,2.7,0,0,0,.17.6h0a3.83,3.83,0,0,0,.15.63h0a29.1,29.1,0,0,1,.94,7.72c-.1.49-.19,1.1-.26,1.68h0c0,.38-.1.76-.13,1.09h0v1l-.62-.41h0l-.86-.57L736,445l-.23-.14-.32-.21-.23-.15-.43-.28-.17-.1-.67-.43h-.1l-.61-.4-.2-.11-.56-.36-.22-.14-.68-.41-.11-.08-.81-.51-.34.26-.64-.38-.27-.17-.6-.35-.26-.15-.86-.49c-5-2.87-10.06-6.47-13.56-5.69l-.7.17h0l-.71.2h0l-.68.23h-.08l-.67.26h0l-.64.27h0l-.62.31h0a6,6,0,0,0-.53.34h0c-.17.12-.34.24-.48.36h0a2.41,2.41,0,0,0-.42.48h0v.12h0a.87.87,0,0,0-.11.38h0v.25h0v.12l.08.09v.08l.07.07h.08l.12.09h.08l.23.13h.07l.22.09h.1l.25.09h.12l.4.12.5.14H711l.35.09.26.08.32.09.38.11h.26l.51.13h.13l5.8,1.53h0l.86.23h0l.84.25h0l.81.23h0l.82.23h0a51.94,51.94,0,0,1,9.76,3.45c3.44,2.1,4.49,5.41,3.74,9.36a23.32,23.32,0,0,1-3.13,7.37h0l-.11.18h0l-.11-.09h0l-.21-.2-.12-.11-.19-.16-.15-.16-.24-.23h0l-.13-.12-.18-.18h-.07l-.13-.12L731,461h0l-.31-.29-.12-.14-.29-.29h0l-.14-.14-.17-.18h0l-.32-.34h0l-.37-.41h0l-.12-.14-.21-.23h0l-.22-.24h0v-.11h0l-.36-.44-.11-.14-.34-.44-.09-.12-.35-.52v-.11a3.18,3.18,0,0,1-.23-.4l-.08-.14a3.19,3.19,0,0,1-.2-.46,12.76,12.76,0,0,0-7.15-6.63l-.35-.14h-.14l-.26-.09h-.17l-.26-.08h-.2l-.26-.09h-.21l-.28-.08h-.75l-.3-.07h-.8l-.39-.08h-4.13a27.74,27.74,0,0,0-2.88-.12h-1.16c-.66.09-1.13.27-1.28.57a.56.56,0,0,0,0,.61,7.06,7.06,0,0,0,2.17,1.82l.72.42H709c.49.3,1,.59,1.62.89h.11l.88.44h.08l.9.45h0l1,.47h.08l3.18,1.53.67.32.28.12.81.4h.13l.71.35h.16l.74.37.15.09.61.32h.09l.62.34.12.08.52.32a37.77,37.77,0,0,1,5.87,4.75h0l.35.37.11.11.29.32.12.13.25.28.13.17.22.24.14.19.15.21.17.23.1.14.22.35a25.44,25.44,0,0,1,3.06,5.61c.09.23.16.47.24.7v.16a3.19,3.19,0,0,0,.15.59v.13l.14.67h0a14.86,14.86,0,0,1-1.24,8.64c-1.53,3.3-5.81,10.41-5.81,10.41s-.76-7.34-2.7-11.07-6.12-8.59-7.76-11.07-3.27-8.06-5.55-9.94-12-7.78-10.35-3.64a3.88,3.88,0,0,0,.28.58v.13a6.65,6.65,0,0,0,.36.56l.08.11c.13.19.28.37.43.55a.11.11,0,0,0,0,.08c.17.21.35.41.53.62l.13.12.61.65h0l.66.64.1.09.74.67.09.09.78.68h0c3.38,2.93,7.35,6,8.45,8.47a41.68,41.68,0,0,0,3.2,5.38l1.28,1.94.08.14c.2.29.38.58.57.87h0c.18.28.35.57.52.84l.1.19c.17.27.34.55.49.82h0l.41.75V482c.14.26.26.51.37.75v.14c.09.21.18.43.26.64v.09a5.53,5.53,0,0,1,.2.66.33.33,0,0,1,0,.14,3.12,3.12,0,0,1,.11.61c.32,3.41,1.16,4.05,1.92,6.36s-1.17,7.46-3,9.28l-.25.25h0l-.29.26h0l-.32.29-.09.07-.34.29h0l-.36.34-.11.09-.37.31h0l-.4.35-.13.11-.37.32h0l-.53.46h0l-3.6,2.89h-.15l-.11.07H713a70.4,70.4,0,0,1-2.16-12.66c-.19-5.32-3.53-9.31-4.48-11.88a43.35,43.35,0,0,0-6.11-10.7l-.61-.64-.72-.8h0c-1.53-1.65-3.2-3.06-6.12-2.14-3.82,1.19-.87,4.59,2.5,8.4a125.16,125.16,0,0,1,11.6,17.32,16,16,0,0,1,1.25,3.06h0c.17.58.34,1.19.49,1.82h0a58.28,58.28,0,0,1,1.27,8v.25h0v.5h0v.4h0a71.75,71.75,0,0,1-8.53,7c-3.26,2-7,2.76-5.72,1.07a17.27,17.27,0,0,0,2.34-6l.22-1.14s-.83-3.95-1.26-6.87h0c-.11-.69-.18-1.31-.21-1.82a36.46,36.46,0,0,0-4.33-11.39c-1.53-2.2-3.59-6.44-5.9-6.88h-.8l-.32.11h-.09l-.24.12h0a.86.86,0,0,0-.26.2l-.1.09a1.22,1.22,0,0,0-.15.17l-.14.14-.13.21a1.74,1.74,0,0,0-.11.18l-.08.16c-.06.12-.12.24-.17.36v.13a2.17,2.17,0,0,0-.07.24,5.46,5.46,0,0,0-.23,1.27v.37a.67.67,0,0,0,0,.2v.29a1.22,1.22,0,0,0,0,.27v.61a.67.67,0,0,1,0,.2,3.06,3.06,0,0,0,.12.57c.83,3.27,8.29,14.52,9,18.27,0,.21.09.44.12.69h0a45.33,45.33,0,0,1,0,9.17s-7.55,3.14-10.47,3.3-6.51.22-6.51.22-3.06,1.31-2.92.17l.23-1.17a43.8,43.8,0,0,0-4.5-4.22,3.34,3.34,0,0,1-1.08-1.36h0a3.93,3.93,0,0,1-.19-.58.2.2,0,0,0,0-.11,4.22,4.22,0,0,1,0-1.23v-.13a7,7,0,0,1,.31-1.34.38.38,0,0,0,0-.15,6.11,6.11,0,0,1,.27-.69h0l.34-.71.09-.16c.14-.23.26-.46.41-.71,1.73-2.78,4.59-10.39,2.79-12.23a.9.9,0,0,0-.2-.14H671l-.16.08h-.1l-.19.15h0l-.28.28h-.08a1.71,1.71,0,0,1-.21.26.32.32,0,0,1-.11.12l-.2.26a.78.78,0,0,1-.1.15c0,.09-.14.19-.2.29a.91.91,0,0,0-.11.16l-.23.35-.07.12c-.22.34-.43.7-.65,1.07l-.07.14-.25.44-.09.19-.23.42-.09.17-.26.49v.12l-.31.61h0c-1.22,2.42-2.32,4.87-2.89,5.83a19.08,19.08,0,0,0-1.88,6.12l-5.75-5.17a22.92,22.92,0,0,1,1.89-10c2.35-6.12,11.28-13.94,13.94-16.56l.52-.53h0a11.11,11.11,0,0,0,2.61-4.07h0a2.38,2.38,0,0,0-.58-2.63h0a3.76,3.76,0,0,0-1.07-.64l-.36-.11h-1.59l-.26.11h-.1a7.24,7.24,0,0,0-.71.41h-.1l-.26.18-.1.09-.25.2-.11.1-.26.22-.09.1-.29.27h0c-.47.49-.94,1-1.42,1.61h0c-1.42,1.74-2.77,3.71-4,5-3,3.06-7,7.57-8.27,10.7a54.19,54.19,0,0,0-2.15,10.16s-2.3-3.52-3.83-6.12h0l-.21-.38h0l-.58-1.07h0a2.4,2.4,0,0,1-.11-.23h0v-.41h0a.61.61,0,0,0,0-.19,14.06,14.06,0,0,1-.49-2.49,4.59,4.59,0,0,1-1.8-4.42,3.16,3.16,0,0,1,.12-.52c0-.18,0-.11,0-.15l.14-.51v-.13a2.65,2.65,0,0,1,.21-.68.9.9,0,0,1,.08-.21,1.67,1.67,0,0,1,.2-.58l.09-.23.32-.81a1.63,1.63,0,0,0,.11-.23.81.81,0,0,1,.17-.38h0a24.18,24.18,0,0,1,9.28-10.8c7.31-4.37,15.13-7.64,14.89-10.15,0-.75-.63-1.19-1.53-1.31h-1.7l-.43.07H668l-.54.16-.32.09-.78.26-.33.13-.71.28-.29.12-1,.46-.3.14-.87.44-.33.17-1.17.64-.22.12-1.07.65-.36.23-1.33.84-1.53,1-.51.3-1,.58-.61.35-.81.48-.7.38-.67.37-.77.41-.55.28-2,.81-.4.21-1,.46-.24.11-1.07.52h0a34.6,34.6,0,0,0-5.93,3.05,17.5,17.5,0,0,1-4.09,2.6s-.64-4.49-.79-8.28h0C635.75,467.63,635.75,467.13,635.75,466.65Zm56.31-22.44c1,2.11,5.15,1.92,5.46.3s-2.1-1.53-2.1-1.53S691.08,442.08,692.06,444.21Z" fill="#2f2e41" data-secondary="true"/>
<path d="M567.28,556.19h0c-.08-.23-.14-.48-.2-.69h0a2.62,2.62,0,0,0-.17-.64v-.11a2.84,2.84,0,0,0-.1-.49v-.11a1,1,0,0,0-.08-.48h0a2.28,2.28,0,0,1,0-.37v-.11a2,2,0,0,1,0-.35c.49-2.58,8.46-13.76,16.71-17.46s18.18-8.24,14.95-9.94h0a2.3,2.3,0,0,0-.5-.18h0a3.44,3.44,0,0,0-.64-.12h-.84l-.71.07h-.15l-.72.15h-.18l-.75.22-.21.07-.77.26-.23.1-.78.32-.24.1-.78.36-.28.12-.75.38-.3.15-.74.39-.32.18-.72.4-.35.2-.66.38-.38.23-.61.36-.43.28-.52.32-.5.34-.4.24-.86.57a115.59,115.59,0,0,0-11.91,9.86c-1.85,1.71-4.35,4.59-4.35,4.59s-3.83-10-4.09-12.51,6.12-7.23,12.37-10.43,11.56-3.48,14.44-5l.78-.42h0l.5-.26c.63-.32,1.26-.64,1.76-.93h0c1.6-.93,2.23-1.64-.89-1.64-4.81,0-13-.93-18.34,1.4l-1.64.7h0c-5.12,2.16-11.24,4.43-11.24,4.43a48.13,48.13,0,0,1,3.2-10.7l.27-.58h0c1.87-3.87,2.57-5.55,6.41-5.95,3.5-.36,11.44.93,15.4,1.07h3.6l.74-.07h0a7.65,7.65,0,0,0,1.36-.2h0l.52-.13h0a1.61,1.61,0,0,0,.36-.15h.11v-.07h0v-.08h0m0-.08h0a.09.09,0,0,0,0-.07h0V504h0v-.09h-.15l-.11-.07-.09-.08-.14-.09-.1-.08-.2-.12h-.09l-.36-.18c-4-2.13-11.16-2.4-14.41-2.07s-3.61,1.9-2.57-.23,8.9-12.09,11.53-13.64,4.67-3.79,10.56-3.37a3.47,3.47,0,0,1,1,.1h.35l.63.11.41.08.54.12.44.1.46.14.46.14.38.14a4.09,4.09,0,0,1,.49.18l.21.08,1.27.56h0a9.18,9.18,0,0,1,4.59,4.12c.58,1.72.23,9.41,1,13.08a13.27,13.27,0,0,0,1.82,1.62,1.15,1.15,0,0,0,.59.19,4.65,4.65,0,0,0,1.72-.71,6.91,6.91,0,0,0-.08-4.31c-1.32-5.2-2.16-10.94-.35-13.16s11.79-8.58,13.3-8.73,11.24-1.68,17.29.47c.37.14.71.28,1,.43l.3.15c.21.1.42.21.61.32l.31.19.5.33.28.2.44.37.23.2.42.4.18.18.37.43.13.15c.13.18.26.35.37.52v.08a9,9,0,0,1,.67,1.16h0c.08.17.14.34.22.49V484a.55.55,0,0,0,.13.36v.14l.1.29a.24.24,0,0,0,0,.12v.6h0v.2H638.5l-1,.07h0l-.94.1h-.15l-.89.1h-.16l-.86.13h-.12l-.83.15-.66.17h-.13a3.38,3.38,0,0,0-.63.23h0l-.54.24h-.12l-.53.32h-.08l-.44.32h-.09l-.45.38V488l-.37.37h0a2.88,2.88,0,0,0-.33.43h0a4.59,4.59,0,0,0-.48.87h0a2.29,2.29,0,0,0-.15.82h0a1.22,1.22,0,0,0,.22.72h0a1.57,1.57,0,0,0,.65.52h0l.25.11h0l.26.08h2.18l.62-.11c7.2-1.53,15.47-7.45,21.22-5.77l.55.2.17.08.36.17.2.1.32.19.22.14.3.21.22.15.29.23.2.17.3.26.19.17.3.29.17.18.31.32.15.17.3.37.14.15.32.4a.53.53,0,0,1,.11.15c.12.14.23.29.34.43l.09.12.33.49v.09a6,6,0,0,1,.36.52v.08l.35.55h0l.35.58h0a30.42,30.42,0,0,1,3.32,7.65,11.25,11.25,0,0,0,.26,1.78h0a5.38,5.38,0,0,0,.2,1.15h0v.23h0v.34a3,3,0,0,0,.09.41l-.78-.24h0l-1.06-.33-.3-.09-.28-.07-.38-.13h-.29l-.52-.15h-.22l-.81-.23H660l-.77-.21H659l-.68-.19-.26-.07-.83-.23h-.14l-1-.26h-.22l-.78-.2-.32-.08-.73-.18-.31-.08-1-.24c-6-1.42-12.31-3.55-15.66-1.68l-.67.39h0l-.64.42h0l-.64.44h0l-.62.47h0l-.58.49h0c-.18.17-.36.34-.52.51h0l-.46.5h0c-.13.19-.27.35-.38.52h0a3.77,3.77,0,0,0-.29.61h0v.16h0a1.55,1.55,0,0,0,0,.43h0v.1h0V505h0a.38.38,0,0,0,.11.11l.09.08h6l6.42-.19h3.91a56,56,0,0,1,11.06.55c4.17,1.09,6.27,4.18,6.71,8.44a24.89,24.89,0,0,1-.95,8.54h0v.21h0v.11h-.23l-.27-.14-.17-.08-.23-.12-.2-.09-.33-.17h-.25l-.24-.12h-.17l-.17-.09h-.15l-.4-.22-.17-.09-.4-.21h-.07l-.2-.11-.22-.12h0l-.42-.25h-.08l-.52-.3h0l-.18-.11-.28-.17h0l-.29-.18h-.09l-.11-.08h0l-.5-.35-.16-.11-.47-.33-.14-.11c-.18-.14-.36-.28-.53-.43s0,0-.08,0l-.38-.33-.11-.13L657,518c-1.76-2.36-5-4.06-9.36-4.59h-8.73l-.44.07h-.11a25.55,25.55,0,0,0-3,.77h0l-.38.14h0l-.35.13h0l-.32.14h0c-.66.31-1.07.64-1.15,1a.65.65,0,0,0,.24.61,7.14,7.14,0,0,0,2.79,1.19l.87.23h.14c.61.14,1.25.28,1.92.4h.16l1,.2h.08l1.07.17h.08l1.13.18h.09l3.73.58.78.13h.32l1,.15h.16l.83.15h.2l.85.15h.19l.73.16h.11l.72.17h.15l.64.16a41.77,41.77,0,0,1,7.46,3.06h.1l.47.26.14.09.4.23.16.11.34.21.2.13.27.18.22.15.21.17.25.18.15.11c.11.11.23.2.32.31a26.45,26.45,0,0,1,4.82,4.81,7.75,7.75,0,0,1,.46.66l.09.14c.12.18.24.36.35.56a.2.2,0,0,0,0,.11c.12.21.23.43.34.66h0a15.84,15.84,0,0,1,1.37,9.17c-.61,3.89-2.77,12.48-2.77,12.48s-3-7.29-6.11-10.52-8.84-7-11.35-9-5.82-7.26-8.74-8.48-14.65-4.31-11.73-.55a6.78,6.78,0,0,0,.46.5l.11.09a5.31,5.31,0,0,0,.55.49l.1.08.61.44h.1l.75.46.15.09.82.48h0l.88.46h.15l1,.45h.13l1,.46h0c4.36,2,9.37,3.87,11.27,6.12a43.43,43.43,0,0,0,4.9,4.59l1.93,1.6.12.12.86.72h0l.79.71.17.15c.26.23.52.46.75.69h.08l.64.64.12.14a7.27,7.27,0,0,1,.61.64l.1.12c.16.2.33.38.47.58l.08.09c.15.2.29.42.41.6a.39.39,0,0,0,.08.14c.1.19.2.39.29.59,1.37,3.41,2.43,3.81,3.91,5.94s1.09,8-.18,10.42c0,.1-.11.2-.19.33v.09l-.2.35h0l-.24.4v.1l-.24.4h0l-.28.44-.09.13-.28.42h0l-.3.48-.11.15c-.09.14-.18.29-.29.43h0l-.43.63h0c-1.14,1.71-2.29,3.34-2.8,4.08h0v.09h0l-.09.11h0v.1a76.56,76.56,0,0,1-6.11-12.3c-1.84-5.4-6.47-8.47-8.23-10.83s-6.9-7.64-9.59-9.17l-.81-.48-1-.58h0c-2.08-1.22-4.22-2.17-7-.32-3.56,2.4.52,5,5.13,7.85a133.47,133.47,0,0,1,17.2,14.2,17.65,17.65,0,0,1,2.26,2.83h0c.37.55.72,1.13,1.07,1.71h0a60.82,60.82,0,0,1,3.74,7.81h0l.1.22h0c.07.2.15.36.2.5h0v.2h0a80.26,80.26,0,0,1-6.59,9.83c-2.73,3.06-6.33,5-5.54,2.86a18.72,18.72,0,0,0,.55-6.91l-.14-1.25s-2-3.78-3.39-6.64h0c-.31-.67-.58-1.28-.78-1.8a39,39,0,0,0-7.92-10.34c-2.22-1.8-5.66-5.5-8.17-5.24h-.48a1,1,0,0,0-.33.13h0l-.3.2v.08a1.37,1.37,0,0,0-.22.2h0l-.19.27V556l-.11.21-.09.2a1.12,1.12,0,0,0-.08.26.74.74,0,0,0,0,.21v.19a3.23,3.23,0,0,0,0,.44v.12a1.4,1.4,0,0,0,0,.29,7.76,7.76,0,0,0,.15,1.36h0a1.4,1.4,0,0,0,.1.35v.22a.37.37,0,0,0,.1.29l.09.27a1.89,1.89,0,0,0,.11.25l.15.35.1.2a3.92,3.92,0,0,0,.29.53c1.85,3.06,13,12.36,14.86,16l.32.66h0a47.53,47.53,0,0,1,2.75,9.42s-6.79,5.52-9.72,6.59-6.62,2.21-6.62,2.21-2.8,2.33-2.94,1.07l-.12-1.26a46.2,46.2,0,0,0-5.89-2.94,3.64,3.64,0,0,1-1.53-1.07h0a3.9,3.9,0,0,1-.36-.54v-.09a4.33,4.33,0,0,1-.43-1.27v-.13a6.55,6.55,0,0,1-.08-1.53v-.17a6.87,6.87,0,0,1,.08-.78h0a2.49,2.49,0,0,1,.14-.83c.13-.42,0-.12,0-.19s.12-.56.19-.85c.92-3.39,1.53-12.07-.87-13.36l-.24-.08h-.32l-.16.08h0a.66.66,0,0,0-.15.14l-.08.08-.15.21v.08a2.5,2.5,0,0,0-.21.35v.09a2.07,2.07,0,0,0-.15.34l-.08.15-.12.32v.18l-.13.37a.54.54,0,0,1,0,.18,1.39,1.39,0,0,1-.12.43v.17c-.11.4-.21.84-.32,1.3a.38.38,0,0,0,0,.15,5.23,5.23,0,0,0-.12.54v.2a3.46,3.46,0,0,1-.11.52v.19a1,1,0,0,1-.11.57v.15l-.13.74h0c-.51,2.86-.89,5.7-1.18,6.88a20.2,20.2,0,0,0,0,6.85L602,590.35a24.59,24.59,0,0,1-1.11-10.8c.55-6.91,7.29-17.77,9.17-21.27.12-.21.24-.46.37-.68h0a11.46,11.46,0,0,0,1.43-5h0a2.6,2.6,0,0,0-1.4-2.53h0a3.47,3.47,0,0,0-1.3-.33h-.93l-.23.07h-.16l-.21.11h-.14l-.21.14-.12.07-.23.19-.1.07c-.21.2-.42.41-.61.63v.09l-.21.28-.09.12-.2.28a.24.24,0,0,1,0,.12l-.19.32-.07.12a3.35,3.35,0,0,0-.2.37v.07c-.35.66-.67,1.37-1,2.1h0c-.92,2.22-1.7,4.66-2.6,6.38-2.12,4-4.81,9.89-5.2,13.48a57.85,57.85,0,0,0,.91,11.07s-3.45-2.9-5.8-5.12h0l-.35-.32h0l-.93-.92h0l-.19-.18v-.08l-.14-.15V579l-.1-.14h0l-.12-.17a13.38,13.38,0,0,1-1.26-2.4,5,5,0,0,1-3.21-4v-2.18a1.13,1.13,0,0,0,0-.26v-.64a1.31,1.31,0,0,1,0-.28,3.7,3.7,0,0,1,.08-.92v-.72h0a25.91,25.91,0,0,1,6.21-13.91c6.11-6.73,13.16-12.54,12.14-15a1.63,1.63,0,0,0-2-.87l-.29.08h-.28l-.3.1-.4.16-.45.21-.41.21-.32.19-.5.3-.29.2-.74.51-.3.24-.63.49-.26.22c-.31.24-.6.5-.9.78l-.26.24-.77.72-.27.27c-.34.32-.67.66-1,1l-.18.2c-.31.3-.6.64-.92,1l-.29.33-1.12,1.29c-.41.5-.84,1-1.25,1.53-.14.16-.28.32-.43.47-.26.3-.54.61-.81.9l-.52.54c-.24.25-.46.5-.69.73l-.6.61-.58.6-.67.64-.47.46-.74.7-.35.34-.82.75-.22.2c-.32.3-.64.58-.95.85h0a36.23,36.23,0,0,0-5.15,4.91,19.13,19.13,0,0,1-3.39,3.9s-2-4.4-3.35-8.24h0c-2.23,1-2.4.43-2.54,0Zm25.76,11.74c1.72,1.87,5.88.42,5.69-1.34s-2.63-1-2.63-1S616.48,514,618.19,515.88Z" fill="#2f2e41" data-secondary="true"/>
<rect x="658.47" y="333.02" width="4.56" height="276.53" fill="#2f2e41" data-secondary="true"/>
<rect x="645.1" y="487.37" width="4.56" height="122.18" fill="#263238"/>
<rect x="671.83" y="333.02" width="4.56" height="276.53" fill="#2f2e41" data-secondary="true"/>
<path d="M725,610.72H155.75a1,1,0,1,1,0-1.92H725a1,1,0,1,1,0,1.92Z" fill="#2f2e41" data-secondary="true"/>
<ellipse cx="436.4" cy="639.02" rx="203.47" ry="9.55" fill="#2f2e41" data-secondary="true"/>
<rect x="230.45" y="81.09" width="417.25" height="519.48" rx="6.13" fill="#fff"/>
<path d="M641.58,601.05h-405a6.62,6.62,0,0,1-6.61-6.61V87.22a6.62,6.62,0,0,1,6.61-6.61h405a6.62,6.62,0,0,1,6.61,6.61V594.44A6.62,6.62,0,0,1,641.58,601.05Zm-405-519.48a5.66,5.66,0,0,0-5.65,5.65V594.44a5.66,5.66,0,0,0,5.65,5.65h405a5.66,5.66,0,0,0,5.65-5.65V87.22a5.66,5.66,0,0,0-5.65-5.65Z" fill="#2f2e41" data-secondary="true"/>
<path d="M236.58,81.09h405a6.13,6.13,0,0,1,6.13,6.13v9.52H230.45V87.23a6.14,6.14,0,0,1,6.12-6.14Z" fill="#2f2e41" data-secondary="true"/>
<path d="M251.17,90.26a3.66,3.66,0,1,0-3.66,3.66h0a3.64,3.64,0,0,0,3.66-3.63Z" fill="#fff"/>
<path d="M268.4,90.26a3.67,3.67,0,1,0-3.66,3.66h0a3.64,3.64,0,0,0,3.65-3.65Z" fill="#fff"/>
<path d="M285.68,90.26A3.66,3.66,0,1,0,282,93.92h0a3.64,3.64,0,0,0,3.64-3.65Z" fill="#fff"/>
<rect id="bc0f4cb6-295c-4b43-b43b-0e25fb3ceb94" data-name="SVGID" x="247.48" y="120.76" width="374.44" height="211.68" fill="#d1d3d4"/>
<g clip-path="url(#e78a492d-c732-4eb0-bed4-01ceec9e10f1)">
<path d="M535.57,182.7l.93,11s11.15,4.83,25.37-1.86l-.59-11Z" fill="#f7a48b"/>
<ellipse cx="549.12" cy="166.17" rx="17.72" ry="25.65" fill="#f9b499"/>
<path d="M549.12,133.38s-8.2-9.52-17.72,5.29a70,70,0,0,1-7.12,4s-7.27,2.47-5.84,12.48c0,0,2.08,7.53-1.3,9.35,0,0-4.55,2.72-2.47,12.21a16.21,16.21,0,0,1-.07,11.31s-6.14,7.12-3.9,11.6c0,0,2.25,5.07,2.54,8.29l18.16-8s4.84-1,4.25-6.62l1,.09a63.2,63.2,0,0,0-1.06-10.71,27.56,27.56,0,0,1-3-7.14,37.41,37.41,0,0,1,.74-21.12s3.7-1.44,4.18-4.85c0,0,1.56-4.42,5.59-4a17.51,17.51,0,0,0,7.4-.78s5.59-1.95,5.59,4.55c0,0-.65,10.13,4.55,14.94,0,0,8,7.24.53,20.65l.67,6.9h.78s2.54,5.88,11.79,8.81L588,205l-.36.49s14.49,3.9,15.76,15.88c0,0,6-4.09,1-13.25a25.89,25.89,0,0,1-1-6.14s.78-9.74-6.68-11.72a4.65,4.65,0,0,1-3.3-3.1,21.16,21.16,0,0,1-.74-5.26l-.39-13.35s.49-3-4.5-5.79a9.57,9.57,0,0,1-4.41-5.26l-.09-.29a8.36,8.36,0,0,1-.19-3.69c.34-2.15.64-8-5.8-9.84a17.41,17.41,0,0,1-2.22-.83c-2.79-1.27-8.66-4.25-11.19-7.78a17,17,0,0,0-1.24-1.56C560.16,130.83,553.1,124.41,549.12,133.38Z" fill="#2f2e41" data-secondary="true"/>
<path d="M585.65,218.27l1.76,36.25-1,32.29a6.09,6.09,0,0,1-2.5,1.7,32.57,32.57,0,0,1-8.42,2.33s-20.4,2.08-36,0c0,0-16.78,1.49-23.81-1.37a9.8,9.8,0,0,1-.92-.42,3.25,3.25,0,0,1-1.66-3.1c.38-5.14,1.28-21.92-2.33-28.37,0,0,2-11.74,1.84-30.59,0,0-.72-10.63-3.17-17.5l22-9.55a5.71,5.71,0,0,0,4.26-6.62s10.91,5.51,26.21-1.5h.78a18.48,18.48,0,0,0,10.71,8.44L588,205S585.16,208.52,585.65,218.27Z" fill="#0071f2" data-primary="true"/>
<path d="M587.63,205.5s14.3,3.6,15.76,15.88c0,0,4.19,40-1.66,78.3l-3.51,27.55L588.74,304s-1-2-1.11-8.25c0,0,.91-6.24-3.44-4.42l-.29-2.79s2-.85,2.5-1.7l1-32.29-1.76-36.25S585,210,587.63,205.5Z" fill="#f9b499"/>
<path d="M584.19,291.3c-32.38,6.56-68.51,3.32-68.51,3.32v-5.15c7,2.86,23.81,1.37,23.81,1.37,15.59,2.08,36,0,36,0a32.57,32.57,0,0,0,8.42-2.33Z" fill="#f9b499"/>
<path d="M588.42,303.22l18,43.4c-15.41,21.05-60.11,24.85-60.11,24.85-41.23,3.22-56.43-29.82-56.43-29.82,14.32-13.45,22.61-40.54,22.61-40.54-.2-7.41,3.22-6.49,3.22-6.49s34,3.44,68.51-3.32c0,0,3.87-2.34,3.44,4.42C587.63,295.72,587.9,302,588.42,303.22Z" fill="#2f2e41" data-secondary="true"/>
<path d="M587.41,254.52s5.94,7,5.45,21.35c0,0,.33,21.7-4.12,28.1,0,0-.9-1.91-1.09-8.55,0,0,.68-5.84-3.46-4.12l-.29-2.79a6.35,6.35,0,0,0,2.5-1.7Z" fill="#f7a48b"/>
<path d="M510.77,257.58c-2.12,15.87-4.08,22.44-6.34,29-1.88,5.54-3.26,7.47-3.26,7.47-7.44,10.56-18.15,3-18.15,3-5.35-1.19-9.22-21.41-9.22-21.41L461.75,223c-7.58-9.22-14.57-35.85-14.57-35.85-1.05-4.76,3.27-1.93,3.27-1.93l-.75-4.32c-.74-5.35,3.57-3.27,3.57-3.27-.44-2.23.9-2.54.9-2.54,2.38-1.5,5.35,4.18,5.35,4.18l-.74-4.45a2.14,2.14,0,0,1,1.43-2.38h0a2.16,2.16,0,0,1,2.63,1.16l10.07,22.77c.74,2.68,3.12.9,3.12.9,2.68-9.82,6.85-8.33,6.85-8.33,2.82.74-2.24,11.6-2.24,11.6l-3.27,18.15,12.2,30.19,4.84-20.73a26.27,26.27,0,0,1,1.58-4.73c1.88-4.24,6.08-11.52,13.45-13.92a91.68,91.68,0,0,1,3.76,23.32C513.36,238.17,512.49,244.64,510.77,257.58Z" fill="#f9b499"/>
<line x1="455.18" y1="198.57" x2="450.45" y2="185.21" fill="none" stroke="#f7a48b" stroke-miterlimit="10"/>
<line x1="459.82" y1="194.68" x2="453.27" y2="177.62" fill="none" stroke="#f7a48b" stroke-miterlimit="10"/>
<line x1="463.72" y1="191.89" x2="459.52" y2="179.26" fill="none" stroke="#f7a48b" stroke-miterlimit="10"/>
<path d="M468.36,209.06s.3-6.89,4.34-10.49" fill="none" stroke="#f7a48b" stroke-miterlimit="10"/>
<path d="M489.57,248.87l4.4,9s2.21-5.61-3.61-12.39Z" fill="#f7a48b"/>
<path d="M536.5,196.54s13.63,3.19,25.55-1.86" fill="none" stroke="#0071f2" stroke-miterlimit="10"/>
<path d="M513.76,301.69s41.89,5.18,72.63-2" fill="none" stroke="#000" stroke-miterlimit="10" opacity="0.2"/>
<circle cx="558.97" cy="298.79" r="1.58" fill="none" stroke="#000" stroke-miterlimit="10" opacity="0.2"/>
<line x1="563.53" y1="295.42" x2="563.53" y2="301.6" fill="none" stroke="#000" stroke-miterlimit="10" opacity="0.2"/>
<ellipse cx="530.08" cy="170" rx="4.5" ry="6.74" fill="#f9b499"/>
<path d="M512.25,208.27s9.26,32.87-.86,50.62" fill="none" stroke="#000" stroke-miterlimit="10" opacity="0.2"/>
<path d="M585.36,205.5s-6.05,9,1,47.49" fill="none" stroke="#000" stroke-miterlimit="10" opacity="0.2"/>
<path d="M515.68,254.52s11,5.67,22.2,0" fill="none" stroke="#000" stroke-miterlimit="10" opacity="0.2"/>
<path d="M557.39,255.78s13.49,4,25.56-2.79" fill="none" stroke="#000" stroke-miterlimit="10" opacity="0.2"/>
</g>
<rect x="256.64" y="139.76" width="115.71" height="1.92" fill="#2f2e41" data-secondary="true"/>
<rect x="256.64" y="189.23" width="66.72" height="0.96" fill="#2f2e41" data-secondary="true"/>
<rect x="256.64" y="200.71" width="66.72" height="0.96" fill="#2f2e41" data-secondary="true"/>
<rect x="256.64" y="212.16" width="66.72" height="0.96" fill="#2f2e41" data-secondary="true"/>
<rect x="256.64" y="223.64" width="66.72" height="0.96" fill="#2f2e41" data-secondary="true"/>
<rect x="256.64" y="235.11" width="66.72" height="0.96" fill="#2f2e41" data-secondary="true"/>
<rect x="256.64" y="156.44" width="162.62" height="1.92" fill="#2f2e41" data-secondary="true"/>
<rect x="242.05" y="333.04" width="388.81" height="0.96" fill="#2f2e41" data-secondary="true"/>
<rect x="242.05" y="582.29" width="388.81" height="0.96" fill="#2f2e41" data-secondary="true"/>
<path d="M260.13,314.72h54.49a4.8,4.8,0,0,1,4.8,4.8v14h-64v-14A4.8,4.8,0,0,1,260.13,314.72Z" fill="#2f2e41" data-secondary="true"/>
<path d="M328.49,314.72H383a4.8,4.8,0,0,1,4.8,4.8v14H323.69v-14A4.8,4.8,0,0,1,328.49,314.72Z" fill="#2f2e41" data-secondary="true"/>
<path d="M396.82,314.72h54.49a4.8,4.8,0,0,1,4.8,4.8h0v14H392v-14A4.79,4.79,0,0,1,396.82,314.72Z" fill="#2f2e41" data-secondary="true"/>
<rect x="265.7" y="324.14" width="42.36" height="0.96" fill="#0071f2" data-primary="true"/>
<rect x="334" y="324.14" width="42.36" height="0.96" fill="#0071f2" data-primary="true"/>
<rect x="402.27" y="324.14" width="42.36" height="0.96" fill="#0071f2" data-primary="true"/>
<path d="M428.38,453.27H245.24V349.89H428.38ZM621.92,349.89H438.78V453.27H621.92Zm-257.53,112H245.2V565.29H364.39Zm257.48,0H374.45V565.29H621.92Z" fill="#0071f2" data-primary="true"/>
<path d="M428.38,453.27H245.24V349.89H428.38ZM621.92,349.89H438.78V453.27H621.92Zm-257.53,112H245.2V565.29H364.39Zm257.48,0H374.45V565.29H621.92Z" fill="#fff" opacity="0.4" style="isolation:isolate"/>
<path d="M270,365.84a9.05,9.05,0,1,0,10.65-7.11,9.17,9.17,0,0,0-3.54,0A9.06,9.06,0,0,0,270,365.84Z" fill="#fff" opacity="0.6" style="isolation:isolate"/>
<polygon points="305.93 410.93 428.38 410.93 367.16 367.61 305.93 410.93" fill="#2f2e41" data-secondary="true"/>
<polygon points="263.74 414.67 348.12 414.67 305.93 392.7 263.74 414.67" fill="#0071f2" data-primary="true"/>
<rect x="245.65" y="410.92" width="182.72" height="42.34" fill="#0071f2" data-primary="true"/>
<path d="M258.08,479.07a5.77,5.77,0,1,0,4.53-4.53A5.78,5.78,0,0,0,258.08,479.07Z" fill="#fff" opacity="0.6" style="isolation:isolate"/>
<polygon points="284.6 523.52 364.13 523.52 324.37 480.2 284.6 523.52" fill="#2f2e41" data-secondary="true"/>
<polygon points="257.2 527.26 312 527.26 284.6 505.29 257.2 527.26" fill="#0071f2" data-primary="true"/>
<rect x="245.45" y="523.52" width="118.67" height="42.34" fill="#0071f2" data-primary="true"/>
<path d="M463.38,365.84A9,9,0,1,0,474,358.73a9.22,9.22,0,0,0-3.55,0A9.05,9.05,0,0,0,463.38,365.84Z" fill="#fff" opacity="0.6" style="isolation:isolate"/>
<polygon points="499.26 410.93 621.72 410.93 560.5 367.61 499.26 410.93" fill="#2f2e41" data-secondary="true"/>
<polygon points="457.08 414.67 541.45 414.67 499.26 392.7 457.08 414.67" fill="#0071f2" data-primary="true"/>
<rect x="438.98" y="410.92" width="182.72" height="42.34" fill="#0071f2" data-primary="true"/>
<path d="M416.42,476.2a9.06,9.06,0,1,0,10.65-7.11,9.17,9.17,0,0,0-3.54,0A9.06,9.06,0,0,0,416.42,476.2Z" fill="#fff" opacity="0.6" style="isolation:isolate"/>
<polygon points="454.7 524.72 621.7 524.72 538.21 481.4 454.7 524.72" fill="#2f2e41" data-secondary="true"/>
<polygon points="398.81 525.84 513.04 525.84 455.92 503.06 398.81 525.84" fill="#0071f2" data-primary="true"/>
<rect x="374.31" y="521.96" width="247.36" height="43.9" fill="#0071f2" data-primary="true"/>
</svg>