<svg width="299" height="60" viewBox="0 0 299 60" fill="none" xmlns="http://www.w3.org/2000/svg">
<path d="M30.0001 4.99981C16.2001 4.99981 5.00009 16.1998 5.00009 29.9998C5.00009 43.7998 16.2001 54.9998 30.0001 54.9998C43.8001 54.9998 55.0001 43.7998 55.0001 29.9998C55.0001 16.1998 43.8001 4.99981 30.0001 4.99981ZM42.5001 32.4998H32.5001V42.4998H27.5001V32.4998H17.5001V27.4998H27.5001V17.4998H32.5001V27.4998H42.5001V32.4998Z" fill="url(#paint0_linear_1_201)"/>
<path d="M87.4389 26.5071H83.7202C83.6141 25.8973 83.4186 25.357 83.1335 24.8864C82.8485 24.4091 82.4938 24.0047 82.0696 23.6733C81.6454 23.3419 81.1615 23.0933 80.6179 22.9276C80.081 22.7552 79.5009 22.669 78.8778 22.669C77.7708 22.669 76.7898 22.9474 75.9347 23.5043C75.0795 24.0544 74.41 24.8632 73.9261 25.9304C73.4422 26.991 73.2003 28.2869 73.2003 29.8182C73.2003 31.3759 73.4422 32.6884 73.9261 33.7557C74.4167 34.8163 75.0862 35.6184 75.9347 36.1619C76.7898 36.6989 77.7675 36.9673 78.8679 36.9673C79.4777 36.9673 80.0478 36.8878 80.5781 36.7287C81.1151 36.563 81.5956 36.321 82.0199 36.0028C82.4508 35.6847 82.812 35.2936 83.1037 34.8295C83.402 34.3655 83.6075 33.8352 83.7202 33.2386L87.4389 33.2585C87.2997 34.2263 86.9981 35.1345 86.5341 35.983C86.0767 36.8314 85.4768 37.5805 84.7344 38.2301C83.992 38.8731 83.1236 39.3769 82.1293 39.7415C81.1349 40.0994 80.0313 40.2784 78.8182 40.2784C77.0284 40.2784 75.4309 39.8641 74.0256 39.0355C72.6203 38.2069 71.5133 37.0104 70.7045 35.446C69.8958 33.8816 69.4915 32.0057 69.4915 29.8182C69.4915 27.6241 69.8991 25.7481 70.7145 24.1903C71.5298 22.6259 72.6402 21.4295 74.0455 20.6009C75.4508 19.7723 77.0417 19.358 78.8182 19.358C79.9517 19.358 81.0057 19.517 81.9801 19.8352C82.9545 20.1534 83.8229 20.6207 84.5852 21.2372C85.3475 21.8471 85.974 22.5961 86.4645 23.4844C86.9616 24.366 87.2865 25.3736 87.4389 26.5071ZM90.658 40V24.7273H94.1481V27.2727H94.3072C94.5856 26.3911 95.0629 25.7116 95.739 25.2344C96.4218 24.7505 97.2006 24.5085 98.0756 24.5085C98.2745 24.5085 98.4966 24.5185 98.7418 24.5384C98.9937 24.5516 99.2025 24.5748 99.3683 24.608V27.919C99.2158 27.866 98.9738 27.8196 98.6424 27.7798C98.3176 27.7334 98.0027 27.7102 97.6978 27.7102C97.0415 27.7102 96.4516 27.8527 95.9279 28.1378C95.4109 28.4162 95.0032 28.804 94.7049 29.3011C94.4066 29.7983 94.2575 30.3717 94.2575 31.0213V40H90.658ZM107.892 40.2983C106.361 40.2983 105.038 39.9801 103.925 39.3438C102.818 38.7008 101.966 37.7926 101.369 36.6193C100.773 35.4394 100.474 34.0507 100.474 32.4531C100.474 30.8821 100.773 29.5033 101.369 28.3168C101.973 27.1236 102.814 26.1955 103.895 25.5327C104.975 24.8632 106.245 24.5284 107.703 24.5284C108.644 24.5284 109.533 24.6809 110.368 24.9858C111.21 25.2841 111.952 25.7481 112.595 26.3778C113.245 27.0076 113.755 27.8097 114.126 28.7841C114.498 29.7519 114.683 30.9053 114.683 32.2443V33.348H102.165V30.9219H111.233C111.226 30.2325 111.077 29.6193 110.786 29.0824C110.494 28.5388 110.086 28.1113 109.562 27.7997C109.045 27.4882 108.442 27.3324 107.753 27.3324C107.017 27.3324 106.371 27.5114 105.814 27.8693C105.257 28.2206 104.823 28.6847 104.511 29.2614C104.206 29.8314 104.051 30.4579 104.044 31.1406V33.2585C104.044 34.1468 104.206 34.9091 104.531 35.5455C104.856 36.1752 105.31 36.6591 105.893 36.9972C106.477 37.3286 107.16 37.4943 107.942 37.4943C108.465 37.4943 108.939 37.4214 109.364 37.2756C109.788 37.1231 110.156 36.901 110.467 36.6094C110.779 36.3177 111.014 35.9564 111.173 35.5256L114.534 35.9034C114.322 36.7917 113.918 37.5672 113.321 38.2301C112.731 38.8864 111.975 39.3968 111.054 39.7614C110.133 40.1193 109.079 40.2983 107.892 40.2983ZM122.123 40.3082C121.155 40.3082 120.284 40.1359 119.508 39.7912C118.739 39.4399 118.129 38.9228 117.679 38.2401C117.234 37.5573 117.012 36.7154 117.012 35.7145C117.012 34.8527 117.172 34.1402 117.49 33.5767C117.808 33.0133 118.242 32.5625 118.792 32.2244C119.342 31.8864 119.962 31.6312 120.652 31.4588C121.348 31.2798 122.067 31.1506 122.809 31.071C123.704 30.9782 124.43 30.8954 124.987 30.8224C125.544 30.7429 125.948 30.6236 126.2 30.4645C126.458 30.2988 126.588 30.0436 126.588 29.6989V29.6392C126.588 28.8902 126.366 28.3101 125.922 27.8991C125.477 27.4882 124.838 27.2827 124.002 27.2827C123.121 27.2827 122.422 27.4749 121.904 27.8594C121.394 28.2438 121.049 28.6979 120.87 29.2216L117.51 28.7443C117.775 27.8163 118.212 27.0407 118.822 26.4176C119.432 25.7879 120.178 25.3172 121.059 25.0057C121.941 24.6875 122.915 24.5284 123.983 24.5284C124.718 24.5284 125.451 24.6146 126.18 24.7869C126.909 24.9593 127.575 25.2443 128.179 25.642C128.782 26.0331 129.266 26.5668 129.63 27.2429C130.002 27.919 130.187 28.7642 130.187 29.7784V40H126.727V37.902H126.608C126.389 38.3262 126.081 38.724 125.683 39.0952C125.292 39.4598 124.798 39.7547 124.201 39.9801C123.611 40.1989 122.919 40.3082 122.123 40.3082ZM123.058 37.6634C123.78 37.6634 124.407 37.5208 124.937 37.2358C125.467 36.9441 125.875 36.5597 126.16 36.0824C126.452 35.6051 126.598 35.0848 126.598 34.5213V32.7216C126.485 32.8144 126.293 32.9006 126.021 32.9801C125.756 33.0597 125.458 33.1293 125.126 33.1889C124.795 33.2486 124.467 33.3016 124.142 33.348C123.817 33.3944 123.535 33.4342 123.297 33.4673C122.76 33.5402 122.279 33.6596 121.855 33.8253C121.431 33.991 121.096 34.223 120.85 34.5213C120.605 34.813 120.483 35.1908 120.483 35.6548C120.483 36.3177 120.725 36.8182 121.208 37.1562C121.692 37.4943 122.309 37.6634 123.058 37.6634ZM141.433 24.7273V27.5114H132.653V24.7273H141.433ZM134.821 21.0682H138.42V35.4062C138.42 35.8902 138.493 36.2614 138.639 36.5199C138.791 36.7718 138.99 36.9441 139.235 37.0369C139.481 37.1297 139.752 37.1761 140.051 37.1761C140.276 37.1761 140.482 37.1596 140.667 37.1264C140.859 37.0933 141.005 37.0634 141.105 37.0369L141.711 39.8509C141.519 39.9171 141.244 39.9901 140.886 40.0696C140.535 40.1491 140.104 40.1955 139.593 40.2088C138.692 40.2353 137.88 40.0994 137.157 39.8011C136.435 39.4962 135.861 39.0256 135.437 38.3892C135.02 37.7528 134.814 36.9574 134.821 36.0028V21.0682ZM151.04 40.2983C149.509 40.2983 148.187 39.9801 147.073 39.3438C145.966 38.7008 145.114 37.7926 144.518 36.6193C143.921 35.4394 143.623 34.0507 143.623 32.4531C143.623 30.8821 143.921 29.5033 144.518 28.3168C145.121 27.1236 145.963 26.1955 147.043 25.5327C148.124 24.8632 149.393 24.5284 150.852 24.5284C151.793 24.5284 152.681 24.6809 153.516 24.9858C154.358 25.2841 155.101 25.7481 155.744 26.3778C156.393 27.0076 156.904 27.8097 157.275 28.7841C157.646 29.7519 157.832 30.9053 157.832 32.2443V33.348H145.313V30.9219H154.381C154.375 30.2325 154.226 29.6193 153.934 29.0824C153.642 28.5388 153.235 28.1113 152.711 27.7997C152.194 27.4882 151.591 27.3324 150.901 27.3324C150.165 27.3324 149.519 27.5114 148.962 27.8693C148.406 28.2206 147.971 28.6847 147.66 29.2614C147.355 29.8314 147.199 30.4579 147.192 31.1406V33.2585C147.192 34.1468 147.355 34.9091 147.68 35.5455C148.004 36.1752 148.459 36.6591 149.042 36.9972C149.625 37.3286 150.308 37.4943 151.09 37.4943C151.614 37.4943 152.088 37.4214 152.512 37.2756C152.936 37.1231 153.304 36.901 153.616 36.6094C153.927 36.3177 154.163 35.9564 154.322 35.5256L157.683 35.9034C157.47 36.7917 157.066 37.5672 156.469 38.2301C155.879 38.8864 155.124 39.3968 154.202 39.7614C153.281 40.1193 152.227 40.2983 151.04 40.2983ZM167.981 40V19.6364H181.027V22.7287H171.67V28.2571H180.132V31.3494H171.67V40H167.981ZM187.828 19.6364V40H184.228V19.6364H187.828ZM195.924 40.3082C194.956 40.3082 194.085 40.1359 193.309 39.7912C192.54 39.4399 191.93 38.9228 191.479 38.2401C191.035 37.5573 190.813 36.7154 190.813 35.7145C190.813 34.8527 190.972 34.1402 191.29 33.5767C191.609 33.0133 192.043 32.5625 192.593 32.2244C193.143 31.8864 193.763 31.6312 194.452 31.4588C195.148 31.2798 195.868 31.1506 196.61 31.071C197.505 30.9782 198.231 30.8954 198.788 30.8224C199.344 30.7429 199.749 30.6236 200.001 30.4645C200.259 30.2988 200.388 30.0436 200.388 29.6989V29.6392C200.388 28.8902 200.166 28.3101 199.722 27.8991C199.278 27.4882 198.638 27.2827 197.803 27.2827C196.922 27.2827 196.222 27.4749 195.705 27.8594C195.195 28.2438 194.85 28.6979 194.671 29.2216L191.31 28.7443C191.576 27.8163 192.013 27.0407 192.623 26.4176C193.233 25.7879 193.978 25.3172 194.86 25.0057C195.742 24.6875 196.716 24.5284 197.783 24.5284C198.519 24.5284 199.252 24.6146 199.981 24.7869C200.71 24.9593 201.376 25.2443 201.979 25.642C202.583 26.0331 203.067 26.5668 203.431 27.2429C203.802 27.919 203.988 28.7642 203.988 29.7784V40H200.528V37.902H200.408C200.19 38.3262 199.881 38.724 199.484 39.0952C199.093 39.4598 198.599 39.7547 198.002 39.9801C197.412 40.1989 196.719 40.3082 195.924 40.3082ZM196.859 37.6634C197.581 37.6634 198.208 37.5208 198.738 37.2358C199.268 36.9441 199.676 36.5597 199.961 36.0824C200.253 35.6051 200.398 35.0848 200.398 34.5213V32.7216C200.286 32.8144 200.094 32.9006 199.822 32.9801C199.557 33.0597 199.258 33.1293 198.927 33.1889C198.595 33.2486 198.267 33.3016 197.942 33.348C197.618 33.3944 197.336 33.4342 197.097 33.4673C196.56 33.5402 196.08 33.6596 195.656 33.8253C195.231 33.991 194.897 34.223 194.651 34.5213C194.406 34.813 194.283 35.1908 194.283 35.6548C194.283 36.3177 194.525 36.8182 195.009 37.1562C195.493 37.4943 196.11 37.6634 196.859 37.6634ZM219.678 28.7642L216.397 29.1222C216.304 28.7907 216.142 28.4792 215.91 28.1875C215.684 27.8958 215.379 27.6605 214.995 27.4815C214.611 27.3026 214.14 27.2131 213.583 27.2131C212.834 27.2131 212.204 27.3755 211.694 27.7003C211.19 28.0251 210.942 28.446 210.948 28.9631C210.942 29.4072 211.104 29.7685 211.435 30.0469C211.773 30.3253 212.33 30.554 213.106 30.733L215.711 31.2898C217.156 31.6013 218.23 32.0952 218.933 32.7713C219.642 33.4474 220 34.3324 220.006 35.4261C220 36.3873 219.718 37.2358 219.161 37.9716C218.611 38.7008 217.845 39.2708 216.864 39.6818C215.883 40.0928 214.756 40.2983 213.484 40.2983C211.614 40.2983 210.11 39.9072 208.969 39.125C207.829 38.3362 207.15 37.2391 206.931 35.8338L210.441 35.4957C210.6 36.1851 210.938 36.7055 211.455 37.0568C211.972 37.4081 212.645 37.5838 213.474 37.5838C214.329 37.5838 215.015 37.4081 215.532 37.0568C216.056 36.7055 216.317 36.2713 216.317 35.7543C216.317 35.3168 216.148 34.9555 215.81 34.6705C215.479 34.3854 214.962 34.1667 214.259 34.0142L211.654 33.4673C210.189 33.1624 209.105 32.6487 208.403 31.9261C207.7 31.197 207.352 30.2756 207.359 29.1619C207.352 28.2206 207.607 27.4053 208.124 26.7159C208.648 26.0199 209.374 25.483 210.302 25.1051C211.237 24.7206 212.314 24.5284 213.533 24.5284C215.323 24.5284 216.732 24.9096 217.759 25.6719C218.793 26.4342 219.433 27.465 219.678 28.7642ZM226.574 31.0511V40H222.974V19.6364H226.494V27.3224H226.673C227.031 26.4607 227.585 25.7812 228.334 25.2841C229.089 24.7803 230.051 24.5284 231.217 24.5284C232.278 24.5284 233.203 24.7505 233.991 25.1946C234.78 25.6387 235.39 26.2884 235.821 27.1435C236.259 27.9986 236.477 29.0426 236.477 30.2756V40H232.878V30.8324C232.878 29.8049 232.613 29.0062 232.082 28.4361C231.559 27.8594 230.823 27.571 229.875 27.571C229.239 27.571 228.669 27.7102 228.165 27.9886C227.668 28.2604 227.277 28.6548 226.991 29.1719C226.713 29.6889 226.574 30.3153 226.574 31.0511ZM246.808 40.2983C245.284 40.2983 243.974 39.9635 242.881 39.294C241.794 38.6245 240.955 37.6998 240.365 36.5199C239.782 35.3333 239.49 33.9678 239.49 32.4233C239.49 30.8722 239.788 29.5033 240.385 28.3168C240.982 27.1236 241.823 26.1955 242.911 25.5327C244.004 24.8632 245.297 24.5284 246.788 24.5284C248.028 24.5284 249.125 24.7571 250.08 25.2145C251.041 25.6652 251.806 26.3049 252.376 27.1335C252.946 27.9555 253.271 28.9167 253.351 30.017H249.911C249.771 29.2812 249.44 28.6681 248.916 28.1776C248.399 27.6804 247.706 27.4318 246.838 27.4318C246.102 27.4318 245.456 27.6307 244.899 28.0284C244.342 28.4195 243.908 28.983 243.597 29.7188C243.292 30.4545 243.139 31.3362 243.139 32.3636C243.139 33.4044 243.292 34.2992 243.597 35.0483C243.902 35.7907 244.329 36.3641 244.879 36.7685C245.436 37.1662 246.089 37.3651 246.838 37.3651C247.368 37.3651 247.842 37.2656 248.26 37.0668C248.684 36.8613 249.039 36.5663 249.324 36.1818C249.609 35.7973 249.804 35.33 249.911 34.7798H253.351C253.265 35.8603 252.946 36.8182 252.396 37.6534C251.846 38.482 251.097 39.1316 250.149 39.6023C249.201 40.0663 248.088 40.2983 246.808 40.2983ZM260.701 40.3082C259.734 40.3082 258.862 40.1359 258.086 39.7912C257.317 39.4399 256.708 38.9228 256.257 38.2401C255.813 37.5573 255.591 36.7154 255.591 35.7145C255.591 34.8527 255.75 34.1402 256.068 33.5767C256.386 33.0133 256.82 32.5625 257.37 32.2244C257.921 31.8864 258.54 31.6312 259.23 31.4588C259.926 31.2798 260.645 31.1506 261.387 31.071C262.282 30.9782 263.008 30.8954 263.565 30.8224C264.122 30.7429 264.526 30.6236 264.778 30.4645C265.037 30.2988 265.166 30.0436 265.166 29.6989V29.6392C265.166 28.8902 264.944 28.3101 264.5 27.8991C264.056 27.4882 263.416 27.2827 262.581 27.2827C261.699 27.2827 261 27.4749 260.483 27.8594C259.972 28.2438 259.627 28.6979 259.449 29.2216L256.088 28.7443C256.353 27.8163 256.79 27.0407 257.4 26.4176C258.01 25.7879 258.756 25.3172 259.637 25.0057C260.519 24.6875 261.493 24.5284 262.561 24.5284C263.297 24.5284 264.029 24.6146 264.758 24.7869C265.487 24.9593 266.154 25.2443 266.757 25.642C267.36 26.0331 267.844 26.5668 268.208 27.2429C268.58 27.919 268.765 28.7642 268.765 29.7784V40H265.305V37.902H265.186C264.967 38.3262 264.659 38.724 264.261 39.0952C263.87 39.4598 263.376 39.7547 262.779 39.9801C262.19 40.1989 261.497 40.3082 260.701 40.3082ZM261.636 37.6634C262.359 37.6634 262.985 37.5208 263.515 37.2358C264.046 36.9441 264.453 36.5597 264.738 36.0824C265.03 35.6051 265.176 35.0848 265.176 34.5213V32.7216C265.063 32.8144 264.871 32.9006 264.599 32.9801C264.334 33.0597 264.036 33.1293 263.704 33.1889C263.373 33.2486 263.045 33.3016 262.72 33.348C262.395 33.3944 262.113 33.4342 261.875 33.4673C261.338 33.5402 260.857 33.6596 260.433 33.8253C260.009 33.991 259.674 34.223 259.429 34.5213C259.183 34.813 259.061 35.1908 259.061 35.6548C259.061 36.3177 259.303 36.8182 259.787 37.1562C260.27 37.4943 260.887 37.6634 261.636 37.6634ZM272.385 40V24.7273H275.875V27.2727H276.034C276.312 26.3911 276.789 25.7116 277.466 25.2344C278.148 24.7505 278.927 24.5085 279.802 24.5085C280.001 24.5085 280.223 24.5185 280.468 24.5384C280.72 24.5516 280.929 24.5748 281.095 24.608V27.919C280.942 27.866 280.7 27.8196 280.369 27.7798C280.044 27.7334 279.729 27.7102 279.424 27.7102C278.768 27.7102 278.178 27.8527 277.654 28.1378C277.137 28.4162 276.73 28.804 276.431 29.3011C276.133 29.7983 275.984 30.3717 275.984 31.0213V40H272.385ZM288.525 40.2685C287.325 40.2685 286.251 39.9602 285.303 39.3438C284.355 38.7273 283.606 37.8324 283.056 36.6591C282.506 35.4858 282.231 34.0606 282.231 32.3835C282.231 30.6866 282.509 29.2547 283.066 28.0881C283.629 26.9148 284.388 26.0298 285.343 25.4332C286.298 24.83 287.362 24.5284 288.535 24.5284C289.43 24.5284 290.165 24.6809 290.742 24.9858C291.319 25.2841 291.776 25.6454 292.114 26.0696C292.452 26.4872 292.714 26.8816 292.9 27.2528H293.049V19.6364H296.658V40H293.119V37.5938H292.9C292.714 37.965 292.446 38.3594 292.094 38.777C291.743 39.188 291.279 39.5393 290.702 39.831C290.126 40.1226 289.4 40.2685 288.525 40.2685ZM289.529 37.3153C290.291 37.3153 290.941 37.1098 291.478 36.6989C292.015 36.2812 292.423 35.7012 292.701 34.9588C292.979 34.2164 293.119 33.3513 293.119 32.3636C293.119 31.3759 292.979 30.5175 292.701 29.7884C292.429 29.0592 292.025 28.4924 291.488 28.0881C290.958 27.6837 290.305 27.4815 289.529 27.4815C288.727 27.4815 288.058 27.6903 287.521 28.108C286.984 28.5256 286.579 29.1023 286.308 29.8381C286.036 30.5739 285.9 31.4157 285.9 32.3636C285.9 33.3182 286.036 34.17 286.308 34.919C286.586 35.6615 286.994 36.2481 287.531 36.679C288.074 37.1032 288.74 37.3153 289.529 37.3153Z" fill="url(#paint1_linear_1_201)"/>
<defs>
<linearGradient id="paint0_linear_1_201" x1="30.0001" y1="4.99981" x2="30.0001" y2="54.9998" gradientUnits="userSpaceOnUse">
<stop stop-color="#06286E"/>
<stop offset="1" stop-color="#164EC0"/>
</linearGradient>
<linearGradient id="paint1_linear_1_201" x1="183.5" y1="13" x2="183.5" y2="47" gradientUnits="userSpaceOnUse">
<stop stop-color="#06286E"/>
<stop offset="1" stop-color="#164EC0"/>
</linearGradient>
</defs>
</svg>
